<svg xmlns="http://www.w3.org/2000/svg">

  <symbol id="girl" viewBox="0 0 418.67 418.79">
    <title>girl</title>
    <g opacity="0.36">
      <path d="M132.23,141.89c.9,0,3.14-1.34,1.21-1.34-.9,0-3.14,1.34-1.21,1.34Z" transform="translate(-1.47)" fill="#020202"/>
    </g>
    <path d="M73.75,213.26c-.49,39.88,4.89,80.62,17.82,118.45,5.71,16.72,13.51,33,25,46.54A106.29,106.29,0,0,0,154,406.08c59.7,27,129-.79,164.5-53.07,22.79-33.52,31.61-74.71,29.37-114.82-.08-1.47-5.9-.39-5.8,1.55C345.72,305.8,316.4,376.3,252.89,404a116.13,116.13,0,0,1-91.5.74c-30.94-13-50.94-38.86-62.34-69.82-14.36-39-20-81.79-19.51-123.21,0-1.37-5.77-.44-5.8,1.55Z"/>
    <path d="M112.06,125.35a118.42,118.42,0,0,1-6.15,47.09c-5.42,15.3-15.46,25.29-28.71,34.18-10.58,7.1-21.57,13.85-29.12,24.38-7.05,9.84-9.6,22.36-3.4,33.28,6.48,11.41,19.14,18,31.24,21.75,1.31.41,6.41-1.72,4.77-2.23-14.06-4.37-30-13.49-33.3-29.13-3.8-18.25,11.8-32.76,25.35-42,14.05-9.58,28.4-18.16,36-34.12,7.94-16.75,10.33-36.41,9.15-54.76-.06-1-5.9,0-5.8,1.55Z"/>
    <path d="M116.69,126.82h.41c1.05,0,3.85-.55,4-2,.45-3.72-5.24-2.63-6.6-.52-1.54,2.38.53,5.94,1.31,8.32,1.31,4,2.7,8,4.38,11.8,6.15,14.09,16.77,25.23,28.62,34.76a161.26,161.26,0,0,0,83.7,34.46c.88.09,5.54-.54,4.67-2.35a123.86,123.86,0,0,1-10.76-72.79c.35-2.24-5.49-1.24-5.79.73a125.31,125.31,0,0,0,10.76,73.62l4.67-2.35a158.44,158.44,0,0,1-70.25-25.11A134.75,134.75,0,0,1,137.49,161a71.62,71.62,0,0,1-10.75-16.52c-1.51-3.26-2.78-6.63-4-10-.61-1.74-4-8.73-2.58-10.41l-4.47,1.51-.4,0,4-2H119c-2.2-.07-6.16,3.16-2.26,3.28Z"/>
    <path d="M219.43,143.28c1.47,13.15,8.14,24.51,16,34.86a245.15,245.15,0,0,0,28.2,31.24c19.83,18.32,44.72,32.05,72.32,32,1.29,0,6.58-2.46,3.73-2.46-27.61.05-52.25-14.27-71.86-32.73A252.44,252.44,0,0,1,242,177.48c-8.22-10.56-15.23-22.22-16.74-35.75-.13-1.2-6-.06-5.8,1.55Z"/>
    <path d="M371.31,227.33c8.1,20.07-.14,43.64-20.4,52.42-3.71,1.61-.31,3.31,2.24,2.21,21.84-9.46,33-33.67,24-56.18-.77-1.91-6.49-.16-5.8,1.55Z"/>
    <path d="M13.68,415.15c-11.26-26.49-5.91-53.61,8.86-77.46A220.13,220.13,0,0,1,45.37,306.9c8.4-9.38,18.28-17.5,30.74-20.52,3.58-.87,2.58-4.59-1-3.73C49.54,288.85,32.4,313.34,18.9,334.2c-7.76,12-14.24,25.14-16.49,39.38A78.87,78.87,0,0,0,7.88,416.7c1,2.45,6.78.77,5.8-1.55Z"/>
    <path d="M13.92,417.92c19.59-15.61,34.71-36.4,46-58.61,11.5-22.54,19.56-47.32,21.16-72.67.06-1-5.68-.26-5.8,1.55-1.55,24.61-9.37,48.75-20.39,70.7-11.12,22.14-26,43.18-45.48,58.72-2.33,1.86,3.39,1.17,4.47.31Z"/>
    <path d="M340.72,284.38c-4.81,53.42,24.45,107.34,71.91,132.38,2,1,7.18-1.7,4.53-3.1-46.52-24.54-75.32-77.46-70.6-129.85.24-2.69-5.63-1.74-5.84.57Z"/>
    <path d="M346.46,288.85c5.56-.26,12.73,7.16,16.66,10.53A129.2,129.2,0,0,1,375.86,312,149.77,149.77,0,0,1,396,341.22a159.92,159.92,0,0,1,18.31,72.43c0,3,5.89,2,5.86-.47A163.5,163.5,0,0,0,399.83,336a147.45,147.45,0,0,0-23.2-31.45,133.3,133.3,0,0,0-13.55-12.17c-4.77-3.72-9.7-8-16.06-7.66-3.24.15-4.51,4.31-.55,4.12Z"/>
    <path d="M46.64,235c-13.42-13.82-15.9-33.72-16.5-52.14-.72-22.11.31-44.78,7.54-65.87,13.7-40,47.18-66.92,80.6-90.43C154.28,1.22,203.46-1.16,245.37,8c18.57,4.05,37.29,10.77,53.29,21.2,12.16,7.92,23,18,33,28.38a253.57,253.57,0,0,1,33.66,42.73c7.9,12.83,15.37,27.54,16,42.89.07,2,5.88.78,5.8-1.55-.52-14-6.85-27.3-13.72-39.21a240,240,0,0,0-31.21-41.75c-10.44-11.4-21.75-22.18-34.32-31.22-15.24-11-33.29-18.17-51.36-22.91A210.52,210.52,0,0,0,192,.33c-21.56,1.15-43.38,5.44-62.7,15.39-9.76,5-18.49,11.62-27.13,18.33-9.35,7.27-18.94,14.32-27.85,22.12C59.13,69.47,46.21,85.65,37.51,103.91,26.74,126.51,23.94,151.2,24.18,176c.21,21.27,1.41,45.16,17.1,61.31,1.47,1.52,7-.65,5.37-2.31Z"/>
    <path d="M382,140.78c3.3,15,3.25,30.39,3.08,45.71-.16,14.45-1.68,28-11.74,39.2-2.42,2.69,3.13,3.5,4.83,1.62,10.15-11.27,12.54-24.8,12.76-39.53.24-16.24.38-32.61-3.12-48.55-.57-2.6-6.38-1.1-5.8,1.55Z"/>
    <path d="M130.82,236.59a2.26,2.26,0,0,1-.61-2l-4.72,2.18c15.59,2,20.15,25.13,16.39,37.41-1.07,3.48-4.16,9.81-8.4,5.79-3.38-3.21-3.06-8.34-2.05-12.47A35.5,35.5,0,0,1,144,248.27c2.46-2-3.3-1.62-4.56-.62-7.66,6.1-14.4,15.75-14.52,25.91-.12,9.67,9.62,14.12,17.17,8.47s8-18.65,6-27.13c-2.25-9.32-8.68-19.62-19-20.93-1.23-.16-4.82.4-4.72,2.18a2.26,2.26,0,0,0,.61,2c1,1.71,6.52-.33,5.8-1.55Z"/>
    <path d="M269.76,229.83c2.05-1,6.8,7.48,7.36,8.48a51.23,51.23,0,0,1,4.09,9.28c2.1,6.43,3.72,14.43,1.26,21-1.77,4.72-7.84,8-11.09,2.86-1.87-2.94-1.72-6.4-.64-9.62,2.34-7,7.64-13,13-17.85,1.38-1.25-4.15-.77-5.29.26-6.62,6-18.29,18.51-13.17,28.37,3.72,7.17,14.16,5,19.21.6,8.2-7.22,4.85-21.64,1.35-30.32-3.43-8.51-9-19-19.51-14.09-3.47,1.63,1.87,1.8,3.42,1.07Z"/>
    <path d="M109.61,127.71c-.3,14.53-1.41,29.31-6.16,43.15-5.35,15.57-15.57,27.46-29.8,35.65-3.37,1.94,1.75,2.6,3.55,1.56,13.69-7.88,24.33-18.9,30.38-33.61,6.17-15,7.48-31.49,7.81-47.53,0-2.26-5.75-1-5.78.77Z"/>
    <path d="M195.24,285.56A70.15,70.15,0,0,1,182.36,318c-1.13,1.55,1.5,1.91,2.36,1.86a52.33,52.33,0,0,1,19.93,2.75c2,.67,6.79-2.24,3.5-3.34a59.33,59.33,0,0,0-22.7-2.87l2.36,1.86a72.39,72.39,0,0,0,13.27-33.34c.32-2.46-5.54-1.47-5.81.66Z"/>
    <path d="M5.23,380.46C9.39,384,16.43,392.88,22.32,387c2.46-2.45,2.61-6.91,3.31-10.11.36-1.61,2.39-14.84,3.16-15H26.11C29.37,363,32.46,367,35,369.28c1.39,1.27,4.91.12,5.59-1.5,6.1-14.62.34-31.49,7.61-45.72l-5.38,1.09A186.39,186.39,0,0,1,58.35,349c.95,1.9,6.58,0,5.8-1.55a191.27,191.27,0,0,0-16-26.53c-.93-1.29-4.76-.13-5.38,1.09-7.47,14.61-1.79,31.6-8,46.53l5.59-1.5c-2.79-2.54-6.66-8-10.78-8.14a6.69,6.69,0,0,0-6.43,4.18c-2,5-2.54,11.13-3.69,16.37a42.83,42.83,0,0,1-1,4.46c-.62,1.83.78,1.15-.37.65-2.47-1.09-5.43-4.6-7.47-6.34-1.5-1.27-6.88,1-5.39,2.23Z" />
    <path d="M280.77,89.79c1.15,0,6.52-2.21,3.8-2.21-1.15,0-6.52,2.21-3.8,2.21Z" />
    <path d="M279.06,180.44l36.5-17.33-3.08-2.57-32.17,19.9,3.73,2.21a310.84,310.84,0,0,1,26.78-16.77l-3.08-2.57a266.6,266.6,0,0,1-28.43,14.33l2.44,2.93,38.54-19.75-3.08-2.57a239.87,239.87,0,0,1-33.25,18.39l3.08,2.57a285.86,285.86,0,0,1,32.68-19.07l-3.08-2.57a236.35,236.35,0,0,1-41.48,21.66l3.08,2.57c14.62-8.84,29.38-17.69,45.65-23.18l-1.68-3.2A265.18,265.18,0,0,0,281,176.72c-3.36,2.13,1.61,3.45,3.73,2.21l31.1-18.26-3.73-2.21-33.24,21.85c-2.62,1.72.28,3.47,2.33,2.84a12.38,12.38,0,0,0,5-2.82c2.58-2.33-3.09-2.86-4.75-1.35l-1.19.71,2.33,2.84,33.24-21.85c3.35-2.2-1.63-3.44-3.73-2.21L281,176.72l3.73,2.21a256.59,256.59,0,0,1,39.86-20.57c3.11-1.28,1.13-4.15-1.68-3.2-17.28,5.84-32.91,15-48.45,24.44-3.19,1.93,1.11,3.36,3.08,2.57a244,244,0,0,0,42.78-22.38c3-2-1-3.6-3.08-2.57a297.15,297.15,0,0,0-34,19.79c-3,2.05,1,3.49,3.08,2.57a249.38,249.38,0,0,0,34.54-19.11c3-2-1-3.63-3.08-2.57L279.3,177.65c-3.58,1.83-.37,4.14,2.44,2.93a278.92,278.92,0,0,0,29.72-15.05c3-1.76-1-3.74-3.08-2.57a325.18,325.18,0,0,0-28.07,17.49c-3.28,2.29,1.64,3.5,3.73,2.21l32.17-19.9c3.08-1.91-1-3.54-3.08-2.57l-36.5,17.33c-3.6,1.71-.36,4.25,2.44,2.93Z" transform="translate(-1.47)"/>
    <path d="M289,155.08a175.72,175.72,0,0,0,15.53,39.45c.93,1.73,5.67.47,5.59-1.5-.57-14.54-12-25.11-14.49-39.13l-5.8,1.55q5.51,15.2,10,30.73c.72,2.49,6.51.93,5.8-1.55q-4.47-15.53-10-30.73c-.89-2.44-6.25-1-5.8,1.55,2.39,13.58,13.89,24.09,14.43,38.09l5.59-1.5a171.58,171.58,0,0,1-15.06-38.52c-.65-2.5-6.45-1-5.8,1.55Z" transform="translate(-1.47)"/>
    <path d="M9.4,393.78l-.05,12.28c0,2.74,5.75,1.71,5.84-.57l.43-11.95L9.8,394.61a38.64,38.64,0,0,1,1.33,12.29l5.82-1.06L14.78,388.6c-.28-2.22-5.85-1-5.82,1.06l.1,6.8,5.59-1.5A29.93,29.93,0,0,1,11,387.09c-.71-2.39-6.11-.87-5.8,1.55A32,32,0,0,0,9,400c1.06,2,5.79.13,5.57-2a41.43,41.43,0,0,0-3.14-12.21c-1-2.26-6.22-.92-5.8,1.55a73.07,73.07,0,0,0,7.82,22.54c.89,1.65,4.82.41,5.41-1l4.94-11.81-5.65.08a8.52,8.52,0,0,1-2.58,7l5.28-.1a22.93,22.93,0,0,1,1.62-9.72c1.22-3.11-4.35-2-5.47-.41A54,54,0,0,0,9.5,409.21c-.86,2.76,4.84,1,5.65-.08a66.55,66.55,0,0,0,8-14.4l-5.65.08a17.1,17.1,0,0,1-3.94,9.3l5.11.88,9.38-16.46-5.65.08a51.35,51.35,0,0,1-6.78,12.9c-1.67,2.34,4,2.31,5.11.88A86.52,86.52,0,0,0,31.88,385l-5.47-.41a66.21,66.21,0,0,1-12.56,18.64l4.76,1.36a58,58,0,0,0,11.2-17.78c1.18-3-4.46-2.31-5.47-.41a86.29,86.29,0,0,1-12.81,18l5.11.88a15.39,15.39,0,0,0,1.05-15l-5.17,2.32c4.51,3,5.62,11.77.25,14.67l4,1.67a18.22,18.22,0,0,0-2.08-21.54l-2.21,2.95c3.19-.75,6.44,2.2,9.43,3a12.34,12.34,0,0,0,6.08,0c3.56-.84,7-3.15,6.35-7.15-.37-2.42-5.44-.75-5.82,1.06a41.89,41.89,0,0,1-6.09,14.77l5.47.41,3.86-10.09c1.13-3-4.5-2.36-5.47-.41a49,49,0,0,1-8.5,12.08l5.11.88L32.95,384.8c1.17-2.34-2.76-2.23-4-1.67l-.51.24c-.62.29-1.68.94-1.7,1.75,0,1,0,1.38.74,2.11a3.27,3.27,0,0,0,3.14.53c5.36-1.62,7.87-8.48,9.94-13.2l-5.65.08a23.24,23.24,0,0,1-5,12.23l5.11.88a44.56,44.56,0,0,1,5.55-10.15l-5.65.08c0,3.56-1.14,6.6-4.08,8.77l4.76.33-1.81-12.18c-.35-2.33-5-.76-5.63.57l-2.57,5.06,5.63-.57-1.11-7.41c-.34-2.23-5.83-1-5.82,1.06l0,6.33c0,2.75,5.84,1.7,5.84-.57l0-7.66c0-2.74-5.62-1.71-5.84.57a8.55,8.55,0,0,0,1.46,5.92c1.06,1.66,5.42.39,5.59-1.5L32,369.8,28,372a5.31,5.31,0,0,1,4.42,1.56c1.24,1,6-.23,5.17-2.32A10.76,10.76,0,0,0,35,367.15c-1.53-1.5-7,.16-5.34,2.42l4,5.26c1.18,1.57,6.55.08,5.57-2a15.84,15.84,0,0,0-6.62-7.29c-1.33-.78-4.4-.28-5,1.34-2.2,5.86,2.64,10.57,8.5,10l-2.42-2.09L29.15,385.3c-1.21,2.86,4.56,2.45,5.47.41A49.91,49.91,0,0,1,42,373.87l-5.3-.39-4.32,12.45c-.82,2.37,4.86,1.56,5.65-.08l9.87-20.31-5.65.08a17.33,17.33,0,0,1-4,10l5.3.39a58.48,58.48,0,0,1,6.93-14.41l-5.65.08-1.58,6c-.68,2.61,5.1,1.44,5.84-.57l4-11.05-5.84.57a116.69,116.69,0,0,1-7.46,19.83l5.65-.08a22.17,22.17,0,0,1,2.17-6.73c1.48-2.91-4.33-2-5.47-.41L25.78,392l5.47.41,25.19-42.9-5.63.57a18.43,18.43,0,0,1-2.09,11.49l5.65-.08.32-5.89c.14-2.53-4.31-1.63-5.3-.39A138,138,0,0,0,28.72,391c-1.1,2.83,4,2.33,5.11.88A74.67,74.67,0,0,0,49.64,344c-.08-2.74-5.79-1.71-5.84.57l-.15,8.18,5.84-.57-.88-22.75-5.82,1.06a89.11,89.11,0,0,0,8.7,15.45c1.31,1.86,6.81-.1,5.34-2.42l-2.6-4.13c-1.12-1.77-5.24-.29-5.59,1.5a13.74,13.74,0,0,0,.8,8.38c.82,2,4.13,1,5.28-.1l.37-.37c.31-.31.71-1,.52-1.45-.94-2.31-3.78-2.6-5.83-1.54a3.36,3.36,0,0,0-2,2.49c-.26,1.24,1.77,4.8,1.16,5.38-2.54,2.4,3.11,2.91,4.76,1.36A3.38,3.38,0,0,0,55,352.33c0-.44-1.22-4.53-1.81-4.16l-3.58.67.37-1.06,5.28-.1a12.1,12.1,0,0,1-.76-7.4l-5.59,1.5,2.6,4.13,5.34-2.42a84.23,84.23,0,0,1-8.25-14.58c-.86-1.95-5.9-1.16-5.82,1.06l.88,22.75c.11,2.74,5.79,1.71,5.84-.57l.15-8.18-5.84.57a71.76,71.76,0,0,1-14.73,46l5.11.88a134.31,134.31,0,0,1,20-34.89l-5.3-.39L48.54,362c-.15,2.76,4.83,1.48,5.65-.08a21.83,21.83,0,0,0,2.41-13.45c-.31-2.4-4.92-.64-5.63.57L25.78,392c-1.6,2.72,4.29,2.05,5.47.41l16.38-22.74-5.47-.41A25.44,25.44,0,0,0,39.62,377c-.43,2.69,4.9,1.48,5.65-.08a122.56,122.56,0,0,0,7.82-20.82c.71-2.57-5.09-1.46-5.84.57l-4,11.05,5.84-.57,1.58-6c.72-2.76-4.84-1.16-5.65.08a62.23,62.23,0,0,0-7.29,15.4c-.79,2.47,4.48,1.37,5.3.39A20.86,20.86,0,0,0,48.05,365c.24-2.73-4.88-1.51-5.65.08l-9.87,20.31,5.65-.08,4.32-12.45c.84-2.43-4.48-1.36-5.3-.39a54.22,54.22,0,0,0-8.06,12.8l5.47.41,4.45-10.51c.69-1.63-1.09-2.22-2.42-2.09-2.92.29-4.56-3.42-3.67-5.81l-5,1.34a12.54,12.54,0,0,1,5.36,5.75l5.57-2-4-5.26-5.34,2.42a6.43,6.43,0,0,1,2.2,3.2L37,370.44a10.37,10.37,0,0,0-6.83-2.25c-1.22,0-3.83.51-4,2.18L25.59,377l5.59-1.5a5,5,0,0,1-1-4.08l-5.84.57,0,7.66,5.84-.57,0-6.33-5.82,1.06,1.11,7.41c.35,2.33,5,.76,5.63-.57l2.57-5.06-5.63.57,1.81,12.18c.28,1.91,3.86,1,4.76.33,3.89-2.89,6.18-6.63,6.19-11.56,0-2.93-4.67-1.27-5.65.08a44.56,44.56,0,0,0-5.55,10.15c-1.11,2.85,4,2.29,5.11.88a27,27,0,0,0,6-14.16c.31-2.67-4.93-1.56-5.65.08s-3.71,9.62-5.4,10.14l3.14.53-.24-.27-1.7,1.75.51-.24-4-1.67L17.39,404.63c-1.42,2.85,4,2,5.11.88a53,53,0,0,0,9.22-13l-5.47-.41-3.86,10.09c-1.18,3.08,4.37,2.1,5.47.41a44.71,44.71,0,0,0,6.46-15.75l-5.82,1.06c.72,4.72-8.68-.45-10-.83a12.69,12.69,0,0,0-7-.13c-.94.22-3.38,1.63-2.21,2.95a15.73,15.73,0,0,1,1.95,18.7c-1.31,2.25,2.84,2.28,4,1.67,7.79-4.2,9.81-15.42,1.85-20.7-1.22-.81-6.14.2-5.17,2.32a13.08,13.08,0,0,1-.73,13c-1.63,2.62,4,2.08,5.11.88a91,91,0,0,0,13.53-19l-5.47-.41a54.53,54.53,0,0,1-10.48,16.84c-2.41,2.64,3.2,3,4.76,1.36A69.81,69.81,0,0,0,31.88,385c1.28-2.82-4.51-2.42-5.47-.41A81.54,81.54,0,0,1,16,401l5.11.88A54.87,54.87,0,0,0,28.26,388c.87-2.47-4.82-1.38-5.65.08l-9.38,16.46c-1.51,2.65,4,2.19,5.11.88a20.9,20.9,0,0,0,5-11.23c.33-2.64-5-1.61-5.65.08a66.55,66.55,0,0,1-8,14.4l5.65-.08a50.78,50.78,0,0,1,7.11-14.31L17,393.92A27.6,27.6,0,0,0,15,405.61c.1,2.23,4.49.7,5.28-.1A11.38,11.38,0,0,0,24,396.59c-.09-2.61-4.9-1.73-5.65.08l-4.94,11.81,5.41-1a70.42,70.42,0,0,1-7.37-21.67l-5.8,1.55a41.43,41.43,0,0,1,3.14,12.21l5.57-2A29.5,29.5,0,0,1,11,387.09l-5.8,1.55a33.38,33.38,0,0,0,4.06,8.74c1,1.56,5.62.44,5.59-1.5l-.1-6.8L9,390.15l2.16,17.24c.28,2.26,5.71.94,5.82-1.06a42,42,0,0,0-1.37-13.27c-.59-2.21-5.74-1-5.82,1.06l-.43,11.95,5.84-.57.05-12.28c0-2.75-5.83-1.7-5.84.57Z" transform="translate(-1.47)"/>
    <path d="M47.55,355.73c-3.9,3-4.9,9.18-6.29,13.56-2.1,6.6-4.51,15.3-10.94,19l4.63-.17c0-2.49-.43-4.94-.49-7.43,0-1.74-5.3.15-5.77,1.22-1.6,3.56-3.95,6.67-5.81,10.09l5.77-1.22c0-4.37-.23-8.74.05-13.1l-5.77,1.22q0,2.08,0,4.15l5.8-1.55c-.22-5.72-1.59-12.31,2.81-16.81l-5.37,1.14c12.48,14.73-1.35,37.57-15.08,46.12l4.39.53c7.63-11.88,17.32-22.33,25.8-33.59C48.93,368.72,57.33,357,58.69,344l-5.77,1.22c.39,7.24-2.45,13.72-4.51,20.5l5.77-1.22c-.69-7.95,2.06-15.68,4.25-23.2.49-1.68-5.15-.67-5.75.88-3.23,8.34-6,16.82-10.24,24.75-.64,1.21,4.89.75,5.75-.88,4.19-7.92,7-16.41,10.24-24.75l-5.75.88c-2.25,7.76-5,15.68-4.29,23.87.14,1.66,5.4,0,5.77-1.22,2.14-7,5-13.68,4.56-21.17-.08-1.48-5.62-.24-5.77,1.22-1.39,13.3-10,25-17.89,35.34-8.24,10.82-17.54,20.93-24.9,32.4-1.32,2.06,3.69,1,4.39.53,14.89-9.29,30.87-33.14,17-49.46-1.08-1.27-4.48.23-5.37,1.14-4.83,5-3.53,11.89-3.29,18.19.06,1.43,5.79.34,5.8-1.55q0-2.08,0-4.15c0-1.38-5.68-.31-5.77,1.22-.29,4.59-.1,9.18-.09,13.78,0,1.81,5.27-.28,5.77-1.22,1.87-3.43,4.2-6.52,5.81-10.09l-5.77,1.22c.06,2.49.45,4.94.49,7.43,0,1.46,4.13.12,4.63-.17,6-3.46,9.14-9.49,11.46-15.82,1.23-3.35,2.2-6.79,3.33-10.18.75-2.26,1.51-5.69,3.52-7.22,2.46-1.87-3.3-1.48-4.54-.54Z" transform="translate(-1.47)"/>
    <path d="M414.48,413.84c2.09,0,6.18-3.15,2.29-3.15-2.09,0-6.18,3.15-2.29,3.15Z" transform="translate(-1.47)"/>
    <path d="M33.23,382.43l-3-4c-.86-1.15-5.12.39-5.59,1.5a47.57,47.57,0,0,0-3.35,11.89c-.23,1.55,5.41.49,5.73-1l1.86-8.38-5.73,1a47.71,47.71,0,0,1-1.49,6.7l5.76-1.26a10.05,10.05,0,0,1,.78-4.48l-5.73,1a17.28,17.28,0,0,0-.45,6.89c.2,1.62,5.27-.4,5.76-1.26l3.68-6.48-5.76,1.26a15.34,15.34,0,0,1,.35,7.31c-.31,1.68,5.13.19,5.73-1l2.9-5.57-5.76,1.26-.51,5.6c-.12,1.28,5.27-.23,5.76-1.26l2.21-4.67-5.76,1.26-.82,2.21c-.66,1,4.69.23,5.5-.65,5.14-5.61,6-11.5,6.63-18.8.11-1.23-4.22.12-4.59.31a7.37,7.37,0,0,0-4.15,4.37l5.76-1.26a9.17,9.17,0,0,1,1.22-5.65l-5.73,1a13.49,13.49,0,0,0-.08,4.69c.25,1.67,5.25-.44,5.76-1.26L45,365.93l-5.76,1.26a14.2,14.2,0,0,1,1.21,7.48c-.11,1.19,5.31-.1,5.76-1.26l2.42-6.21-5.76,1.26-.56,5.45c-.11,1,5.43.12,5.76-1.26a34.49,34.49,0,0,1,3.78-9.45l-5.73,1q-2.25,7.26-5.09,14.29c-.47,1.15,5.09.57,5.73-1l13.89-33.25-5.76,1.26-.43,9.6c-.05,1.22,5.37-.07,5.76-1.26L62,348.45c.45-1.37-5.09-.39-5.73,1l-6.5,13.83c-.49,1,5,.58,5.73-1L62,348.45l-5.73,1-1.77,5.38,5.76-1.26.43-9.6c.06-1.31-5.31.19-5.76,1.26L41,378.45l5.73-1q2.85-7,5.09-14.29c.47-1.51-5.06-.19-5.73,1a34.49,34.49,0,0,0-3.78,9.45l5.76-1.26.56-5.45c.12-1.17-5.31.09-5.76,1.26l-2.42,6.21,5.76-1.26A14.2,14.2,0,0,0,45,365.64c-.71-1.62-5.13.26-5.76,1.26l-4.86,7.71,5.76-1.26a8.66,8.66,0,0,1,0-4.11c.29-1.7-5.13-.19-5.73,1a11.18,11.18,0,0,0-1.29,6.23c.08,1.4,5.37-.17,5.76-1.26a3.42,3.42,0,0,1,1.81-2.47l-4.59.31c-.61,6.76-1.34,12.39-6.1,17.59l5.5-.65c1-1.47.77-1,.88-2.79.08-1.33-5.28.25-5.76,1.26l-2.21,4.67,5.76-1.26.51-5.6c.12-1.33-5.26.3-5.76,1.26L26,393.07l5.73-1a16.92,16.92,0,0,0-.28-7.9c-.44-1.64-5.23.33-5.76,1.26L22,391.95l5.76-1.26a16.32,16.32,0,0,1,.38-6.3c.36-1.42-5.24-.5-5.73,1a15.91,15.91,0,0,0-.85,5.06c0,1.24,5.4-.05,5.76-1.26a47.71,47.71,0,0,0,1.49-6.7c.23-1.55-5.41-.49-5.73,1l-1.86,8.38,5.73-1a47.57,47.57,0,0,1,3.35-11.89l-5.59,1.5,3,4c.87,1.16,6.42-.73,5.45-2Z" transform="translate(-1.47)"/>
    <path d="M14.92,386.93l-4.18-6.69c-1.09-1.75-4.86-1-5.43.91a3.47,3.47,0,0,0,1.07,3.95c2.05,1.88,7-1.16,4.42-3.5a.25.25,0,0,1,.09.38l-5.43.91,4.18,6.69c1.49,2.39,7,.07,5.28-2.64Z" transform="translate(-1.47)"/>
    <path d="M345.88,331.82,347,333a2.36,2.36,0,0,0,1.53.39,6.17,6.17,0,0,0,2.27-.47c.59-.25,2.49-1.21,1.61-2.09l-1.14-1.14a2.36,2.36,0,0,0-1.53-.39,6.17,6.17,0,0,0-2.27.47c-.59.25-2.49,1.21-1.61,2.09Z" transform="translate(-1.47)"/>
    <path d="M353,335.06l5.63-21.47-5.81,1.09q6.58,18.85,11.73,38.15c.6,2.24,5.48.75,5.81-1.09a34.32,34.32,0,0,1,8.44-17.34l-5.26.16,10.59,28.26c.76,2,4.89.93,5.62-.62l5.25-11-5.62.62a180.13,180.13,0,0,0,17,31.06c1.23,1.8,6.83-.21,5.35-2.37a175.3,175.3,0,0,1-16.56-30.24c-.84-2-4.86-1-5.62.62l-5.25,11,5.62-.62L379.33,333c-.71-1.91-4.24-1-5.26.16a38.1,38.1,0,0,0-9.55,19.19l5.81-1.09q-5.15-19.29-11.73-38.15c-.79-2.26-5.33-.73-5.81,1.09l-5.63,21.47c-.62,2.36,5.25,1.56,5.82-.62Z" transform="translate(-1.47)"/>
    <path d="M379.82,378.09a32.74,32.74,0,0,0,6.79,11.74c1.18,1.32,5.47.52,5.59-1.5A35.61,35.61,0,0,0,390,373.5c-.84-2.24-6.1-.8-5.8,1.55a36,36,0,0,0,5.91,15.6c1.18,1.78,5.79.15,5.57-2a33,33,0,0,0-2.5-9.79l-5.8,1.55,6.06,13.22c.86,1.87,5.84,1.06,5.81-1.08l-.12-9.56-5.81,1.08a48,48,0,0,0,5.91,14.52c.94,1.55,5.58.33,5.59-1.5l0-9.56L399,388.66a53.61,53.61,0,0,0,3.36,10.48c.88,2,5.53,1,5.81-1.08a18.64,18.64,0,0,0-1.13-9.73c-.86-2.2-6.25-.8-5.8,1.55l2.47,12.69c.46,2.36,5.9.74,5.8-1.55l-.49-11c-.1-2.28-5.43-.65-5.81,1.08a23,23,0,0,0,.65,12.72c.78,2.33,5.95.75,5.8-1.55L409,392.2l-5.8,1.55a90.41,90.41,0,0,0,2.6,12.3c.61,2.15,5.63.86,5.81-1.08a26,26,0,0,0-1.24-11l-5.8,1.55a24.9,24.9,0,0,1,2.52,8.22c.3,2.31,5.87.77,5.8-1.55a76,76,0,0,0-1.29-11.65l-5.8,1.55,3.47,16.36c.47,2.2,5.63.82,5.81-1.08a21.53,21.53,0,0,0-1-9.05c-.67-2.07-5.76-.93-5.81,1.08l-.21,8.59,5.81-1.08a22.89,22.89,0,0,0-13.45-19.52c-1.65-.76-5.3,0-5.18,2.28l.41,7.42,5.8-1.55a13.08,13.08,0,0,0-7.7-9.52c-1.12-.51-6.21.09-5.18,2.28a93,93,0,0,0,7.18,12.59c1.09,1.61,6.49,0,5.57-2a25.39,25.39,0,0,0-6.63-8.78c-1.61-1.37-7.18.62-5.35,2.38l6.16,5.93c1.21,1.16,6.6.21,5.57-2A51,51,0,0,0,393.86,385c-1.4-1.64-6.88.2-5.35,2.38l10.3,14.69,5.35-2.38-3.28-4.16c-1.34-1.7-6.73.08-5.35,2.38l3.79,6.34c1,1.68,6.42,0,5.57-2L401.3,394l-5.18,2.28,4,2.34c1.47.86,6.37-.41,5-2.7a148.3,148.3,0,0,0-19.39-25c-1.2-1.25-6.53-.2-5.57,2l6.7,15.11c1,2.16,6.15.84,5.8-1.55A29.19,29.19,0,0,0,383,368.66c-1.19-1.06-5.65-.68-5.59,1.5a36.51,36.51,0,0,0,2.42,12.38c.85,2.21,6.5.69,5.8-1.55a35.91,35.91,0,0,0-9.06-15c-1.35-1.34-6-.4-5.57,2a39.49,39.49,0,0,0,7.47,17c1.15,1.53,6.21.21,5.57-2a24.52,24.52,0,0,0-6.43-10.87c-1.47-1.45-6.81,0-5.35,2.38l7.23,11.7c1,1.7,6.08.16,5.57-2a25,25,0,0,0-4.25-9.19c-1.17-1.62-6-.22-5.57,2a23,23,0,0,0,5.83,11.34c1.36,1.47,5.88.34,5.57-2a19.4,19.4,0,0,0-3.18-8.38c-1.2-1.83-6.8.16-5.35,2.38a98.7,98.7,0,0,0,13.94,17.11c4.48,4.34,12.4,8.39,14.42,14.5.68,2.07,5.74.93,5.81-1.08a49.15,49.15,0,0,0-4.82-23.5c-1-2.18-6.73-.48-5.8,1.55l2.2,4.8c.9,2,4.8,1,5.62-.61a9.21,9.21,0,0,0,1-6.14c-.38-2.35-5.87-.74-5.8,1.55a8.89,8.89,0,0,0,1,4.12c1,2.13,6.08.87,5.8-1.55a17.49,17.49,0,0,0-1.86-6.17c-1-2-5.38-1-5.81,1.08a7.62,7.62,0,0,0,1.62,6.84c1.15,1.48,6.46.09,5.57-2a90.71,90.71,0,0,0-9.32-16.57c-1.28-1.8-5-.12-5.59,1.5a14.62,14.62,0,0,0-.6,8.57l5.8-1.55-3.67-9.92c-.8-2.15-5.46-.87-5.81,1.08a19.71,19.71,0,0,0,.62,9.93c.71,2.25,6.35.75,5.8-1.55l-2.13-8.84c-.57-2.36-5.93-.74-5.8,1.55l.18,3c.13,2.13,5.69.86,5.81-1.08.33-5.28.28-10.51.79-15.79l-5.82.62a42.05,42.05,0,0,0,1.91,17.28c.67,2,5.87.93,5.81-1.08a31.12,31.12,0,0,0-3-12.82c-1-2.19-6-.84-5.8,1.55a64,64,0,0,0,3.27,16.47c.76,2.25,6.19.78,5.8-1.55a59.18,59.18,0,0,0-3.78-13.09c-.92-2.19-6.14-.82-5.8,1.55l2.16,15.08,5.57-2a67,67,0,0,1-9.35-14.82c-1-2.22-5.92-.82-5.8,1.55l.23,4.3,5.8-1.55q-6.28-14-13.27-27.65c-.92-1.79-5.84-1.13-5.81,1.08l.27,18.19c0,2.66,5.82,1.56,5.82-.62v-9.2l-5.81,1.08.27,6c.1,2.25,5,.59,5.62-.61a19.24,19.24,0,0,0,2.11-10.65l-5.8,1.55a46.74,46.74,0,0,1,1.45,9.24c.13,2.25,5.48.7,5.81-1.08l1.79-9.57L375,351.65a80.64,80.64,0,0,1,0,12.93l5.81-1.08-1.25-9.24c-.3-2.2-5-.72-5.62.61a10.39,10.39,0,0,0-.95,6c.28,2.29,5.89.79,5.8-1.55a123.81,123.81,0,0,1,1-21.82L374,338.58c1.56,10.72.3,26.91,14.76,28.44l-1.65-2a9.7,9.7,0,0,0-1,8,1.55,1.55,0,0,0,1.16.95,21.18,21.18,0,0,1,16.36,16.14c.59,2.58.7,5.21,3.92,5.53a5.43,5.43,0,0,0,5.2-2.58l-5.62.61.62,5.34,5.8-1.55-2.25-18.24-5.8,1.55a74.6,74.6,0,0,1,3.37,29.37l5.81-1.08L400.6,363c-.72-2.35-5.93-.73-5.8,1.55a39,39,0,0,0,2.14,10.8c.73,2.09,5.62.92,5.81-1.08a10.54,10.54,0,0,0-.66-5.28c-.83-2.21-6.23-.79-5.8,1.55l2.2,12,5.57-2-14-15.89c-1.23-1.4-4.59-.5-5.4,1l-3.22,6,5.4-1-7.45-7.24c-1.51-1.47-4.94-.4-5.59,1.5a20.23,20.23,0,0,0-1,8.14l5.57-2-5.44-8c-1.09-1.6-5.35-.32-5.59,1.5a13.94,13.94,0,0,0,.63,6.76l5.8-1.55a61.5,61.5,0,0,0-11.27-19.74c-1.18-1.4-6.38-.21-5.57,2l4,10.84c.75,2,5.71,1,5.81-1.08a29.34,29.34,0,0,0-2.57-14c-1-2.16-6.1-.84-5.8,1.55a17.69,17.69,0,0,0,4.26,9.62c1.18,1.39,5.43.47,5.59-1.5a10.67,10.67,0,0,0-.69-5.26c-.84-2.21-6.26-.79-5.8,1.55a19.16,19.16,0,0,0,1.92,5.43c1,1.91,5.49,1.08,5.81-1.08a12.13,12.13,0,0,0-.58-6.33l-5.57,2,3.08,3.21c1.2,1.25,6.53.2,5.57-2a229.74,229.74,0,0,1-10.58-28.93c-.68-2.32-6-.76-5.8,1.55a95.75,95.75,0,0,0,3.09,17c.64,2.33,6,.76,5.8-1.55a47.77,47.77,0,0,0-2.56-11.92c-.73-2.08-5.65-.93-5.81,1.08a43.47,43.47,0,0,0,1,13.64c.55,2.38,5.89.72,5.8-1.55A45.3,45.3,0,0,0,361,333c-.69-2.29-6.09-.78-5.8,1.55l1.25,9.9c.28,2.23,6,.85,5.8-1.55l-1-9.38c-.24-2.24-6-.84-5.8,1.55l.49,7.37,5.57-2a21,21,0,0,1-1.59-18.21l-5.82.62a111.6,111.6,0,0,0,2.3,26.15c.47,2.27,6.23.8,5.8-1.55l-1-5.18c-.4-2.2-5.66-.82-5.81,1.08-.41,5.18-.36,9.5,1.78,14.36.64,1.46,2.95,1.19,4.1.62a13.77,13.77,0,0,0,4.36-3.18c2.36-2.59-3.24-2.88-4.73-1.25l-2,1.64,4.1.62c-2-4.52-2.13-8.54-1.75-13.42l-5.81,1.08,1,5.18,5.8-1.55a107.62,107.62,0,0,1-2.27-25.21c.08-2.86-5.16-1.24-5.82.62a22.93,22.93,0,0,0,2.06,20c1.11,1.89,5.71.08,5.57-2l-.49-7.37-5.8,1.55,1,9.38,5.8-1.55L361,333l-5.8,1.55a45.3,45.3,0,0,1,1.9,11.31l5.8-1.55a40.57,40.57,0,0,1-1-12.7l-5.81,1.08a47.77,47.77,0,0,1,2.56,11.92l5.8-1.55a95.75,95.75,0,0,1-3.09-17l-5.8,1.55a229.74,229.74,0,0,0,10.58,28.93l5.57-2-3.08-3.21c-1.22-1.27-6.38-.3-5.57,2a10.52,10.52,0,0,1,.55,5.4l5.81-1.08a19.16,19.16,0,0,1-1.92-5.43l-5.8,1.55a6.65,6.65,0,0,1,.66,4.32l5.59-1.5a16.06,16.06,0,0,1-3.81-8.79l-5.8,1.55a27.11,27.11,0,0,1,2.54,13.07l5.81-1.08-4-10.84-5.57,2A58.9,58.9,0,0,1,368,371.43c.79,2.26,6.54.65,5.8-1.55a12.25,12.25,0,0,1-.6-5.82l-5.59,1.5,5.44,8c1.23,1.8,5.71.13,5.57-2a17.69,17.69,0,0,1,1-7.2l-5.59,1.5,7.45,7.24c1.33,1.29,4.55.58,5.4-1l3.22-6-5.4,1,14,15.89c1.29,1.47,6,.32,5.57-2l-2.2-12-5.8,1.55a6.56,6.56,0,0,1,.63,4.34l5.81-1.08A39,39,0,0,1,400.6,363l-5.8,1.55,14.06,46c.65,2.13,5.64.88,5.81-1.08a77.13,77.13,0,0,0-3.4-30.31c-.73-2.29-6.08-.78-5.8,1.55L407.74,399c.27,2.22,6.08.86,5.8-1.55l-.62-5.34c-.27-2.35-4.93-.5-5.62.61l-.46.73,2.28-1.49-.94.19,2.72.15c-1.37-.58-2.57-7.47-3.39-9.09a23.68,23.68,0,0,0-5-6.71,24.07,24.07,0,0,0-6-4.13c-3.61-1.71-6.78-1.78-3.88-7,.69-1.23-.6-1.88-1.65-2-11.59-1.22-9.95-18.31-11.12-26.34-.33-2.25-5.56-.76-5.81,1.08a129,129,0,0,0-1,22.76l5.8-1.55a6,6,0,0,1,.6-4.12l-5.62.61,1.25,9.24c.3,2.19,5.66.82,5.81-1.08a86.6,86.6,0,0,0,0-13.87c-.18-2.27-5.48-.69-5.81,1.08l-1.79,9.57,5.81-1.08a46.74,46.74,0,0,0-1.45-9.24c-.61-2.34-6-.75-5.8,1.55a15.47,15.47,0,0,1-1.77,8.76l5.62-.61-.27-6c-.09-2.08-5.81-.92-5.81,1.08v9.2l5.82-.62-.27-18.19-5.81,1.08q7,13.66,13.27,27.65c1,2.23,5.92.81,5.8-1.55l-.23-4.3-5.8,1.55a70.65,70.65,0,0,0,9.8,15.64c1.29,1.56,5.9.28,5.57-2l-2.16-15.08-5.8,1.55a59.18,59.18,0,0,1,3.78,13.09l5.8-1.55A64,64,0,0,1,396,365.25l-5.8,1.55a29,29,0,0,1,2.94,11.88L399,377.6a39.72,39.72,0,0,1-1.88-16.35c.24-2.6-5.61-1.6-5.82.62-.51,5.3-.47,10.5-.79,15.79l5.81-1.08-.18-3-5.8,1.55,2.13,8.84,5.8-1.55a18,18,0,0,1-.59-9l-5.81,1.08,3.67,9.92c.82,2.21,6.27.78,5.8-1.55a13.07,13.07,0,0,1,.63-7.63l-5.59,1.5a86.2,86.2,0,0,1,8.88,15.74l5.57-2a5.54,5.54,0,0,1-1.15-5.07l-5.81,1.08a17.49,17.49,0,0,1,1.86,6.17l5.8-1.55a8.89,8.89,0,0,1-1-4.12l-5.8,1.55a5.28,5.28,0,0,1-.63,4.25l5.62-.61-2.2-4.8L401.7,389a47.4,47.4,0,0,1,4.79,22.57l5.81-1.08c-2.09-6.32-9-9.83-13.63-14.16A98.77,98.77,0,0,1,383.49,378l-5.35,2.38a16.87,16.87,0,0,1,2.74,7.56l5.57-2a21,21,0,0,1-5.39-10.52l-5.57,2a22.59,22.59,0,0,1,3.8,8.36l5.57-2-7.23-11.7-5.35,2.38a22.27,22.27,0,0,1,6,10l5.57-2a37.39,37.39,0,0,1-7-16.16l-5.57,2a33.78,33.78,0,0,1,8.61,14.17l5.8-1.55a33.91,33.91,0,0,1-2.39-11.45l-5.59,1.5a27.64,27.64,0,0,1,9.13,17l5.8-1.55-6.7-15.11-5.57,2a148.3,148.3,0,0,1,19.39,25l5-2.7-4-2.34c-1.18-.69-6.09.17-5.18,2.28l3.59,8.34,5.57-2-3.79-6.34-5.35,2.38,3.28,4.16c1.35,1.71,6.87-.22,5.35-2.38L393.86,385l-5.35,2.38A47.15,47.15,0,0,1,395.37,398l5.57-2-6.16-5.93-5.35,2.38a23.18,23.18,0,0,1,6.19,8l5.57-2a86.78,86.78,0,0,1-6.74-11.77L389.28,389a10.71,10.71,0,0,1,6.46,8.06c.5,2.35,5.92.74,5.8-1.55l-.41-7.42L396,390.38a20.73,20.73,0,0,1,12.21,18.05c.13,2.1,5.76.89,5.81-1.08l.21-8.59-5.81,1.08a19.48,19.48,0,0,1,.94,8.11l5.81-1.08-3.47-16.36c-.48-2.27-6.24-.8-5.8,1.55a76,76,0,0,1,1.29,11.65l5.8-1.55a24.9,24.9,0,0,0-2.52-8.22c-1-2.05-6.56-.73-5.8,1.55a23.85,23.85,0,0,1,1.21,10.09l5.81-1.08a90.41,90.41,0,0,1-2.6-12.3c-.32-2.28-6-.8-5.8,1.55l.67,10.1,5.8-1.55a21.26,21.26,0,0,1-.62-11.78l-5.81,1.08.49,11,5.8-1.55-2.47-12.69-5.8,1.55a16.81,16.81,0,0,1,1.1,8.79l5.81-1.08a53.61,53.61,0,0,1-3.36-10.48c-.45-2.14-5.81-.87-5.81,1.08l0,9.56,5.59-1.5a45,45,0,0,1-5.47-13.69c-.48-2.13-5.84-.87-5.81,1.08l.12,9.56,5.81-1.08-6.06-13.22c-1-2.18-6.68-.54-5.8,1.55a33,33,0,0,1,2.5,9.79l5.57-2A34,34,0,0,1,390,373.5l-5.8,1.55a33,33,0,0,1,2.16,13.89l5.59-1.5a30.06,30.06,0,0,1-6.34-10.91c-.75-2.27-6.53-.65-5.8,1.55Z" transform="translate(-1.47)"/>
    <path d="M391.11,363l2.55-3.94-5.65.52.72,4.47c.38,2.35,5.81,1.1,5.82-1q-4.18,2.14-2,5.2l.76,1.83,2.66,6.4L401,388.29l5.56-2-2.66-5.08c-1.12-2.13-5.06-.11-5.59,1.5a10.93,10.93,0,0,0-.6,4.41l5.59-1.5a8.47,8.47,0,0,0-5.41-3.76c-4-1.17-7.15-1.48-10.52-4.28-5.15-4.3-9.3-8.26-16.44-6.68l3.42,1.58c-.1-10.57,6-21.38.39-31.38-1.12-2-5.93-.25-5.56,2,.59,3.59-2.78,5.36-5.64,3.71a10.59,10.59,0,0,1-3.41-3.45c-1.85-2.86-2.51-6.4-3.2-9.68l-5.56,2c8.07,14.57,19.31,25.74,31.53,36.82a205.69,205.69,0,0,1,16.09,15.72c1.41,1.59,14.75,19.59,12.75,20.46l2.95-.28-.9-.27c-1.32-.4-5.38.49-4.6,2.63a15.57,15.57,0,0,0,5.45,7.36c1.36,1,5,.09,5.18-1.86a9,9,0,0,0-1.88-6.6c-1.44-2-7,.2-5.33,2.48a5.25,5.25,0,0,1,1.36,4.65l5.18-1.86a11.94,11.94,0,0,1-4.16-5.72l-4.6,2.63c2.37.71,5.25.19,6.57-2.14,1.77-3.14-1.29-7.47-2.8-10.24-4.49-8.24-10.88-15.25-17.61-21.72-14.64-14.08-29.82-26.43-39.84-44.51-1.08-2-6-.27-5.56,2,1.47,6.92,4.13,15.08,12.19,16.35,6,1,12.72-3.47,11.64-10l-5.56,2c5,8.93-1,19.94-.91,29.42,0,1.79,2.09,1.87,3.42,1.58,5.57-1.23,10.06,6.39,14.52,8.73,3.54,1.86,9.34,1.08,11.53,4.79,1,1.67,5.68.51,5.59-1.5a10.93,10.93,0,0,1,.6-4.41l-5.59,1.5,2.66,5.08c1,1.92,6.46.15,5.56-2l-5.33-12.8c-1.54-3.69-2.69-8.64-5-11.89-1.77-2.46-7.68-2.53-7.7,1.44l5.82-1-.72-4.47c-.41-2.56-4.85-.72-5.65.52l-2.55,3.94c-1.66,2.57,4.22,2.49,5.5.52Z" transform="translate(-1.47)"/>
    <path d="M39.91,383.62l-1.16-1.3c-1.37-1.54-4.53-.8-5.42,1l-1.17,2.32,5.53.61,1-2.34L33,383.8c0,3,.06,6.73-2.53,8.75l4.67,1.58a123.45,123.45,0,0,1,8.74-17.36l-5.69-.07c.22,7-9.55,8.45-14.84,10.43l4.17.88-.4-2.35c0-2.54-3.46-1.89-4.84-1-8.8,5.4-3.09,20.25-10.58,27.34-2.6,2.46,3,3.35,4.83,1.63A18.74,18.74,0,0,0,21.73,404c1.07-4.43.1-14.25,4.35-16.87l-4.84-1a8.38,8.38,0,0,0,.47,3.43c.53,1.75,2.94,1.34,4.17.88,7-2.63,18.47-4.6,18.17-14.21-.1-3-4.65-1.8-5.69-.07a123.45,123.45,0,0,0-8.74,17.36c-1.13,2.77,3.31,2.65,4.67,1.58,3.82-3,4.52-7.11,4.57-11.77,0-2.86-4.86-2-5.69-.07l-1,2.34c-1.32,3,4.43,2.78,5.53.61l1.17-2.32-5.42,1,1.16,1.3c1.7,1.91,7.22-.39,5.31-2.52Z" transform="translate(-1.47)"/>
    <path d="M325.61,200.47l27-33.13c2.28-2.79-3.24-3.23-4.78-1.43q-14.32,16.79-30.05,32.27c-2.52,2.48,3.11,3.07,4.78,1.43q15.73-15.48,30.05-32.27l-4.78-1.43-27,33.13c-2.27,2.78,3.27,3.28,4.78,1.43Z" transform="translate(-1.47)"/>
    <path d="M186.09,356.49c5.88,6.15,12.63,10.72,21.24,7.23,8.25-3.35,14.39-11.47,17.65-19.47.61-1.49-5.06-.87-5.76.85-2.2,5.38-5.61,10.84-10.41,14.31-3.83,2.77-7.13,3.11-11.06.55a36.65,36.65,0,0,1-6.25-5.61c-1.22-1.28-6.69.81-5.42,2.14Z" transform="translate(-1.47)"/>
    <path d="M270.8,322c-.79-2.7-4.25-2.84-6.4-1.9a3.16,3.16,0,0,0-1.5,1.34A1.47,1.47,0,0,0,263,323c.95,1.11,2.73.9,3.92.38a3.16,3.16,0,0,1-1.08.28q.43,0-.38,0l-.43-.09.23.08q-.52-.27-.29-.12l.15.11q-.39-.37-.16-.12a1.48,1.48,0,0,1,.13.2l-.24-.48a2,2,0,0,1,.13.34c.39,1.34,2.3,1.47,3.41,1.13s2.79-1.3,2.39-2.69Z" transform="translate(-1.47)"/>
    <path d="M299.21,307.23V305c0-.41-.85-.59-1.08-.63a5.39,5.39,0,0,0-2.14.19c-.93.27-2.57.8-2.57,2v2.27c0,.41.85.59,1.08.63a5.39,5.39,0,0,0,2.14-.19c.93-.27,2.57-.8,2.57-2Z" transform="translate(-1.47)"/>
    <path d="M290.59,327.85h-1.14a5.61,5.61,0,0,0-2.28.44,3.36,3.36,0,0,0-1.54,1.19c-.62,1.17.53,1.87,1.62,1.87h1.14a5.61,5.61,0,0,0,2.28-.44,3.36,3.36,0,0,0,1.54-1.19c.62-1.17-.53-1.87-1.62-1.87Z" transform="translate(-1.47)"/>
    <path d="M111.51,325.34l-1.16,3.4c-.16.47.27,1,.63,1.18a3.33,3.33,0,0,0,1.93.29c1.3-.17,2.8-.76,3.26-2.1l1.16-3.4c.16-.47-.27-1-.63-1.18a3.33,3.33,0,0,0-1.93-.29c-1.3.17-2.8.76-3.26,2.1Z" transform="translate(-1.47)"/>
    <path d="M136.35,325.26h-1.14a4.16,4.16,0,0,0-2.18.79,2.4,2.4,0,0,0-1,1.51c-.08,1.51,1.49,1.83,2.66,1.83h1.14a4.16,4.16,0,0,0,2.18-.79,2.4,2.4,0,0,0,1-1.51c.08-1.51-1.49-1.83-2.66-1.83Z" transform="translate(-1.47)"/>
    <path d="M143.57,348.73v-3.41a2.28,2.28,0,0,0-2.72-2.05c-1.19.11-3.17.94-3.17,2.43v3.41a2.28,2.28,0,0,0,2.72,2.05c1.19-.11,3.17-.94,3.17-2.43Z" transform="translate(-1.47)"/>
  </symbol>

  <symbol id="boy" viewBox="0 0 385.26 420.43">
    <title>boy</title>
    <path d="M67,171.34c-.14,2.05-1.3,6.34-.44,8.34.71,1.66,5.1-.32,5.76-1.26.12-.17.06-.44.18-.61l-5.76,1.26c.43,1-.11,3.06-.17,4.11-.34,5.65-.75,11.29-1.12,16.94-.77,12.06-1.43,24.13-1.66,36.22-.42,22.37.64,44.9,5.24,66.84,8.24,39.25,28.33,75.54,62.94,97.19a132.89,132.89,0,0,0,106.18,15.12c37.06-10.36,67-35.45,84.91-69.36,23.42-44.34,25.45-95.6,25.55-144.68,0-1.08-5.79-.22-5.8,1.55-.09,42.45-1.5,86-17.22,126-14.25,36.25-40.36,66.94-77.38,81-36.11,13.68-76.61,9.17-109.46-10.85-33.16-20.2-53.37-53.79-62.44-90.95-5.55-22.72-7.05-46.2-6.8-69.52.14-12.74.79-25.47,1.59-38.18.37-5.9.79-11.79,1.16-17.69.08-1.3.8-4,.25-5.31-.71-1.66-5.1.32-5.76,1.26-.12.17-.06.44-.18.61l5.76-1.26c-.83-1.95.31-6.38.44-8.34.06-1-5.67-.27-5.8,1.55Z"/>
    <path d="M282.87,37.27q-4.74,29.21-8.08,58.62c-2,18.05-3.48,36.29,3,53.65,10.33,27.55,34.75,61.87,68.48,54.74,3.65-.77,2.52-4.85-1.1-4.09-17.09,3.61-32.7-7.09-42.93-19.83-9.45-11.77-17.68-26.11-21.3-40.83-4-16.35-1.57-33.46.37-49.93q3.11-26.45,7.4-52.74c.48-3-5.45-2.27-5.88.41Z"/>
    <path d="M288.72,39.17c7.88-13.55,25.53-19.36,39.76-12.33,14.93,7.37,18.83,25.39,22.85,40,8.58,31.2,9.56,65,3.84,96.84A142.4,142.4,0,0,1,349.45,186a78.48,78.48,0,0,1-4.06,9.63c-1.14,2.22-3.76,5.13-2.36,7.68a2.33,2.33,0,0,0,2.5.81l.24,0c.91-.16,4.29-1.18,3.09-2.72a4,4,0,0,0-1.32-1.3c-1.59-1.27-7,1-5.38,2.26a4,4,0,0,1,1.32,1.3l3.09-2.72-.24,0,2.5.81c-1.18-2.14,2.32-6.66,3.29-8.76a91.55,91.55,0,0,0,3.7-9.39,150.55,150.55,0,0,0,5.62-23.42A238.3,238.3,0,0,0,364,107.28a229.81,229.81,0,0,0-10-53.16c-4.56-15-12.48-29.56-29.17-32.85-15.62-3.08-33.38,3.84-41.49,17.79-1.35,2.33,4.44,1.75,5.39.11Z"/>
    <path d="M289.6,40.17c2.48-12.31-13.11-19.25-22-23.51A170.1,170.1,0,0,0,230.33,3.95a175.55,175.55,0,0,0-76.82.62C106.6,15.51,64.95,46.3,41.57,88.54,27,114.85,18.78,144.51,0,168.42c-.21.26,4.65.24,5.7-1.09,15.26-19.44,23.64-42.78,34-64.94,10-21.25,22.85-40.5,40.14-56.51A162.42,162.42,0,0,1,217.19,4.47a168.27,168.27,0,0,1,40.3,12c9.7,4.28,29.06,11.68,26.32,25.28-.07.35,5.46.13,5.8-1.55Z"/>
    <path d="M270.41,113.75c-14.2,29.06-46.41,41.47-75.58,50l2.47,1A105.92,105.92,0,0,0,230.17,125c.67-1.42-5,.27-5.49.71a210.31,210.31,0,0,1-93.38,43.65l2.09.89a126.67,126.67,0,0,0,28.29-33.88c.69-1.2-3.62-.25-3.87-.18-13.12,4.13-23.7,13-36,18.84-11.85,5.6-24.65,9-37.54,11.09-26,4.28-52.89,3.7-79,.29a6.36,6.36,0,0,0-4.05.73c-.31.22-2.12,1.35-.7,1.54,26.84,3.51,54.31,4.07,81.11-.13a166.51,166.51,0,0,0,37.84-10.23c14-5.79,25.86-16.22,40.33-20.78l-3.87-.18a124.39,124.39,0,0,1-27.83,33.28c-1.29,1.09,1.78.94,2.09.89a224,224,0,0,0,99.7-46.25l-5.49.71a102.58,102.58,0,0,1-31.6,38.59c-2,1.51,1.61,1.27,2.47,1,30.83-9.05,65.76-22.09,80.81-52.88.43-.88-5-.49-5.72,1Z"/>
    <path d="M124.54,211.45l.47-.65-3.85,1.48c3-.17,6.44,8.3,7.44,10.57a51.54,51.54,0,0,1,3.5,11.63c1.26,7,1.7,14.57-.69,21.37-1.38,3.93-5.18,11.11-10.84,7.82-3.12-1.82-4.69-6.7-5.27-10.06-1.74-10.11,4.63-21.56,15.55-22.51,1.81-.16,6.21-3.14,2.38-2.81-12.08,1.05-23.4,9-24,22-.27,5.8,1.76,13.55,7.39,16.41,4.33,2.2,9.84.45,13.58-2.17,10.21-7.16,9.66-22.4,7.37-33.23-1.45-6.85-4.16-13.86-8.74-19.26-2.42-2.85-7.07-4-9.62-.46-1.33,1.83,4.36,1.16,5.32-.16Z"/>
    <path d="M275,205c13.51,9.41,23.86,29.8,16.31,46a13.66,13.66,0,0,1-3.65,5.23c-3.24,2.42-7.31,1.59-10.16-1a14.17,14.17,0,0,1-4.53-12.67c1.47-11.47,12.06-17.49,21.64-21.72,3.5-1.55-1.88-1.71-3.41-1-10.77,4.77-23.85,12.34-24.21,25.73-.3,11.16,10.64,17.78,20.59,13.83s12.66-15.64,11.59-25.33A44.14,44.14,0,0,0,280.39,203c-1.41-1-6.49,1.32-5.44,2.06Z"/>
    <path d="M195.23,269.43a75,75,0,0,1-16.69,23.85c-1.34,1.29,0,2.64,1.39,2.83a134.71,134.71,0,0,1,19.38,4.1c2.39.69,6.84-2.78,3.38-3.78A144.08,144.08,0,0,0,182,292l1.39,2.83A78.36,78.36,0,0,0,200.75,270c1.31-3-4.52-2.83-5.52-.58Z"/>
    <path d="M164.71,342.61A39,39,0,0,0,203,363.2a40.17,40.17,0,0,0,33-26.2c1.08-3.11-4.7-3-5.53-.61-4.24,12.14-15.21,21.95-28.37,22.8-13.51.87-26.06-7.31-32.16-19.09-1.15-2.22-6.69-.13-5.31,2.53Z"/>
    <path d="M59.75,214.89c-9.5-2.53-18.63,3-24.49,10.21C28.2,233.73,25.11,244.93,25.5,256s3.84,26.1,12,34.43c7.52,7.72,18.67,5.62,27.95,2.91,3.45-1,2.67-4.14-.84-3.12C55,293,46,293.83,40,284.44c-4.55-7.15-7.19-16.18-8.27-24.54a48.25,48.25,0,0,1,2.81-24.29c3.28-8.1,11.51-20.12,21.68-17.41,2,.53,6.83-2.42,3.51-3.31Z"/>
    <path d="M350.56,220c.36-7.07,7.47-2.83,10.52-.8a59,59,0,0,1,8.49,6.67A34.24,34.24,0,0,1,379,243.34c2,8.73-1.21,19-6.5,26-3.36,4.46-8.19,7.2-13.41,9-4.41,1.49-10.84,3.84-15.39,2.75-1.72-.41-6.78,2.22-3.59,3,5.82,1.38,11.54-.73,17.16-2.29,6-1.65,12-4.11,16.73-8.24,9.46-8.27,13.43-22.64,10.05-34.58-2.84-10-10.06-17.09-18.62-22.61-3.74-2.41-7.23-4.29-11.79-3.48-4.14.74-8.64,3.36-8.87,8-.11,2.2,5.69,1,5.78-.79Z"/>
    <path d="M4.76,168.15a317.76,317.76,0,0,0,155.13-31.46c3.47-1.68-1.76-2.3-3.52-1.45A305.64,305.64,0,0,1,7.09,165.13c-2-.11-6.21,2.81-2.33,3Z"/>
    <path d="M28,170.07A296.6,296.6,0,0,0,123.39,154c3.88-1.33.26-2.43-2.09-1.63a282.38,282.38,0,0,1-90.83,15.11c-1.75,0-6.28,2.62-2.43,2.61Z"/>
    <path d="M98,164c11.31-2.28,23.82-5.95,33.59-12.26,2.71-1.75-.35-2.78-2.2-2.35-2.62.61-5.2,1.3-7.78,2.07-3.42,1-2.71,4,.79,2.94s7.17-2.25,10.68-3.61c3.77-1.45.34-3.44-2.3-2.42-3,1.16-6.06,2.19-9.17,3.09l.79,2.94c2.58-.77,5.16-1.46,7.78-2.07l-2.2-2.35c-8.93,5.76-20.42,9-30.77,11.07-3.55.72-2.72,3.65.79,2.94Z"/>
    <path d="M134.62,149.4l.67-.33c.35-.17,1-.57,1.16-1s-.16-.64-.51-.75a6.08,6.08,0,0,0-4.07.68l-.67.33c-.35.17-1,.57-1.16,1s.16.64.51.75a6.08,6.08,0,0,0,4.07-.68Z"/>
    <path d="M53.25,169.09c6.33,1.19,12.56.09,18.85-.89q11.17-1.74,22.26-3.92c.49-.1,4.71-1.88,3-2a66.39,66.39,0,0,0-16.9.62c-2.24.36-5.23,2.61-1.13,1.94a52,52,0,0,1,13.24-.43l3-2q-8.32,1.61-16.68,3C72,166.48,64.89,168.24,58,166.95c-1.3-.25-6.22,1.87-4.79,2.14Z"/>
    <path d="M134.47,170.78l.57-.29c.53-.29-.6.16.15-.05l.31-.08q.41-.08,0,0t0,0l.43,0a4.28,4.28,0,0,0,2.18-.79,2.4,2.4,0,0,0,1-1.5c.09-1.47-1.49-1.85-2.65-1.81a10.4,10.4,0,0,0-4.59,1.27c-.9.5-2.36,1.76-1.39,2.89s2.81,1,3.92.38Z"/>
    <path d="M137.26,169.12a289.78,289.78,0,0,0,80.18-34c3.31-2-1.79-2.56-3.53-1.48a279.33,279.33,0,0,1-77.36,32.88c-3.45.88-2.77,3.52.7,2.62Z"/>
    <path d="M225.09,131.21l1-.67a2.35,2.35,0,0,0,1.08-1.31,1.09,1.09,0,0,0-.62-1.15,4.47,4.47,0,0,0-4.12.49l-1,.67a2.35,2.35,0,0,0-1.08,1.31,1.09,1.09,0,0,0,.62,1.15,4.47,4.47,0,0,0,4.12-.49Z"/>
    <path d="M201.8,162.49c15.56-5.15,31.27-10.84,44.77-20.36,10-7.08,21.6-15.85,28.06-26.49,1.41-2.33-4.39-1.82-5.4-.15-6,9.91-16.89,18.26-26.27,24.87-12.66,8.93-27.35,14.33-41.95,19.17-3.37,1.12-2.68,4.11.79,3Z"/>
    <path d="M266.86,303.07c3.41,0,4.36-4.52.44-4.52-3.41,0-4.36,4.52-.44,4.52Z"/>
    <path d="M283.61,322.76v-1.52c0-.37-.87-.46-1-.47a6.33,6.33,0,0,0-2.13.26,6.19,6.19,0,0,0-2,.84c-.33.24-.66.48-.66.93v1.52c0,.37.87.46,1,.47a6.33,6.33,0,0,0,2.13-.26,6.19,6.19,0,0,0,2-.84c.33-.24.66-.48.66-.93Z"/>
    <path d="M312.4,297v-1.52c0-.35-.89-.4-1-.41a6.86,6.86,0,0,0-2.12.29,6.73,6.73,0,0,0-2,.81c-.31.21-.68.44-.68.86v1.52c0,.35.89.4,1,.41a6.86,6.86,0,0,0,2.12-.29,6.73,6.73,0,0,0,2-.81c.31-.21.68-.44.68-.86Z"/>
    <path d="M97.63,313.78h-.94c-3.35,0-4.42,4.35-.49,4.35h.94c3.35,0,4.42-4.35.49-4.35h-.94c-3.35,0-4.42,4.35-.49,4.35h.94c3.35,0,4.42-4.35.49-4.35Z"/>
    <path d="M116,343.44h1.52a5.68,5.68,0,0,0,2.27-.44,3.38,3.38,0,0,0,1.54-1.17c.63-1.16-.54-1.83-1.6-1.83h-1.52a5.68,5.68,0,0,0-2.27.44,3.38,3.38,0,0,0-1.54,1.17c-.63,1.16.54,1.83,1.6,1.83Z"/>
    <path d="M140.28,314.88c2.57,0,6-3.89,2.09-3.89-2.57,0-6,3.89-2.09,3.89Z"/>
    <path d="M153,239.19c1.73,0,6.29-2.58,2.44-2.58-1.73,0-6.29,2.58-2.44,2.58Z"/>
    <path d="M153,239.21c1.76,0,6.28-2.62,2.43-2.62-1.76,0-6.28,2.62-2.43,2.62Z"/>
  </symbol>

  <symbol id="pencil" viewBox="0 0 283.28 288.61">
    <title>pencil</title>
    <path d="M17,213.32c.61,0,3.27-1.16,1.88-1.16-.61,0-3.27,1.16-1.88,1.16Z" transform="translate(-1.99)"/>
    <path d="M18.57,201.53c33.82-28.68,65-60,96.15-91.53l48.93-49.62,23.77-24.1c7.25-7.35,14.33-15.05,22.48-21.43C219.06,7.67,230.33,2,242.29,3.39,252.75,4.61,261.58,11.5,268.55,19s11.54,16.55,11.17,27S275,66.2,269.86,75a146.37,146.37,0,0,1-18.14,24.64c-7,7.69-15,14-22.85,20.8-3.44,3-6.42,6.46-9.78,9.54-3.74,3.43-7.75,6.53-11.17,10.3-5.71,6.29-11.84,12.18-17.53,18.5-7.77,8.64-16.54,16.11-24.56,24.49Q152.36,197.32,139,211.47L85.25,267.88c-2.33,2.45,3.31,2.35,4.65,1l51-53.53,25.48-26.76c7.71-8.09,16.29-15.3,23.92-23.44,13.65-14.56,27.13-29.18,41.94-42.57,7.76-7,16-13.21,23.2-20.9a151.76,151.76,0,0,0,18.53-24.32c10.33-16.91,17.09-37.47,4.52-55.09C267.64,7.08,250.57-3,231.69.83c-21.13,4.33-35.87,21.25-50.32,35.91L129.64,89.2C92,127.35,54.83,165.89,13.92,200.58c-2.53,2.14,3.2,2.18,4.65,1Z" transform="translate(-1.99)"/>
    <path d="M11.56,202.81c.09,28.09-5.6,56.33-9.43,84.09-.09.63,5.56.18,5.8-1.55,3.84-27.76,9.52-56,9.43-84.09,0-.88-5.8-.07-5.8,1.55Z" transform="translate(-1.99)"/>
    <path d="M4.84,288.4Q46,277.88,87.56,268.63c3.44-.77,2.89-2.82-.55-2.06Q45.5,275.83,4.29,286.34c-3.4.87-2.88,2.93.55,2.06Z" transform="translate(-1.99)"/>
    <path d="M12.68,203.75a126.06,126.06,0,0,0,40.11-4.1l-3.16-.2a243,243,0,0,1,1.46,32c0,.71,2.12.42,2.38.37l33-6.3-2.38-.37a401.1,401.1,0,0,1,1.4,42.41c0,1,5.76.22,5.8-1.55a401.1,401.1,0,0,0-1.4-42.41c-.06-.72-2.06-.43-2.38-.37l-33,6.3,2.38.37a243,243,0,0,0-1.46-32c-.1-.93-2.82-.29-3.16-.2a112.51,112.51,0,0,1-35.85,3.58c-1.33-.08-6.63,2.31-3.73,2.48Z" transform="translate(-1.99)"/>
    <path d="M57.17,199,174.56,86.43c2.56-2.46-3.06-3.18-4.8-1.51L52.37,197.53c-2.56,2.46,3.06,3.18,4.8,1.51Z" transform="translate(-1.99)"/>
    <path d="M89.06,224.65Q140.62,168,195.82,114.8c2.43-2.34-3.25-2.34-4.66-1Q136,167,84.4,223.66c-2.29,2.52,3.33,2.45,4.66,1Z" transform="translate(-1.99)"/>
    <path d="M10.34,263.64c4.15-.21,8.69,5.67,11.41,8.16,3,2.75,6.35,5.39,6.77,9.71.27,2.84,6.08,1.4,5.8-1.55-.54-5.62-5.46-9.21-9.33-12.75-4.18-3.82-8.1-8.41-14.2-8.1-3.38.17-4.38,4.72-.44,4.52Z" transform="translate(-1.99)"/>
    <path d="M11.16,269.71,7.58,280.08l5.73.18A19.59,19.59,0,0,1,15.95,274l-5.73-.18a19.66,19.66,0,0,1-2.43,7.7l5.57.76,1.36-3.59L9,278.48a11.73,11.73,0,0,1-2.05,4.6c-2.26,3.17,3.1,3.67,4.89,1.84a14.53,14.53,0,0,1,9.75-4.43l-1.07-4-7.21,3.71c-2.47,1.27-1.77,4.2,1.07,4a37.52,37.52,0,0,0,12.44-3c1.47-.63,2.24-2.36.91-3.52L16,267.42c-1.81-1.57-6.25.49-4.87,3l1.17,2.15c1.17,2.14,6.3.43,5.54-2.08a9.86,9.86,0,0,0-2.53-4.35c-1.36-1.37-5.68-1.11-5.59,1.5a27.36,27.36,0,0,0,1.65,8.75c1,2.68,6.51,1.27,5.8-1.55l-2.37-9.37c-.71-2.79-6.4-1.27-5.8,1.55a53.54,53.54,0,0,0,2.74,9c1.1,2.72,6.13,1.31,5.8-1.55a41.51,41.51,0,0,0-2.36-9.8l-5.54,2.08a22.32,22.32,0,0,0,6.81,8.2,3.69,3.69,0,0,0,4.66-.8A4.72,4.72,0,0,0,22,270c-.56-2.79-6.36-1.3-5.8,1.55l0,.74,4.66-.8a19.67,19.67,0,0,1-6-7.37c-1.06-2.18-6.45-.36-5.54,2.08a41.51,41.51,0,0,1,2.36,9.8l5.8-1.55a53.54,53.54,0,0,1-2.74-9L9,267l2.37,9.37,5.8-1.55a23.8,23.8,0,0,1-1.56-7.59L10,268.77a6.79,6.79,0,0,1,2,3.3L17.56,270l-1.17-2.15-4.87,3,11.76,10.22.91-3.52a28,28,0,0,1-9.36,2.21l1.07,4,7.21-3.71c2.47-1.27,1.77-4.2-1.07-4a22.68,22.68,0,0,0-15.1,7l4.89,1.84a18,18,0,0,0,3.05-6.83c.64-2.85-4.94-2.26-5.73-.18L7.79,281.5c-1.26,3.31,4.35,3,5.57.76a22.79,22.79,0,0,0,2.75-8.85c.34-3.28-4.71-1.8-5.73-.18a22.88,22.88,0,0,0-3,7.43c-.62,2.82,5,2.32,5.73.18l3.59-10.37c1.11-3.22-4.68-3.32-5.57-.76Z" transform="translate(-1.99)"/>
    <path d="M14.21,268.24a34.35,34.35,0,0,1,2.54,7.14L22,273.5a.71.71,0,0,1-.64-1l-5.75,1.3a7.25,7.25,0,0,1,.73,1.65c.4,1.72-1.06,1.36,1.89.9l1.84-.07-.45-.12-.17,1.17a21.48,21.48,0,0,1,5.38-2.79c.5-.17,2.37-.84,1.74-1.6s-3.13.15-3.73.35A31.32,31.32,0,0,0,15,277.21c-.5.35-1.09.93-.17,1.17A8,8,0,0,0,21,277c1.76-1.29,1.32-3.05.43-4.75-.61-1.17-5.48.14-5.75,1.3a1.62,1.62,0,0,0,1.58,2.16c.82.09,5.63-.4,5.28-1.88A34.35,34.35,0,0,0,20,266.69c-.67-1.37-6.24.64-5.8,1.55Z" transform="translate(-1.99)"/>
    <path d="M16.09,275A11.74,11.74,0,0,1,21,276a4.94,4.94,0,0,0,4.09-.58c.73-.43,1.81-1.58.54-2.12a17.6,17.6,0,0,0-7.22-1.44c-1.24,0-3.1.42-3.84,1.55s.62,1.58,1.53,1.57Z" transform="translate(-1.99)"/>
    <path d="M175,49.44c21.13,20.43,42,41.09,62.46,62.23,1.87,1.93,7.35-.46,5.3-2.58-20.7-21.42-41.89-42.35-63.31-63-1.9-1.84-6.89,1-4.45,3.4Z" transform="translate(-1.99)"/>
    <path d="M190.59,30l55.89,56.77L254.59,95c1.94,2,7.4-.47,5.29-2.62L204,35.66l-8.11-8.23c-1.94-2-7.4.47-5.29,2.62Z" transform="translate(-1.99)"/>
    <path d="M202.53,17.32,259,72.47l8,7.84c1.3,1.27,6.74-.87,5.41-2.16L216,23l-8-7.84c-1.3-1.27-6.74.87-5.41,2.16Z" transform="translate(-1.99)"/>
    <path d="M233.14,48.73l1.19-2.43-5.62.22-3.56,8.73c-.81,2,4.86,1.38,5.62-.22l2.55-5.41c1.24-2.63-4.52-2-5.43-.23l-3.41,6.72,5.62-.22,1.77-5.3c.71-2.14-4.93-1.36-5.62.22l-2,4.68,5.62-.22,1.59-6.62c.56-2.34-5.2-1.28-5.81.67a12.86,12.86,0,0,1-2.15,4.19l5.62-.22,1.74-6.08c.68-2.36-4.89-1.1-5.62.22l-3.39,6.12,5.43.23,3.31-7.55-5.62.22a32.34,32.34,0,0,1-4.28,7.9l5.43.23a42.1,42.1,0,0,0,3.78-8.52c.75-2.35-4.86-1-5.62.22l-2.77,4.59,5.43.23,2.51-5.51c1.23-2.71-4.45-1.89-5.43-.23L221.9,49l5.43.23a26.16,26.16,0,0,0,2.14-5c.72-2.35-4.51-1-5.25-.22l-2.57,2.76,5.06.67a11.64,11.64,0,0,0,2.49-5c.58-2.4-4.49-1-5.25-.22a48.11,48.11,0,0,0-4.75,6c-1.63,2.44,4.3,1.61,5.43.23a17.61,17.61,0,0,0,2.77-4.78c.88-2.13-4.81-1.12-5.62.22a16.25,16.25,0,0,0-2,4.92c-.59,2.52,4.49.87,5.25.22l4-3.45L224,44.81l-2,3.78c-1.37,2.62,4.07,1.75,5.06.67l3.49-3.84-5.06-.67-3.61,5.47c-1.58,2.39,4.29,1.75,5.43.23a18.58,18.58,0,0,0,2.65-5c.83-2.32-4.54-.93-5.25-.22l-4.87,4.89,5.06.67a39.24,39.24,0,0,0,2-5.59c.67-2.48-4.51-.87-5.25-.22a12.3,12.3,0,0,0-2.79,3.5l5.62-.22c1.25-3.75-3.73-4.57-6.22-3.14-2.73,1.56-2.55,5,.73,5.58,1.28.22,3.83-.11,4.47-1.53l2-4.51c1.2-2.68-4.51-2-5.43-.23l-3,5.87,5.62-.22.9-3.23-5.81.67L217.07,52c-.33,2.46,5,1.25,5.62-.22l1.58-3.54-5.62.22-.55,3.37,5.81-.67a15,15,0,0,1,2.93-7.9l-5.62.22-1,2.08,5.06.67,2-4.19c1.3-2.7-4.06-1.72-5.06-.67l-2.3,2.42,5.25.22.84-2.4c.8-2.3-4.52-1-5.25-.22l-3.12,3.33,5.06.67,2.59-4.65c1.47-2.63-4.36-1.66-5.43-.23L216,45.74l5.43.23,3.28-5.57c1.46-2.48-4.36-1.87-5.43-.23l-3.44,5.28,5.43.23a14.52,14.52,0,0,0,2.19-5.78c.41-2.57-4.88-1-5.62.22l-2.68,4.54c-1.44,2.44,4.38,1.94,5.43.23l1.27-2.07-5.62.22-1.57,4.36,5.81-.67.86-2.13c1.36-2.6-4.41-1.88-5.43-.23l-1.7,2.78,5.43.23c1.17-2.51.2-5.28.83-8.1.57-2.55-4.87-1-5.62.22L212.6,43l5.43.23a13.47,13.47,0,0,0,1.35-4c.46-2.65-4.85-.88-5.62.22a8.79,8.79,0,0,0-1.48,3c-.76,2.16,5,1.22,5.81-.67a13.72,13.72,0,0,0,1-3.57c.38-2.74-4.82-.8-5.62.22l-2.12,2.71,5.43.23a26.42,26.42,0,0,0,1.74-5.45c.48-2.4-5-1.23-5.62.22l-1.65,3.65,5.61-.66-.11-1.21c.41-2.45-4.95-1.21-5.62.22l-2,4.19,5.62-.22,1.09-3.6-5.81.67-.47,2.78,5.81-.67.39-2.67c.35-2.41-5.46-1.41-5.81.67l-.68,4.09,5.8-1.11c-1-2.15,1.22-4.7-2.2-5.36-1.79-.35-4.27.5-5,2.2l5.62-.22.94-4.15c.6-2.65-4.86-.78-5.62.22a15.82,15.82,0,0,0-2.07,3.74L212.5,38l.55-3.43c.41-2.58-4.87-1-5.62.22l-1.82,3C204.14,40.2,210,39.64,211,38a6.9,6.9,0,0,0,1.23-4.57c-.06-2.12-5-.45-5.61.66l-1.45,2.77,5.62-.22.61-3.58c.42-2.47-4.93-1.17-5.62.22l-1.52,3.08,5.62-.22a7.13,7.13,0,0,0,.64-3.16c.19-2.2-3.75-1.32-4.73-.62a10.07,10.07,0,0,0-3.18,3.4c-1.41,2.51,4.39,1.91,5.43.23a14.39,14.39,0,0,0,1.73-4.05c.51-1.94-3.29-1.36-4.08-1a6.54,6.54,0,0,0-3.2,2.69c-1.53,2.41,4.32,1.81,5.43.23a13.57,13.57,0,0,0,2.14-4.65c.65-2.47-4.51-.9-5.25-.22a13.44,13.44,0,0,0-2.63,3.24l5.62-.22a9.93,9.93,0,0,0,.28-4.1c-.23-2-4.49-.6-5.24.22a8.49,8.49,0,0,0-2.16,3.46c-.78,2,4.9,1.42,5.62-.22l1.23-2.81c1.25-2.86-4.38-1.63-5.43-.23a14,14,0,0,0-2,3.85c-.77,2.13,4.88,1.28,5.62-.22a21.94,21.94,0,0,0,1.74-4.73c.57-2.37-5.17-1.24-5.81.67L200,32.75l5.81-.67a11.19,11.19,0,0,0-.39-3.8c-.48-2.07-4.31-.53-5.24.22a8.7,8.7,0,0,0-2.5,3.11l5.62-.22,2.49-5.91c1-2.34-4.85-.74-5.62.22l-2.54,3.18,5.62-.22.49-3.68c.35-2.59-4.38-.9-5.25-.22L195.7,27l5.25.22.67-2.77c.59-2.44-4.49-1-5.25-.22l-2.29,2.27,5.06.67,1.92-3.31c.5-.86-.08-1.57-1-1.76L199.7,22c-1.24-.28-3.87.15-4.47,1.53L195,24c-.16.37-.38.94,0,1.28,2.65,2.19,6.07.73,8.35-1.19l-2.71,1.16.61-.05-2.53-.93.18-.21,3.82-1.62-.28,0,1.61,1.85,1.79-2.87c1.67-2.67-4.16-1.38-5.06-.67L197.93,23l4.69,1.1a8.65,8.65,0,0,0,2.4-3.22c1.21-2.73-4-1.74-5.06-.67l-.88.93L202.52,20h-.42l1.8,1.4.43-1.49-4.72-.18a13.76,13.76,0,0,1-2.11,1.78l4.69,1.1,1.48-1.31-5.24.22.41,4.15c.16,1.57,3.38.81,4.07.52a8.47,8.47,0,0,0,3-2l-5.24.22a6.66,6.66,0,0,1,1,2.78c.59,2.35,5.25.39,5.8-1.11l.74-2-5.8,1.11A15.71,15.71,0,0,1,204,29.11c.58,2.2,6,.64,5.8-1.55A20.33,20.33,0,0,0,207,18.8c-.92-1.62-6.15,0-5.58,1.94a96.29,96.29,0,0,0,3.29,9.51c.81,2,4.77.71,5.61-.66l1-1.66-5.61.66a26.08,26.08,0,0,1,1,6c.11,2,5.74.76,5.8-1.11l.19-5.29-5.59,1.5a8.4,8.4,0,0,1,1.72,3.91l5.8-1.55a10.4,10.4,0,0,1-.62-3.7l-5.8,1.55,2.42,5c1,2.07,6.67.34,5.8-1.55L213,25.66l-5.58,1.94L209.21,30c1.1,1.43,6.49-.11,5.58-1.94L213,24.34c-1-2-6.55-.54-5.8,1.55a43.86,43.86,0,0,0,5.79,11c1.2,1.66,5,.08,5.59-1.5a5,5,0,0,0-.29-4.59l-5.58,1.94A18.56,18.56,0,0,1,214.9,37c.86,2.05,6.44.58,5.8-1.55L220,33.11,214.41,35,219,40c1.38,1.5,5,.22,5.59-1.5a3.65,3.65,0,0,0-.7-4c-1.11-1.48-6.53.21-5.58,1.94l1.63,3,5.58-1.94c-1.48-2-3.85-1.5-5.87-.7-.59.23-2.12,1.18-1.73,2.07a58.5,58.5,0,0,0,9,14.25c1.15,1.35,6.19.18,5.58-1.94L232,49.56l-5.8,1.55,3.43,7.11c1,2,6.53.55,5.8-1.55l-.78-2.2-5.58,1.94L234,63.26l5.37-2.33L236.49,57c-1.2-1.66-6.67.15-5.37,2.33l2.06,3.44,5.37-2.33a19.61,19.61,0,0,0-5-3.76c-1.55-.84-5.29.11-5.19,2.23a7.48,7.48,0,0,0,1.25,3.91c.93,1.61,6.37-.08,5.58-1.94a9.48,9.48,0,0,0-5.28-5.47c-1.11-.5-6.07.12-5.19,2.23a26.93,26.93,0,0,0,3.14,5.6c1.21,1.66,6.73-.21,5.37-2.33l-1.6-2.48-5.37,2.33a28.85,28.85,0,0,0,6,6.51c1.53,1.22,5.62.39,5.58-1.94l-.05-3-5.58,1.94,4,6.37c.91,1.43,4.17.28,5-.61,1.45-1.5,2.12-3,1.17-5s-6.53-.53-5.8,1.55a27.87,27.87,0,0,0,3.07,6.14c1,1.56,6.08.09,5.58-1.94l-.74-3.06-5.8,1.55A36.71,36.71,0,0,0,242,76.41c1,1.75,5.78,0,5.58-1.94a10.25,10.25,0,0,0-.63-3.35l-5.8,1.55,2.68,6.3c.87,2,6.45.58,5.8-1.55l-.9-2.94-5.58,1.94,3.41,6c1,1.81,5.08-.07,5.59-1.5l.89-2.48-5.8,1.11,1.46,4.32c.77,2.28,5.21.47,5.8-1.11a14.48,14.48,0,0,0,.9-3.81l-5.8,1.11a29.14,29.14,0,0,0,1.15,4.68c.5,1.49,3.09.94,4.07.52a6,6,0,0,0,3.29-2.67l-5.61.66a4.32,4.32,0,0,0,1,2.15c1.05,1.57,4.6.17,5.4-1l2.69-4.08-5.62.22-.47,4.29c-.29,2.69,5.14,1,5.81-.67a11.9,11.9,0,0,0,1-3.24l-5.81.67-1.15,4.89,5.8-1.11-.43-2.92c-.34-2.3-5.34-.41-5.8,1.11l1.67-.34c-1.13-.31-4.68.29-4.66,2,0,2.37,0,2.69,1.71,4.42,1.25,1.25,3.92.43,5-.61l2-1.88-5.24.22.4,2.07c.45,2.32,4.83.29,5.61-.66l1.35-1.63-5.62.22-1,2.5c-.8,2.1,4.86,1.27,5.62-.22l2-3.93c1.4-2.75-4.37-1.61-5.43-.23L256,88.59c-1.68,2.19,4,1.79,5.06.67A39.78,39.78,0,0,0,268,79.4c.94-1.91-2-2-3.13-1.67l-2.26.67,3.32,1.22a7.26,7.26,0,0,0-.16-2.63c-.33-1.58-3.23-.81-4.07-.52l-2.49.88,4.08,1a5.11,5.11,0,0,0-.59-4.1c-1-1.77-4-.88-5.24.22L254.67,77l5.25.22a4.66,4.66,0,0,0,.27-2.63c-.16-2.33-4.94-.19-5.61.66L252.36,78l5.62-.22.68-2.75c.61-2.45-4.49-1-5.25-.22l-2.8,2.71,5.25.22.51-5.74c.22-2.5-4.34-1.08-5.25-.22L247.78,75l5.25.22.88-4.74c.49-2.61-5.11-1-5.81.67l-1.72,2.71,5.25.22.33-3.74c.23-2.57-4.87-1.12-5.62.22a5.72,5.72,0,0,0-.79,4.2c.33,2.21,4.93.41,5.61-.66a3.51,3.51,0,0,0-.54,3.72c.21.95,1.81,1,2.53.93,3.86-.61,7.31-2.82,6.79-7.15-.26-2.12-5.55-.62-5.8,1.11q1.17-.53-.22-.34a3.35,3.35,0,0,0,3.1.39l.32-.11-3.1-.39-.07,0,3.27-2c.09,0-2.58-3.45-2.84-3.79-1.06-1.37-4.06-.33-5,.61l-3.43,3.34,5.25.22V66.12c0-2-2.92-1.4-4.08-1l-2.85,1.09,3.89,1.41a10.17,10.17,0,0,0,1-4.38c0-2.46-4.94-1.35-5.62.22l-1.27,2.95,5.62-.22.79-3.42c.54-2.36-5-1.24-5.62.22l-1.22,2.7,5.61-.66-.17-2.76c-.14-2.34-4.94-.18-5.61.66l-1.06,1.33,5.4-1c-1.87-2.16-5.54-1-7,1.14l5.61-.66-.13-2.31c0-.46-.8-.82-1.14-.87-3.4-.57-1.39-6.74-4.31-8.52-1.19-.72-5.15,0-5.2,1.79L234,56.74l5.8-1.11-.92-2.73c-.66-2-5.74-.79-5.8,1.11L233,56.4l5.8-1.11a13.89,13.89,0,0,0-2.16-4.59c-1-1.4-5.59-.29-5.59,1.5v2.25l5.8-1.11L236,49.91l-5.58,1.94,1.36,1.74c1.11,1.42,6.17.14,5.58-1.94l-.34-2.34-5.2,1.79,2,1.42c1.31.92,4.88-.07,5.2-1.79a5.79,5.79,0,0,0,0-3.09l-5.58,1.94a65.16,65.16,0,0,0,8.54,11.86c1.36,1.5,6.86-.28,5.37-2.33l-2.48-3.38c-1.22-1.66-6.76.24-5.37,2.33l3.27,4.89,5-2.62,0,1-4.1,1.1c1.44.32,3.27,4.16,4,5.34,1.05,1.74,6.68-.15,5.37-2.33-1.44-2.38-2.92-5.66-5.85-6.32a4.72,4.72,0,0,0-4.1,1.1,2.35,2.35,0,0,0-.84,2.23,1.11,1.11,0,0,0,.61.68l.39.14c1.29.47,6.52-.31,5-2.62l-3.27-4.89L239.57,58l2.48,3.38,5.37-2.33a65.16,65.16,0,0,1-8.54-11.86c-.95-1.68-5.93-.06-5.58,1.94l0,2.21,5.2-1.79-2-1.42c-1.16-.81-5.15,0-5.2,1.79a7.18,7.18,0,0,0,.36,3.23l5.58-1.94-1.36-1.74c-1.13-1.44-6.1-.16-5.58,1.94l.85,3.43c.5,2,5.81.74,5.8-1.11V51.53L231.3,53A8.26,8.26,0,0,1,233,56.85c.54,2,5.75.74,5.8-1.11l.07-2.39-5.8,1.11.92,2.73c.66,2,5.75.79,5.8-1.11l.08-2.93-5.2,1.79c1.57,1,.52,4.75,1.28,6.3,1,2,3,1.73,3.09,4s5,.3,5.61-.66l.38-.56L242,65.66l.74,0-2.32-.54.44.51c1.3,1.51,4.41.2,5.4-1l1.06-1.33-5.61.66.17,2.76c.13,2.08,5.06.55,5.61-.66l1.22-2.7-5.62.22-.79,3.42c-.54,2.34,5,1.28,5.62-.22l1.27-2.95-5.62.22a6.46,6.46,0,0,1-.64,3.48c-1,2.32,2.72,1.85,3.89,1.41l2.85-1.09-4.08-1v4.44c0,2.45,4.24,1.2,5.25.22l3.43-3.34-5,.61c2,2.65,4,5.12,7.47,4.88,1.19-.08,2.9-.79,3.27-2a1.51,1.51,0,0,0-.38-1.64c-.58-.79-2.32-.65-3.1-.39l-.32.11,3.1.39c-3.07-2.87-11.46-1.56-10.41,3.88,1.16,6,10.38,2.8,11.07-1.89l-5.8,1.11-.25,2.18,2.53.93c-.64-2.87-1.77-5-4.92-5.19a6.18,6.18,0,0,0-5.77,2.8l5.61-.66.42-2.41-5.62.22-.33,3.74c-.21,2.41,4.37,1.21,5.25.22a15.47,15.47,0,0,0,2.84-4.49l-5.81.67-.88,4.74c-.46,2.49,4.44,1,5.25.22l3.34-3.17-5.25-.22L250,78.45c-.22,2.49,4.34,1.09,5.25.22l2.8-2.71-5.25-.22-.68,2.75c-.66,2.66,4.87.73,5.62-.22L260,75.46l-5.61.66-.28,1.74c-.79,2.4,4.54.87,5.25.22l2.75-2.54-5.24.22a3.24,3.24,0,0,1,.57,3.22c-.4,2,3.22,1.26,4.08,1l2.49-.88-4.07-.52.14,1.75c-.11,1.63,2.31,1.53,3.32,1.22l2.26-.67-3.13-1.67a35.9,35.9,0,0,1-6.16,9l5.06.67,2.39-3.12-5.43-.23-2,3.93,5.62-.22,1-2.5c.94-2.46-4.88-.68-5.62.22L256,88.53l5.61-.66-.4-2.07c-.39-2-4.38-.58-5.24.22l-2,1.88,5-.61a3.22,3.22,0,0,1-1.26-2.77l-4.66,2c3.12.86,6.66-.38,7.65-3.63L254.9,84l.43,2.92c.33,2.22,5.42.51,5.8-1.11l1.15-4.89c.54-2.28-5.31-1.42-5.81.67a11.9,11.9,0,0,1-1,3.24l5.81-.67.47-4.29c.29-2.65-4.83-1-5.62.22l-2.69,4.08,5.4-1-.53-1.38c-.45-2.2-4.89-.46-5.61.66l-.21.31,4.07.52a29.14,29.14,0,0,1-1.15-4.68c-.34-2.09-5.61-.67-5.8,1.11a14.48,14.48,0,0,1-.9,3.81l5.8-1.11L253,78c-.76-2.26-5.23-.49-5.8,1.11l-.89,2.48,5.59-1.5-3.41-6c-.91-1.61-6.18,0-5.58,1.94l.9,2.94,5.8-1.55-2.68-6.3c-.87-2-6.39-.62-5.8,1.55a10.25,10.25,0,0,1,.63,3.35l5.58-1.94a32.4,32.4,0,0,1-2.72-6.34c-.67-2.13-6.32-.62-5.8,1.55l.74,3.06,5.58-1.94a23,23,0,0,1-2.64-5.37l-5.8,1.55a1.68,1.68,0,0,1-.07,2.33l5-.61-4-6.37c-1.14-1.79-5.61,0-5.58,1.94l.05,3,5.58-1.94a28.85,28.85,0,0,1-6-6.51c-1.16-1.7-6.73.21-5.37,2.33l1.6,2.48,5.37-2.33a23.41,23.41,0,0,1-2.71-4.83l-5.19,2.23a7.15,7.15,0,0,1,4.07,4.11L235,60.48a4.87,4.87,0,0,1-.82-3.13L229,59.58a16.64,16.64,0,0,1,4.18,3.18c1.38,1.42,6.71-.08,5.37-2.33L236.49,57l-5.37,2.33L234,63.26c1.22,1.68,6.82-.31,5.37-2.33l-4.92-6.85c-1.05-1.47-6.28-.05-5.58,1.94l.78,2.2,5.8-1.55L232,49.56c-1-2-6.42-.64-5.8,1.55l.44,1.56,5.58-1.94a55.38,55.38,0,0,1-8.53-13.48L222,39.32l.74-.3-2.93.36.34.37c1.11,1.47,6.54-.2,5.58-1.94l-1.63-3-5.58,1.94.26,2.37,5.59-1.5-4.57-4.95c-1.17-1.27-6.23-.21-5.58,1.94L214.9,37l5.8-1.55A32.71,32.71,0,0,0,218,30.38c-1-1.59-6.47.18-5.58,1.94a3.2,3.2,0,0,1,.28,3.71l5.59-1.5A40.78,40.78,0,0,1,213,24.34l-5.8,1.55L209,29.6l5.58-1.94-1.83-2.38c-1.09-1.42-6.45.05-5.58,1.94l3.53,7.65,5.8-1.55-2.42-5c-1-2-6-.73-5.8,1.55a10.4,10.4,0,0,0,.62,3.7c.56,2.14,6.35.62,5.8-1.55a13.94,13.94,0,0,0-2.15-4.68c-1-1.43-5.53-.27-5.59,1.5l-.19,5.29,5.8-1.11a26.08,26.08,0,0,0-1-6c-.61-2.11-4.85-.58-5.61.66l-1,1.66,5.61-.66a96.29,96.29,0,0,1-3.29-9.51l-5.58,1.94a18.74,18.74,0,0,1,2.37,8l5.8-1.55a15.71,15.71,0,0,0-1.55-3.86c-1.12-2-5.12-.73-5.8,1.11l-.74,2,5.8-1.11a6.66,6.66,0,0,0-1-2.78c-.9-1.77-4.11-.89-5.24.22l-.69.5,4.07.52L204.22,20c-.21-2.08-4.46-.46-5.24.22l-1.48,1.31c-2.62,2.31,3.22,2.25,4.69,1.1L205,20.43a1.47,1.47,0,0,0,.55-1.33l-.16-.89c-.33-1.76-3.88-.8-4.72-.18a6.35,6.35,0,0,0-2.59,4.06c-.22,1,1.07,1.43,1.8,1.4a5.9,5.9,0,0,0,4.75-2.13l-5.06-.67A4.39,4.39,0,0,1,197.93,23c-2.61,2.31,3.21,2.28,4.69,1.1l2.91-2.33-5.06-.67L198.68,24c-.75,1.21.66,1.75,1.61,1.85l.28,0c1.15.13,3.26-.48,3.82-1.62.28-.58.5-1,.19-1.57-.47-.94-1.59-1-2.53-.93a6.06,6.06,0,0,0-2.47.64c-2.91,1.61,1.24,1,1.09,1.35l-4.47,1.53.39.09-1-1.76-1.92,3.31c-1.51,2.6,4.08,1.63,5.06.67l2.29-2.27-5.25-.22-.67,2.77c-.62,2.56,4.51.8,5.25.22l2.84-2.24L198,25.66l-.49,3.68c-.37,2.76,4.82.78,5.62-.22l2.54-3.18-5.62.22-2.49,5.91c-.84,2,4.84,1.35,5.62-.22a4.19,4.19,0,0,1,1.77-2.23l-5.24.22.37,2.92c0,2.68,5.2,1.15,5.81-.67l1.59-4.8-5.81.67a12.3,12.3,0,0,1-1.35,3.83l5.62-.22a7.86,7.86,0,0,1,1.64-3l-5.43-.23-1.23,2.81,5.62-.22,1-1.69-5.24.22a5.73,5.73,0,0,1-.29,3.21c-.66,2.42,4.88,1,5.62-.22a6.39,6.39,0,0,1,1.89-2.37l-5.25-.22a7.63,7.63,0,0,1-1.75,3.75l5.43.23.12-.33-4.08-1a7.33,7.33,0,0,1-1.35,3.15l5.43.23,1.4-1.73-4.73-.62a7.13,7.13,0,0,1-.64,3.16c-.72,2.22,4.9,1.24,5.62-.22l1.52-3.08-5.62.22L205,37.31c-.43,2.5,4.91,1.13,5.62-.22l1.45-2.77-5.61.66-.86,2.78L211,38l1.82-3-5.62.22-.55,3.43c-.42,2.64,5.13,1,5.81-.67a9.18,9.18,0,0,1,1.68-2.84l-5.62.22-.94,4.15c-.53,2.37,5,1.23,5.62-.22l.24-.51-3.08,1.59c-2.06.32-1.72,2.2-1.13,3.41.92,1.89,5.47.86,5.8-1.11l.68-4.09-5.81.67-.39,2.67c-.35,2.41,5.46,1.41,5.81-.67l.47-2.78c.42-2.48-5.24-1.23-5.81.67l-1.09,3.6c-.68,2.24,4.92,1.26,5.62-.22l2-4.19-5.62.22a3.24,3.24,0,0,0,.12,2.1c.61,2,5,.75,5.61-.66l1.65-3.65-5.62.22a16.1,16.1,0,0,1-1.36,4.55c-1.25,2.91,4.38,1.57,5.43.23l2.12-2.71-5.62.22a13.72,13.72,0,0,1-1,3.57l5.81-.67,1.1-2.07-5.62.22a7.45,7.45,0,0,1-1,3.06c-1.33,2.66,4.41,1.83,5.43.23l2.2-3.46-5.62.22a26.21,26.21,0,0,0-1,4.67c0,.81,1,1.77.6,2.53-1.26,2.71,4.43,1.85,5.43.23l1.7-2.78-5.43-.23a13.49,13.49,0,0,0-1.24,3c-.67,2.25,5.12,1.26,5.81-.67L222,42.37c.82-2.28-4.85-1-5.62.22l-1.27,2.07,5.43.23,2.68-4.54-5.62.22a12.34,12.34,0,0,1-1.81,4.88c-1.5,2.39,4.34,1.9,5.43.23l3.44-5.28-5.43-.23L216,45.74c-1.51,2.56,4.34,1.68,5.43.23l3.91-5.22-5.43-.23-2.59,4.65c-1.44,2.59,4.07,1.72,5.06.67l3.12-3.33-5.25-.22-.84,2.4c-.81,2.31,4.53,1,5.25.22l2.3-2.42-5.06-.67-2,4.19c-1.3,2.7,4.06,1.71,5.06.67A7.29,7.29,0,0,0,227,42.83c.57-2.64-4.86-.82-5.62.22a16.63,16.63,0,0,0-3.32,8.8c-.22,2.49,5.47,1.37,5.81-.67l.55-3.37c.4-2.43-5-1.24-5.62.22l-1.58,3.54,5.62-.22.62-4.56c.34-2.52-5.28-1.25-5.81.67l-.9,3.23c-.65,2.34,4.9,1.16,5.62-.22l3-5.87L220,44.37l-2,4.51,4.47-1.53-.4-.61-2.71,1.16.95-.06L218,47.29l.65,1.59c-.75,2.26,4.87,1.15,5.62-.22A6.19,6.19,0,0,1,226.31,46l-5.25-.22a23.28,23.28,0,0,1-1.62,4.69c-1.21,2.76,4,1.7,5.06.67l4.87-4.89-5.25-.22a14.55,14.55,0,0,1-2.27,4.15l5.43.23L230.89,45c1.58-2.39-4.05-1.78-5.06-.67l-3.49,3.84,5.06.67,2-3.78c1.45-2.76-4.1-1.49-5.06-.67l-4,3.45,5.25.22a9.05,9.05,0,0,1,1.62-4l-5.62.22a10.93,10.93,0,0,1-2.39,3.88l5.43.23a39.86,39.86,0,0,1,4-5.13L223.37,43a9.63,9.63,0,0,1-2.11,4.12c-1.7,2,3.95,1.86,5.06.67L228.9,45l-5.25-.22A14.05,14.05,0,0,1,221.9,49c-1.38,2.52,4.42,2,5.43.23l2.09-3.57L224,45.38l-2.51,5.51c-1.24,2.72,4.44,1.86,5.43.23l2.77-4.59-5.62.22a37.72,37.72,0,0,1-3.39,7.62c-1.49,2.56,4.35,1.72,5.43.23a35.82,35.82,0,0,0,4.66-8.8c.76-2.06-4.91-1.39-5.62.22l-3.31,7.55c-1.19,2.72,4.48,1.93,5.43.23l3.39-6.12L225,47.9,223.29,54c-.73,2.55,4.87.8,5.62-.22a16.79,16.79,0,0,0,2.54-5.09l-5.81.67L224,56c-.56,2.33,5,1.28,5.62-.22l2-4.68-5.62.22-1.77,5.3c-.74,2.22,4.89,1.22,5.62-.22l3.41-6.72-5.43-.23-2.55,5.41,5.62-.22,3.56-8.73c.9-2.21-4.82-1-5.62.22a9.72,9.72,0,0,0-1.58,3.33c-.7,2.12,5.13,1.39,5.81-.67Z" transform="translate(-1.99)"/>
    <path d="M256.7,82.58a8.66,8.66,0,0,1,2.14-3.82l-5.54.92a3.15,3.15,0,0,1,.31,1.72c0,1.32,5.51,0,5.77-1.25L260,77c.35-1.76-5.12-.24-5.74.94a9.79,9.79,0,0,1-2.69,3.34l5.14-.59a26.2,26.2,0,0,0-3.2-8.6c-.91-1.56-5.08.06-5.77,1.25l-1.41,2.44,5.77-1.25c.12-2.8-.77-4.63-3.74-4.56-1.93,0-4.84.79-5.54,2.83l5.77-1.25L248.09,66c-.12-1.29-6-.18-5.8,1.55l.52,5.58c.14,1.5,5.38-.13,5.77-1.25q-3.22.32-2.26,2.37a9.5,9.5,0,0,1,0,1.86c-.07,1.55,5.26-.38,5.77-1.25l1.41-2.44-5.77,1.25a26.2,26.2,0,0,1,3.2,8.6c.28,1.49,4.51-.09,5.14-.59A13.74,13.74,0,0,0,260,77l-5.74.94-.63,3.17,5.77-1.25a3.15,3.15,0,0,0-.31-1.72c-.53-1.62-4.86.2-5.54.92A10.27,10.27,0,0,0,251,83.53c-.4,1.42,5.28.65,5.74-.94Z" transform="translate(-1.99)"/>
    <path d="M211.31,44.64l-.7,1.39,5.62-.61c-.47-1,.14-.79.91-1,1.06-.35,2.15-.63,3.23-.94l6-1.75c1-.28,2.8-1.13,2.45-2.43s-2.43-1.15-3.34-.88c-3.63,1.06-7.34,2-10.91,3.2-2.12.73-5.44,2.66-4.12,5.4.93,1.92,4.8,1,5.62-.61l.7-1.39c1.33-2.67-4.49-2.26-5.45-.33Z" transform="translate(-1.99)"/>
  </symbol>

  <symbol id="computer" viewBox="0 0 519.31 425.75">
    <title>computer</title>
    <path d="M6.51,363.14a653,653,0,0,0,48.9-83.9c.68-1.41-4.93-.87-5.77.83A647.05,647.05,0,0,1,1.17,363.22c-1.35,2,4.38,1.32,5.34-.08Z"/>
    <path d="M55.19,275.56l2.38-122.71L58.76,92l.58-29.93c.18-9.19-.11-18.55,1.16-27.68,1.09-7.85,3.64-16.21,10.1-21.33,7-5.58,16.58-6,25.15-6.39,20.57-1,41.15-1.79,61.74-2.4q60.76-1.8,121.56-1.42,69.44.44,138.82,3.73c1.5.07,6.68-2.6,3.66-2.74Q293.29-2.23,164.86,1.34q-32.37.91-64.73,2.45c-13.94.67-30.55,1.77-39.34,14.33-9.33,13.33-7,33.18-7.31,48.51l-1.26,64.84L49.4,277.11c0,1.32,5.76.41,5.8-1.55Z"/>
    <path d="M467.8,271.5,467,143.35l-.38-63.57L466.47,48c-.06-9.79.52-19.82-.35-29.58-.67-7.49-3.72-14.4-11.88-15.52-4.75-.65-9.8,0-14.57.26L421.89,4c-2,.09-6.2,3.17-2.33,3,9.47-.43,19.09-1.4,28.57-1.27,9.91.13,12.07,8.71,12.36,17,.7,19.84.27,39.78.39,59.63l.72,121.19L462,273c0,1.54,5.81.52,5.8-1.55Z"/>
    <path d="M.41,362.64c-1.43,8.66,1.13,17.82,3.27,26.2,2,7.71,4.62,15.41,9.27,21.94,9.44,13.27,24.9,15.52,40.13,14.87,20.72-.88,41.27-1.58,62-1.54q32.38.05,64.75,0,129.51-.23,259-2.21c12-.18,24.12-.08,36.14-.64,8.47-.39,17.21-1.93,24.12-7.17,6.73-5.1,10.91-12.85,13.5-20.74C516,383,515.26,372,519.18,361.81c.49-1.28-5.12-.67-5.74.94-3.14,8.13-3.07,16.66-4.82,25.08-1.68,8.08-5,16.5-10.59,22.67-7.62,8.36-18.37,8.17-28.85,8.34l-29.88.48q-60.26.91-120.53,1.45t-120.54.69c-39.86.1-79.87-1-119.7.29-18.22.6-41.24,6.18-55.86-8-6.15-6-9.61-14.08-12-22.17-2.72-9.17-6.09-20.33-4.51-29.88.27-1.62-5.48-.62-5.74.94Z"/>
    <path d="M461.71,272.56c4.8,16.13,17,28,26,41.8,10.09,15.37,17.56,32.24,25.66,48.7,1,2.09,6.7.27,5.8-1.55-7.71-15.65-14.86-31.65-24.15-46.45-9.19-14.63-22.53-27.13-27.56-44-.64-2.14-6.43-.56-5.8,1.55Z"/>
    <path d="M73.83,272.56c23.57,1.53,47,.78,70.51-.4,23.89-1.2,47.78-.57,71.68.07q71.87,1.95,143.77,1.69,40.67-.15,81.33-1c2.3,0,6.09-3.59,2.2-3.51q-71.9,1.51-143.81.83-36.2-.35-72.4-1.27c-23.52-.6-47.06-1.51-70.59-.74-26.92.89-53.53,2.59-80.48.84-2.36-.15-6.11,3.25-2.2,3.51Z"/>
    <path d="M91.47,23.7c-3.69-3.29-9.35-2.73-13.25,0-5.8,4-6.19,11.68-6.77,18.07-1.69,18.72-2.62,37.5-3,56.29-.85,37.25.58,74.44,1.05,111.67.26,20.5,0,41,.43,61.5l5.83-1c-.26-.72-.46-1.43-.72-2.15-1-2.64-6.73-1-5.8,1.55.26.72.46,1.43.72,2.15.83,2.31,5.89,1.48,5.83-1-.46-20.18-.17-40.36-.41-60.54-.25-21-1-42.09-1.24-63.14s-.19-42.23.59-63.33q.58-15.81,1.74-31.6c.38-5.12.71-10.28,1.33-15.38C78.22,33,80.83,21.55,87,27.06c1.94,1.72,7-1.13,4.46-3.36Z"/>
    <path d="M88.35,24.35c99.66,1.11,199.36,3,299,1.9q11-.13,21.94-.31c6-.1,15.24-2,20.07,2.09,4,3.45,8.07,7.1,10.09,12.13,1.87,4.66,2.39,9.77,3.07,14.71.19,1.34,6,.11,5.8-1.55-1.23-8.8-2.43-17.44-9.47-23.6-3-2.63-5.31-5.57-9.4-6.31-5-.92-10.64-.16-15.71-.07Q374.87,24,336,24c-52.27,0-104.54-.64-156.8-1.22l-87.11-1c-1.16,0-3.28.13-4.1,1.1-.56.66-1.06,1.44.39,1.46Z"/>
    <path d="M442.54,54.87c-3.69,73-5.07,146-3.39,219,0,1.09,5.84.18,5.8-1.55-1.68-73-.3-146.1,3.39-219,0-1-5.71-.24-5.8,1.55Z"/>
    <path d="M67.3,285.08q73.36-2.06,146.75-1.35c49.48.49,98.88,2.61,148.34,3.83,27.41.68,54.84.77,82.22-.71,1.76-.1,6.25-2.9,2.41-2.69-49.54,2.67-99.1.09-148.63-1.44q-72.67-2.25-145.4-1.78-41.65.28-83.29,1.45c-1.78,0-6.26,2.8-2.41,2.69Z"/>
    <path d="M63.63,289.39A569.93,569.93,0,0,0,35.14,364c-.37,1.23,1.9,1.09,2.45,1,29-2.33,58.09-3.54,87.18-4.32,28.25-.76,56.59-1.8,84.84-.77,27.18,1,54.18,1.94,81.39,1.58q42.58-.55,85.17-.7,48.55-.09,97.09.83c2,0,6.21-2.93,2.33-3-57.77-1.18-115.55-1-173.32-.25-27.62.34-55.08.22-82.67-1.14-28.51-1.4-57.08-.44-85.59.26-31.88.79-63.76,2-95.56,4.6l2.45,1a569.93,569.93,0,0,1,28.49-74.57c.7-1.51-5-.94-5.77.81Z"/>
    <path d="M447.25,286.3c5.08-5.32,12.1,14.34,13.18,16.71,3,6.58,6,13.14,8.91,19.74s5.7,13.14,8.08,19.89c1.36,3.87,2.19,6.76,1.81,10.93-.1,1.09-.45,2.28-.48,3.34a4.82,4.82,0,0,1-.83,1.8q1.94.74,1.56-.42c-.34-1.9-6.17-.51-5.8,1.55.89,4.92,8.88.38,10.18-2,2-3.69,1.72-9.35.55-13.2a182.24,182.24,0,0,0-7.4-19.14c-5.14-11.9-10.25-24-16-35.58-1.77-3.54-4.08-7.13-8.25-7.92a11.42,11.42,0,0,0-10.1,3.45c-2.31,2.42,3.34,2.23,4.63.88Z"/>
    <path d="M31.53,371.76l366,2.39,102.86.67c1.79,0,6.27-2.64,2.42-2.67l-365.48-2.38L34,369.09c-1.79,0-6.27,2.64-2.42,2.67Z"/>
    <path d="M43.49,370.48a28.7,28.7,0,0,0-15.85,1.3C22.25,374,22.73,379.2,24.46,384c1.46,4,3,8,4.54,12.06,1.29,3.45,2.26,7.66,4.62,10.6,4.75,5.89,14.94,3.17,21.32,2.71,39.86-2.88,79.56-3.19,119.5-2.86,80.81.66,161.63,1.1,242.43,2.13,11.06.14,22.12.42,33.18.45,9.45,0,19-.47,28.1-3.34,14.26-4.51,27.84-16.4,26.74-32.55-.11-1.65-5.94-.5-5.8,1.55,1.16,17-14.45,27.78-29.51,30.25-16.36,2.69-33.88.81-50.39.6q-52.76-.68-105.52-1l-104.93-.85c-34.53-.28-69.12-1.12-103.65-.08-19.24.58-38.37,2.49-57.58,3.4-6.53.31-8.91-2.41-11.08-8.15-1.65-4.38-3.26-8.79-4.92-13.16-1.06-2.77-3.5-7.18-2.43-10.23,1.21-3.48,7.91-2.67,10.8-2.09,1.68.34,6.78-2.3,3.61-2.94Z"/>
    <path d="M234.14,100.92q-16.58,19.25-31.87,39.55c-.23.31-.37.72,0,1q19.18,17.69,37.59,36.19c1.26,1.27,6.71-.85,5.41-2.15q-8.86-8.9-17.9-17.63-4.87-4.7-9.79-9.33c-2.23-2.1-8.3-5.95-8.64-8.81-.32-2.59,5-7.67,6.71-9.86q3.76-4.82,7.6-9.59,8-9.89,16.27-19.51c1.45-1.69-4.24-1.16-5.33.11Z"/>
    <path d="M281.58,175.31q16.82-19,32.36-39.15a.72.72,0,0,0,0-1q-19-17.93-37.14-36.65c-1.24-1.28-6.7.82-5.41,2.15q8.75,9,17.68,17.85,4.81,4.76,9.68,9.46c2.2,2.13,8.22,6.05,8.53,8.91.28,2.59-5.1,7.6-6.84,9.77q-3.82,4.78-7.72,9.49-8.09,9.79-16.51,19.3c-1.46,1.66,4.23,1.15,5.33-.11Z"/>
    <path d="M50.84,323.93l325.81,1.25,92.36.36c3.41,0,4.36-4.51.44-4.52l-325.74-1.25-92.43-.36c-3.41,0-4.36,4.51-.44,4.52Z"/>
    <path d="M251.92,285.56a584.52,584.52,0,0,1-13.57,71.24c-.27,1,5.35.32,5.7-1.07A588.52,588.52,0,0,0,257.72,284c.07-.55-5.58-.12-5.8,1.55Z"/>
    <path d="M115.17,288.79l.5-.16c.7-.23,2.5-.89,2.48-1.92a2.13,2.13,0,0,0-1.19-2.29c-1.06-.76-3.18-.14-4.12.49-4.1,2.78-4.26,10-5.37,14.48q-2.44,9.89-4.75,19.81Q98,339.52,93.8,360c-.49,2.37,5.38,1.49,5.82-.65q3.81-18.53,8-37,2.07-9,4.24-17.94,1.14-4.71,2.32-9.42c.46-1.84.76-7.07,2.28-8.1l-4.12.49h0l2.48-1.92-.5.16c-3.4,1.12-2.64,4.34.85,3.18Z"/>
    <path d="M171.51,287.13a473.58,473.58,0,0,1-7.33,69.78c-.25,1.38,5.46.45,5.72-1a477.35,477.35,0,0,0,7.4-70.33c0-.93-5.74-.17-5.8,1.55Z"/>
    <path d="M314.2,287q-5.29,35.75-8.6,71.74c-.05.56,5.65.06,5.8-1.55q3.31-36,8.6-71.74c.07-.46-5.55-.1-5.8,1.55Z"/>
    <path d="M375.06,288.16a375.59,375.59,0,0,0-4.71,67.52c.06,3.06,4.76,2.38,5.74.23l1.79-3.92c1.42-3.11-4.43-3.34-5.58-.82l-1.79,3.92,5.74.23A375.59,375.59,0,0,1,381,287.8c.5-3.07-5.44-2.43-5.89.36Z"/>
    <path d="M425.46,292q1,32.56-.54,65.12c0,1.05,5.71.29,5.8-1.55q1.54-32.54.54-65.12c0-1.18-5.85-.22-5.8,1.55Z"/>
  </symbol>

  <symbol id="camera" viewBox="0 0 477.55 470.57">
    <title>camera</title>
    <path d="M7.43,182.84c0-18.77.38-38.22,3.81-56.71.52-2.79.94-7.29,2.88-9.57s6.69-2.43,9.56-2.69c4-.36,8-.36,12-.68,19.84-1.57,40.12-.73,60-.94,82.56-.86,165,.6,247.58,1.53,23.34.26,46.69.54,70,1q17.24.35,34.48.87c6,.18,12,.33,17.36,3.25,4.34,2.35,5.35,6,5.54,10.7,0,1.27,5.87.27,5.8-1.55-.34-8.64-5.41-12-13.39-14-4.46-1.1-9-1-13.59-1.1q-8.87-.26-17.75-.48c-21.49-.52-43-.85-64.46-1.12-44.36-.55-88.71-1.4-133.06-1.94-44-.54-88.1-.33-132.15.12-21.47.22-43.26-.5-64.68,1-8.6.61-26-1.22-30,8.89-4.12,10.44-4.07,23.28-4.75,34.33-.62,10.17-1,20.38-1,30.57,0,1.21,5.79.31,5.8-1.55Z"/>
    <path d="M1.62,181.92A2113.91,2113.91,0,0,0,4.43,402.47c1.33,19.84,3.59,39.67,5.63,59.45.23,2.26,6.05.92,5.8-1.55C12.2,425,9.18,389.67,7.66,354.11Q5.29,298.63,5.94,243.06q.33-30.88,1.51-61.74c.1-2.69-5.75-1.65-5.83.59Z"/>
    <path d="M11.85,463.63c2.69.74,4.48,3,7.18,3.89a47.52,47.52,0,0,0,9.69,2c7.21.81,14.33.06,21.53-.39,16.91-1.06,34.17-.1,51.11-.1,32.43,0,64.86.91,97.29.93s64.84-.17,97.26-.22q24.81,0,49.62.09c7.89,0,15.94.62,23.82.2,7.57-.4,15-1.13,22.63-1.18,17.84-.13,35.71,1.06,53.53-.29,6.64-.5,12.8-1.49,18.81-4.51,5.08-2.55,10.38-5.36,12.91-10.63.65-1.36-5-.83-5.76.86-2.57,5.36-10.53,9.16-16.15,10.52-7.87,1.89-16.75,1.5-24.82,1.55-14.56.1-29.13-.7-43.69-.22-7,.23-14,1-21,1q-11.91-.12-23.82-.17-22.83-.11-45.65-.05c-60.21.1-120.43.66-180.63-.54-17.31-.35-34.63-.17-51.94-.17-8.25,0-16.43.93-24.67.89a51,51,0,0,1-13.51-1.59c-3.45-1-5.71-3.52-9-4.43-1.56-.43-6.74,2-4.68,2.56Z"/>
    <path d="M470.64,129.4c.14,20.59-2.14,41.07-1.9,61.68l.75,63.12L471,383.82c.29,24.3.81,48.62.62,72.92,0,.84,5.78.07,5.8-1.55.34-43.57-.79-87.18-1.31-130.74l-1.51-127.33c-.13-11.35-.38-22.68.24-34,.64-11.75,1.65-23.47,1.57-35.25,0-.87-5.81-.06-5.8,1.55Z"/>
    <path d="M4.1,206.43C27.78,203.81,52,204,75.77,204.5q35.29.71,70.45,4.17c2.73.27,6-3.66,2.05-4q-36.11-3.52-72.41-4.21c-23.65-.42-47.66-.65-71.19,2-3.15.35-4.53,4.49-.57,4Z"/>
    <path d="M322.27,200.72,464,203.45c2.21,0,6.15-3.23,2.25-3.3l-141.73-2.73c-2.21,0-6.15,3.23-2.25,3.3Z"/>
    <path d="M123.55,293.1c.28-48.88,29.94-94.49,76.06-112,46.8-17.8,100.68-2.09,131.84,36.7,31,38.63,35.17,94,10.29,136.89s-75.12,65.9-123.81,56c-48-9.82-85.26-50.49-92.89-98.58a125.11,125.11,0,0,1-1.49-18.93c0-3-5.89-2.16-5.87.44.29,51.36,32.23,98.73,80.84,116.4,48.37,17.58,104,2.1,136.76-37.4,33.29-40.09,37.87-98.51,11.21-143.3-26.4-44.36-78.89-67.44-129.44-57.43-50,9.89-89.5,51.45-97.74,101.57a128.6,128.6,0,0,0-1.64,20.16C117.66,296.57,123.53,295.71,123.55,293.1Z"/>
    <path d="M157.26,292.51c.28-34,21.45-66.18,53.91-77.7s70,1.24,90.7,28.28c20.43,26.64,22.85,64.05,5.87,93-17.8,30.39-53.15,46-87.49,37.43-36.93-9.2-62.68-43.3-63-81.05,0-.8-5.81,0-5.8,1.55.3,36.38,24.06,69.15,58.86,80.2,33.07,10.5,71.29-.32,94-26.5,24.25-27.95,27.31-69.83,7.1-100.9-19.71-30.3-56.74-44.16-91.71-36.23-39.16,8.89-67.93,43-68.26,83.43C151.46,294.83,157.25,294.08,157.26,292.51Z"/>
    <path d="M59.23,108.64,58.1,93.39c-.23-3.15-2.49-13.25.09-15.11,1.22-.87,6.28-.18,7.84-.22l7.84-.22,15.68-.45,15.68-.45c5.6-.16,9.8-.15,12,5.65,3.26,8.61,2.42,19.49,2.63,28.55.07,3,5.93,2.18,5.87-.43-.16-6.71-.48-13.42-1-20.12-.38-4.55-.87-9.52-3.56-13.38-2.39-3.42-5.94-4.62-10-4.67-7-.1-14.08.39-21.1.59l-21.55.62c-4.41.13-11.9-1.18-15.51,2.17-3.11,2.89-1.45,8.72-1.18,12.37l1.62,21.92c.2,2.64,6,1.26,5.8-1.55Z"/>
    <path d="M168.73,105.91l5.39-31.22,2.69-15.61,1.35-7.81c.31-1.81.22-5.42,1.23-7,2-3.07,11.88-2.28,15.27-2.54q6.84-.53,13.69-.9Q224.62,40,240.91,40q15.68,0,31.34.9,6.85.38,13.69.92c5.12.4,12.8-.55,14.78,5.19,1.55,4.51,1.82,9.8,2.64,14.5l2.72,15.66,5.43,31.32c.37,2.16,6.2.75,5.8-1.55l-9.67-55.79c-1.08-6.25-2.12-11-9.07-11.94-9.25-1.22-18.72-1.59-28-2q-26.8-1.3-53.63-.18-14.2.58-28.35,1.85c-4.92.44-12.7-.12-14.8,5.58-1.61,4.37-1.79,9.73-2.58,14.31l-2.69,15.61-5.56,32.2c-.42,2.42,5.45,1.49,5.82-.65Z"/>
    <path d="M326,68.32,342.81,94c1.43,2.18,7,0,5.31-2.55L331.29,65.77c-1.43-2.18-7,0-5.31,2.55Z"/>
    <path d="M322.19,25.65A357.22,357.22,0,0,0,354.54,1.91c2.6-2.14-3.13-2.43-4.7-1.13a345.45,345.45,0,0,1-31.31,22.94c-3.28,2.14,1.67,3.23,3.66,1.94Z"/>
    <path d="M326.05,46.74a114,114,0,0,1,30-1.25c2.25.2,6.14-3,2.25-3.32a119.94,119.94,0,0,0-31.47,1.32c-2.76.48-4.78,3.94-.78,3.24Z"/>
    <path d="M424.31,138.11a7.49,7.49,0,0,0-9.86,4c-1.31,3.63-.61,8.92-.76,12.78-.18,4.52-.39,9-.53,13.57-.15,4.8-.34,12.12,5.29,14,4.65,1.52,8.33-1.77,9.77-5.87,2.42-6.9,1.33-15.42,1.25-22.59,0-3.77,1.94-15.05-3.63-15.78-6.49-.84-6.49,5.87-6.94,10.38q-1.38,13.7-2.26,27.43c-.16,2.36,5.09.42,5.77-.83a47.86,47.86,0,0,0,4.52-11.78l-5.77.83-2.62,11.64c-.42,1.87,5.35,1,5.77-.83l1.79-7.71-5.77.83-1.12,10c-.23,2,5.54.91,5.77-.83l3.17-23.89c.27-2-5.47-.91-5.77.83L420.22,167l5.78-1.19.1-4.35c0-1.46-5.75-.51-5.8,1.55l-.1,4.35c0,1.55,5.52.36,5.78-1.19l2.15-12.74-5.77.83L419.2,178.2l5.77-.83,1.12-10c.23-2.06-5.38-.85-5.77.83l-1.79,7.71,5.77-.83,2.62-11.64c.42-1.88-5.34-.94-5.77.83A47.86,47.86,0,0,1,416.63,176l5.77-.83q.61-9.32,1.43-18.62.39-4.41.83-8.81c.2-2-.28-6.46,1.41-7.74l-3.46,1.14c1,0,3.05,37.6-.89,38-1.87.18-2.73-6.33-2.81-7.48a113.07,113.07,0,0,1,.3-11.75l.38-9.69c.05-1.4,1.14-9,0-9.48,1.53.71,6.85-1.6,4.66-2.61Z"/>
    <path d="M126.63,349.37c-6.81,8.41-9.58,18.51-10.77,29.12-1,8.9-.48,18.92,5.39,26.18,13.18,16.31,36.31,8.57,50.32-1.88,3.14-2.34-1.48-4.73-3.92-2.91-6.78,5.05-14.59,9.47-23.27,9.69-8.48.21-16.68-3.81-20.43-11.63-3.27-6.83-2.95-14.79-1.91-22.1,1.29-9.07,3.63-17.31,9.49-24.54,2.34-2.89-3.12-4.14-4.91-1.93Z"/>
    <path d="M236.5,241.23c6.27-5.66,19.08-.13,25.9,2.52,7.25,2.82,14.38,6.76,18.86,13.34,8.79,12.89,11,33.83,3.63,47.64-.34.65,4.94.38,5.71-1.06,5-9.44,5.23-20.18,3.09-30.48s-6-19.72-14.87-25.8c-7.53-5.18-17.43-8.58-26.39-10.21-7.3-1.33-15.44-.58-21.16,4.57-1.12,1,4.2.41,5.23-.51Z"/>
    <path d="M229.19,338.07c.5,15.68,27.95,5.35,35,1.26a35.59,35.59,0,0,0,8.13-6.34c1.68-1.79,5.74-5.93,5.45-8.53-.31-2.79-6.54-1.18-6.79,1-.06.56,5.61.1,5.8-1.55l0-.37-1.25,1.07.42-.18-4.38.66c1.86.73-4.2,8.13-5,8.93a32.44,32.44,0,0,1-9.46,6.64c-6.39,3-21.83,7.15-22.19-4.16,0-.82-5.84,0-5.8,1.55Z"/>
    <path d="M415.2,237.86c-.55,32-1.19,64-1.6,96q-.31,23.86-.21,47.73c.06,14.4-1.36,30.2,4.11,43.84.78,2,4.23,1.53,5.31,0,8.68-12,5.75-27.39,5.36-41.2-.51-18,.1-36,.91-54,.79-17.67,1.77-35.34,2.06-53,.14-8.75.18-17.52-.19-26.26-.31-7.29-1.17-14.23-4.68-20.74-.81-1.51-3.58-.67-4.56,0a10.09,10.09,0,0,0-4.84,9c.11,3,6,2,5.86-.47s.57-4.48,2.8-6h-4.56c4,7.47,4.11,16,4.29,24.33.17,7.86.14,15.71,0,23.57-.34,16.71-1.26,33.4-2,50.09-.73,16.35-1.31,32.72-1,49.09.24,13.68,4.45,32.08-4.21,44l5.31,0c-5.57-13.9-4-30.07-4-44.75q-.09-23.86.24-47.73c.42-31.34,1-62.67,1.58-94,.05-3-5.82-2.05-5.86.47Z"/>
    <path d="M6.51,202.46c12.08-2.7,24.82-1.58,37.1-1.29q17.9.43,35.81.94,35.31,1,70.6,2.32c1.28,0,6.6-2.31,3.75-2.41q-38.28-1.42-76.57-2.49-18.9-.52-37.8-1c-11.25-.26-22.35-.44-33.39,2-3.41.76-2.93,2.62.5,1.86Z"/>
    <path d="M12.14,204.21a645.84,645.84,0,0,1,71.45,1.43c22.64,1.6,45.31,3.34,68,1.75,3.09-.22,4.62-4.06.64-3.78-23.51,1.65-47-.44-70.43-2a635.35,635.35,0,0,0-69-1.14c-3.11.13-4.62,3.94-.64,3.78Z"/>
    <path d="M145.63,204.77c2.72,2.81,7.92,1.24,10.61-.79.2-.15.44-.6.11-.78-2.88-1.54-6.59-.89-9.36.61-.2.11-1.5.71-1.23,1.17,1,1.68,2.69,2,4.54,1.82,1.12-.14,3.15-.38,3.88-1.39s-.63-1-1.37-1l-3.15.11c-.53,0-4.63.85-4.15,1.95.91,2.08,4,1.34,5.68.73-.08,0,1.81-.82.94-.44.62-.27,1.27-.48,1.9-.72l4.42-1.69c.14-.06,2.7-1.25,1.73-1.66a6.11,6.11,0,0,0-5.86,1.27,2.75,2.75,0,0,0-.62,1.4,4.88,4.88,0,0,0-.18.84c0,.71-.8.86.68.06l3.55-.8.53.13a5.44,5.44,0,0,0-3.73.32c-.22.08-2.65,1.27-1.73,1.66a6.11,6.11,0,0,0,5.86-1.27,2.75,2.75,0,0,0,.62-1.4,4.88,4.88,0,0,0,.18-.84c0-.71.8-.86-.68-.06l-3.55.8-.53-.13,1.73-1.66c-2.75,1-6,1.85-8.48,3.42l2-.81-.35.08,2.12-.28a.72.72,0,0,1-.41-.51l-4.15,1.95,3.15-.11,2.51-2.35c-.5.06-1.07-.72-1.25-1l-1.23,1.17q-1,.12-.22.25a2.12,2.12,0,0,1,.78.34l.11-.78,1.63-.61a1.93,1.93,0,0,1-.68-.29,3.83,3.83,0,0,1-.85-.71c-1-1.07-6.36,1-5.46,2Z"/>
    <path d="M326.62,198.36l-.32-.13c-1.45-.58-4.44.28-5.23,1.68l-.22.39a.47.47,0,0,0,.16.58c1.19,1,2.92.69,4.37.71l12.53.14L362,202c1.79,0,6.27-2.62,2.42-2.66l-19.27-.22-8.67-.1c-.9,0-9.29-.69-9.66,0l-5.23,1.68.32.13c1.42.57,6.68-1.65,4.71-2.44Z"/>
    <path d="M323.45,202.75c22.9,3.47,46,2.85,69.06,1.91,24.58-1,49-1.47,73.54.62,2.37.2,6.1-3.16,2.2-3.5-23.07-2-46.07-1.77-69.18-.81-24,1-48.23,2.08-72.12-1.54-2-.3-6.83,2.81-3.5,3.32Z"/>
    <path d="M146.53,206.14a7.3,7.3,0,0,0,3.43,1.77,4.83,4.83,0,0,0,3.58-.68c.57-.38,1.64-1.55.83-2.23-2.58-2.17-7.31-1.28-9,1.65a1.15,1.15,0,0,0,.45,1.68,13.45,13.45,0,0,0,6.4,1.13c1.14-.06,3-.82,3.25-2.12s-1.66-1.55-2.57-1.5c.37,0-.49,0-.48,0l-.56-.06a6.48,6.48,0,0,1-1.48-.45l.45,1.68c.23-.39-.06,0-.19.11a2.06,2.06,0,0,1-.82.32,3.49,3.49,0,0,1-.74,0l-.15-.08q.3.19.12,0l4.41-2.91a3,3,0,0,1-1.55-.7,3.67,3.67,0,0,0-3.88-.21c-.67.32-2.54,1.65-1.48,2.59Z"/>
    <path d="M176.73,398.19l-.64-1.64c-.32-.81-2.22-.36-2.76-.24a7.67,7.67,0,0,0-1.82.61c-.37.19-1.06.48-1.18.91l-.66,2.29c-.29,1,1.87.69,2.33.6a8.18,8.18,0,0,0,2.21-.69c.37-.19,1.06-.48,1.18-.91l.66-2.29-5.76,1.28.64,1.64c.14.36.72.41,1,.43a6.65,6.65,0,0,0,2.12-.28,6.51,6.51,0,0,0,2-.82c.23-.16.81-.52.67-.89Z"/>
    <path d="M11.87,459.85c9.67,8.84,23.31,6.92,35.39,6.74,19-.29,38.06.32,57.06.49l112.76,1c70.14.65,140.36.42,210.48,2.22,11.69.3,23.83.75,35.33-1.77,6.93-1.52,15.76-5.17,14.54-13.72-.34-2.4-6.16-1-5.8,1.55,1.14,8-10.52,9-16,9.53-10.37,1.09-20.86.69-31.26.38-31.12-.93-62.3-.75-93.43-1l-207.56-1.91-58.88-.54c-8.06-.07-16.08-.08-24.13.13s-16.88.2-23.17-5.55c-1.76-1.61-7.24.71-5.33,2.45Z"/>
    <path d="M15.36,461.73q-2.33-.67.06-1.39,2.06-.53.75-1c-1.67-.94-6.54.33-4.9,2.91,2.66,4.17,8.2,4.86,12.48,3.06,1.08-.46,2.17-1.77,1.39-2.92s-2.83-.86-3.93-.4c-1.78.75-3.74-.88-4.62-2.26l-4.9,2.91c2.36,1.33,5.83,1.85,7.7-.65a2.65,2.65,0,0,0-2-4.4c-1.35-.1-3.17.41-3.78,1.76s.51,2.28,1.75,2.37Z"/>
    <path d="M10.66,455.18A10.84,10.84,0,0,0,13,463.69c1.18,1.48,4.69.65,5.41-1,1.08-2.46.92-5.25-2.23-5.63-2.23-.27-5.36,1-5.52,3.55-.18,2.88,2.48,5.44,5,6.36,3.12,1.15,6.52.77,9.72.26,1.15-.18,3.09-.78,3.23-2.21s-1.55-1.83-2.61-1.66c-2,.31-4.23.81-6.21.22a4.32,4.32,0,0,1-2.53-1.86,4.55,4.55,0,0,1-.62-1.48q-3.39-.58-3.67,2l5.41-1a8.31,8.31,0,0,1-1.81-6.6c.38-2.7-5.51-1.83-5.84.55Z"/>
    <path d="M9.22,243.06q22.43-1.23,44.88-.44c1.32,0,6.61-2.37,3.73-2.47q-23.07-.81-46.13.45c-1.63.09-6.29,2.67-2.47,2.46Z"/>
    <path d="M8.65,265l45.07-1.87-2.1-2.74L49,263.15c-2.47,2.59,3.12,3.27,4.8,1.51l2.66-2.79c1.6-1.68-.57-2.8-2.1-2.74L9.24,261c-3.18.13-4.55,4.14-.59,4Z"/>
    <path d="M8.61,287.82H40.43c1.15,0,6.52-2.22,3.8-2.22H12.41c-1.15,0-6.52,2.22-3.8,2.22Z"/>
    <path d="M4.82,315.71a253.92,253.92,0,0,1,37.29.65c1.73.16,6.76-2.74,3.58-3a262.48,262.48,0,0,0-38.58-.76c-2,.11-6.16,3.36-2.29,3.14Z"/>
    <path d="M5.66,341.58l33.29-2.21c3.15-.21,4.57-4.21.59-3.94L6.25,337.63c-3.15.21-4.57,4.21-.59,3.94Z"/>
    <path d="M4.77,366A76.32,76.32,0,0,0,38,369.47c1.5-.17,6.28-2.73,2.52-2.31a71,71,0,0,1-31-3.39c-1.3-.44-6.43,1.67-4.77,2.23Z"/>
    <path d="M9.33,406.53l25.73-1.84c1.84-.13,6.21-3.11,2.38-2.83L11.71,403.7c-1.84.13-6.21,3.11-2.38,2.83Z"/>
    <path d="M172.79,45.62a321.92,321.92,0,0,1-8.82,63.2c-.41,1.71,5.34.84,5.76-.87a325.26,325.26,0,0,0,8.86-63.88c.05-1.31-5.72-.44-5.8,1.55Z"/>
    <path d="M176.85,47.62c19.9-1.76,39.79-3.82,59.72-5.15,19.56-1.3,39.23-1.24,58.36,3.52,1.72.43,6.78-2.19,3.59-3-19.52-4.86-39.68-4.95-59.65-3.63-20.42,1.35-40.8,3.44-61.18,5.25-2.74.24-4.89,3.34-.85,3Z"/>
    <path d="M181.58,45.53l-.32.42,5-1.34.23-.55-3.14,1.37c9-1.31,19-.38,28.1-.44q13.29-.09,26.58,0,27.74.1,55.47.81c1.16,0,3.29-.12,4.1-1.1.56-.68,1-1.48-.41-1.52q-31.31-.79-62.64-.84-15.75,0-31.5.16c-5.24.06-10.52-.05-15.75.22-2.81.15-4.84.52-7,2.4a.72.72,0,0,0-.25.65c.33,1,.5,1,1.45,1.32a5.59,5.59,0,0,0,5-1.34l.32-.42c1.28-1.64-4.34-1-5.29.26Z"/>
    <path d="M296.4,45.63a13.57,13.57,0,0,1,6,11c.06,3.12,5.93,2.31,5.88-.4a17,17,0,0,0-7.47-14c-2.21-1.5-7.22,1.54-4.44,3.43Z"/>
    <path d="M52.66,79.07c-2,10.44.82,20.85,1,31.32,0,1.3,5.82.34,5.8-1.55-.16-10.24-3-20.48-1-30.68.32-1.69-5.44-.73-5.75.9Z"/>
    <path d="M54.62,82.35q29.54-3.17,59.23-4.5c1.7-.08,6.28-2.74,2.45-2.57q-29.68,1.33-59.23,4.5c-1.65.18-6.24,3-2.45,2.57Z"/>
    <path d="M58.94,81.28a16.84,16.84,0,0,1,9.63-2.66c1.35,0,3.19-.36,3.77-1.77a1.79,1.79,0,0,0-1.77-2.43A26.42,26.42,0,0,0,55.1,78.65a1.8,1.8,0,0,0-.31,3c1.2.92,3,.36,4.16-.35Z"/>
    <path d="M328.21,42.3l-4.09-.09-1.33,4,32.93-2.33c3.17-.22,4.56-4.26.58-4l-32.93,2.33c-2.35.17-5,3.9-1.33,4l4.09.09c2.65.06,6-3.9,2.07-4Z"/>
    <path d="M320,25.76A208,208,0,0,0,349.65,4.88c1.27-1.07-4.15-.57-5.26.38A202.13,202.13,0,0,1,315.58,25.5c-2.46,1.43,3.33.91,4.46.25Z"/>
  </symbol>

  <symbol id="phone" viewBox="0 0 233.07 413.18">
    <title>phone</title>
    <path d="M28.86,5,131.08,2.68c16.47-.37,33.13-1.26,49.54.59A105.33,105.33,0,0,1,204.87,8.7c6.42,2.34,13.23,5.63,16.91,11.68,4,6.64,2.77,14.9,2.64,22.33-.07,4-.09,8-.1,12,0,12.3,0,24.59.13,36.89.25,35.3.66,70.6,1.06,105.9q.63,55.79,1.19,111.58c.21,23.61.65,47.26.18,70.87,0,1.26-.06,2.52-.1,3.79,0,.67,5.74,0,5.8-1.55.82-21.3.18-42.72,0-64q-.44-55.24-1.15-110.48-.62-54.68-1.13-109.37c-.17-22,.09-44,.14-66,0-6.66-1.34-12.86-6.24-17.63s-11.37-7.18-17.62-9.16C192,.88,176.51,0,161.27,0,126.93,0,92.54,1.42,58.21,2.18l-25.56.57c-1.14,0-6.5,2.27-3.8,2.21Z"/>
    <path d="M43.19,413.18l112.73-.58c28.29-.14,64.17,2,77.1-29.29.64-1.56-5-.93-5.77.83-6.13,14.86-19.15,22.75-34.76,24.63-15.8,1.9-32.19.86-48.08.94l-98.88.51c-2,0-6.22,3-2.34,3Z"/>
    <path d="M28.36,3.43A36.69,36.69,0,0,0,4.56,34.94C4,42,3.76,49.14,3.51,56.23c-.94,26.65-1.39,53.32-1.83,80Q.85,187.59.44,239,0,285.49,0,332c0,11,0,21.91.16,32.87.07,6-.21,12.15.46,18.08.06.57.08,1.15.16,1.72.27,1.81,6.1.49,5.8-1.55-.65-4.43-.45-9.1-.53-13.57-.16-9.46-.21-18.93-.23-28.39-.08-29.16.07-58.31.29-87.47.46-62.23,1-124.49,2.82-186.7C9.54,45.79,5.93,15,30.6,5.62c3.79-1.44.32-3.16-2.24-2.19Z"/>
    <path d="M1.78,382.7A44.42,44.42,0,0,0,42.6,412.39c2.39.06,6.09-3.49,2.17-3.58C27.94,408.39,13,397,7.57,381.15c-.76-2.22-6.53-.59-5.8,1.55Z"/>
    <path d="M20.92,48.17C19.75,40,23.1,32.44,28.8,26.64c6.73-6.84,14.85-9.26,24.27-9.5,17.66-.46,35.36-1.12,53-1.31q28.24-.31,56.44,1.61C180,18.63,199.4,19,207.44,37.37c3.46,7.92,3.39,15.47,3.52,23.82.18,11.42.25,22.85.32,34.27q.32,53,.28,106.09,0,56.25-.15,112.5c-.08,21.44.2,42.95-.52,64.38,0,.62,0,1.25-.09,1.87-.17,2.21,5.64,1.07,5.78-.78,1.51-19.14.51-38.76.59-57.93q.24-57.71.18-115.42,0-55.77-.28-111.53c-.07-11.88-.14-23.77-.33-35.65-.16-10.07-.45-19-6.12-28.11-8.75-14-24.94-15-39.88-16.16q-29.64-2.28-59.39-2.07c-18.66.13-37.35.89-56,1.34-14,.34-27.27,5-35.53,16.92a26.06,26.06,0,0,0-4.71,18.79c.26,1.81,6.09.5,5.8-1.55Z"/>
    <path d="M14.9,47.52c-1,22.51-.14,45-.18,67.55q-.06,30-.14,60.07-.2,78.47-.51,156.94c-.07,14.32.16,28.7-.32,43-.11,3.17,5.8,2.46,5.89-.36,1.22-36,.46-72.19.57-108.22q.24-73.31.39-146.62c0-24.25-.9-48.52.19-72.75.14-3.17-5.77-2.46-5.89.36Z"/>
    <path d="M14.06,375C20,405.65,60.88,401.5,83.69,401.21c34.29-.45,68.62-.51,102.91-1.35,13.95-.35,27.61-5.69,29.91-21.08.45-3-5.48-2.34-5.89.39-3,20.46-28.65,16.34-43.71,16.54l-55.17.72c-18.42.24-37.1,1.38-55.5.49-15.19-.74-33.09-6.44-36.38-23.44-.54-2.8-6.35-1.31-5.8,1.55Z"/>
    <path d="M91.4,33.46c2-7.31,14.48-5,20.39-4.92s14-1.13,19.1,2.55c1.45,1,6.62-1.25,5.43-2.11-3.23-2.32-6.83-2.83-10.73-3-6.46-.24-12.94-.27-19.41-.4-7.22-.14-18.19,0-20.54,8.73-.44,1.62,5.3.8,5.75-.89Z"/>
    <path d="M86,34.73c2.92,3.69,7.24,4.9,11.76,5.35,7.22.72,14.66.36,21.91.47,4.87.08,10.84,1.07,15.4-1.23,5-2.54,3-5.34,1.61-9.52-.74-2.26-6.51-.65-5.8,1.55.57,1.75,2.81,4.22-.22,5.68-1.31.63-4.61-.06-6-.08l-12.25-.19c-6.61-.1-16.43,1.45-21.06-4.41-1.38-1.74-6.95.36-5.35,2.38Z"/>
    <path d="M31.5,51.89q42.43-.59,84.87-.67,21,0,41.94.05,10.48,0,21,.12c3.37,0,21.28-1.69,19.23,4.62-.52,1.59,5.2.86,5.76-.87,1.33-4.09-3.49-5.85-6.76-6.35-7-1.06-14.75-.23-21.84-.28q-23.47-.15-46.93-.14-47.43,0-94.86.68c-1.88,0-6.24,2.89-2.38,2.84Z"/>
    <path d="M34.64,51.27l-.5-.46a3.61,3.61,0,0,0-3.89-.25,5.41,5.41,0,0,0-3.36,5c-.53,5.51-.16,11.28-.24,16.82L26.22,103c-.13,9.25-.31,18.5-.36,27.76q-.12,21-.13,42.08Q25.6,235,25.62,297.18c0,12.34-.18,24.7.15,37,.07,2.75,5.89,1.66,5.83-.58-.77-29.06-.17-58.22-.14-87.28q0-55.3.21-110.6c0-4.84.05-9.68.12-14.53l.49-34.62.24-16.82.11-7.91c0-.74-.28-8.23.05-8.4l-3.89-.25.5.46c1.71,1.56,7.18-.73,5.34-2.41Z"/>
    <path d="M199,55.82l.34.1-.72-2.7c-1.8,2.44-.45,8.06-.35,10.94.24,6.93.37,13.86.5,20.78.4,22.08.62,44.17.81,66.25q.64,75,.59,150.1c0,13.2.65,26.69-.41,39.86-.23,2.9,5.66,2,5.86-.48.87-10.77.36-21.79.4-32.58q.1-33.27,0-66.53c-.16-49.53-.4-99.06-1.19-148.58-.14-8.76-.29-17.51-.55-26.26-.08-2.65-.16-5.29-.3-7.94-.05-1,0-2-.18-3s.21-1.68-.31-1c.74-1,.67-2.3-.72-2.7l-.34-.1c-2.4-.7-6.84,2.79-3.37,3.8Z"/>
    <path d="M27,332.26c-3,4.08-1.22,9,3.14,11.28,6,3.07,14.58,1.67,21.06,1.74,18.51.2,37,.42,55.53.55s37.2.17,55.8,0q13.95-.11,27.9-.38c4.53-.09,12.31.81,14.17-4.76,1.08-3.25-4.71-3.38-5.57-.78-.65,1.94-7.52,1.06-9.14,1.09l-11,.18q-11,.16-21.92.22-21.42.13-42.85,0T71.34,341l-21.58-.24c-2.86,0-23.35.85-17.85-6.66,2.2-3-3.23-4.14-4.89-1.87Z" />
    <path d="M101.46,370c.32-7.52,5.6-15.4,14.1-13.95,7.13,1.22,12.15,7.88,12.17,14.94,0,8-6.53,15.66-15.07,13.5-6.9-1.74-10.9-8-11.19-14.86-.07-1.63-5.88-.53-5.8,1.55,1,23.26,37.86,20.93,37.9-1.37,0-23.41-36.95-21.16-37.89,1C95.59,372.94,101.39,371.72,101.46,370Z"/>
    <path d="M71.46,174.7c22.08-22.61,72.86-34.73,89.87.15,1.63,3.35,10.17.69,8.69-2.33-19.78-40.55-80-26-105.68.23-3.67,3.76,4.77,4.35,7.11,1.95Z" />
    <path d="M92.79,186.91c2.46-3.42,7.41-4.43,11.27-5.34a40.56,40.56,0,0,1,13.56-1A30.35,30.35,0,0,1,137,190.27c1.56,1.7,9.69-1.38,8.17-3-8.14-8.91-20.28-11.5-31.93-10.39-9.44.9-23.12,3.26-29,11.52-1,1.37,3.18,1.08,3.53,1,1.79-.28,4-.94,5.07-2.47Z" />
    <path d="M112.56,208.34c.34-.4-.08,0-.23.15q-.89.46-.44.25t-.22.08a6,6,0,0,1-1.34.25q-.52,0-.18,0t-.38-.1l.48.14-.38-.17.21.13.2.14q-.41-.37-.17-.12c.12.07.38.61.11,0l3.61-3.9-4.45.85c-1.6.31-4.13,2-3.61,3.9.56,2.1,3.52,1.87,5.08,1.57l4.45-.85c1.3-.25,4.48-2.09,3.61-3.9-2.41-5-10.2-4.56-13.53-.69-1.23,1.43-.9,3.32,1,3.87a6.39,6.39,0,0,0,6.15-1.65Z" />
  </symbol>

  <symbol id="email" viewBox="0 0 441.4 423.91">
    <title>email</title>
    <path d="M79.94,18.35c.48-11.94,21.86-9.3,29.32-9.2,15.22.19,30.42,1,45.61,1.84,29.68,1.71,59.4,3.87,89.15,3.12a348.88,348.88,0,0,0,44.1-3.7c11.65-1.79,24.57-6.29,36.42-3.94,14,2.78,16.3,16.79,16,28.94-.37,14.83-1.24,29.66-1.87,44.47l-4.36,102.6c-.18,4.12,7.69,3.09,7.84-.54l4.28-100.62c.69-16.22,1.89-32.52,2-48.76C348.49,20.9,346,8.47,334.49,3c-10.51-5-23-2.61-34-.5A330.21,330.21,0,0,1,251.39,8c-33.28,1.35-66.52-1.33-99.72-3.17-18.06-1-36.27-2-54.37-1.58-9.66.25-24.72,3.57-25.2,15.6-.17,4.12,7.7,3.08,7.84-.54Z"/>
    <path d="M71.23,16.79c-3.66,4.16-3.45,10-4,15.25-.67,7.08-1.1,14.19-1.33,21.3-.44,14.06-.12,28.14.2,42.2.64,28,1.19,56.16-4,83.83-.63,3.36,7.21,2.19,7.77-.8,4.94-26.39,4.68-53.25,4.08-80-.29-13.11-.64-26.22-.44-39.34.1-6.73.35-13.46.83-20.18q.35-4.89.84-9.78c.32-3.18.06-8.23,2.31-10.78,3.11-3.53-4.34-4-6.32-1.71Z"/>
    <path d="M236.06,265.41a802.5,802.5,0,0,1,172-115.4l-5.47-1.4-1.17,190.74-.28,45.7L401.09,397c0,3.28.55,7.28-.39,10.47-1.7,5.77-13.33,7.2-18.47,8.29-24.24,5.14-49.41,3.42-74,2.24-11.22-.54-22.44-.39-33.66-.81-14.56-.54-29-1.15-43.56-.16-31.51,2.15-63.09.77-94.61-.51L42.75,412.7l-23.92-1c-3.42-.14-7.81.55-9.76-2.87C7.21,405.61,8,400.8,8,397.2c0-15.49,0-31,.11-46.48l.49-105.89c.08-17.83.11-35.66.25-53.49C9,174.72,9.63,158.07,14,142L7.1,144.37A1637.85,1637.85,0,0,1,172.37,269.18c2.24,1.93,9.5-1.13,7.14-3.15A1648.59,1648.59,0,0,0,13.18,140.38c-2-1.3-6.28.07-6.92,2.41-4.07,14.91-5,30.29-5.15,45.68-.21,16.4-.18,32.8-.25,49.2L.4,337.57c-.07,16.3-.18,32.6-.19,48.9,0,6.85-.57,14,.17,20.8.64,6,4.51,8.53,10.2,9,16.29,1.46,32.87,1.34,49.21,2l49.83,2c32.66,1.32,65.39,3.24,98.09,2.44,16-.39,32-1.95,48-1.44,13.64.43,27.29.6,40.92,1.06,24.44.83,48.92,3,73.3-.06A148.24,148.24,0,0,0,387.9,419c5.47-1.38,12.2-2.81,16.68-6.44,5.11-4.15,4.23-10.51,4.27-16.47l.16-25.83,1.37-222.53c0-2.61-3.9-2.18-5.47-1.4A816.51,816.51,0,0,0,229.77,263.79c-1.38,1.21-.58,2.52.82,3.08,1.72.68,4.18-.33,5.46-1.46Z"/>
    <path d="M12.62,408.58c42.22-44.9,97.14-74.49,144.33-113.46a360.35,360.35,0,0,0,33.16-30.84c2.54-2.7,5-5.63,8.19-7.62,5.09-3.21,9.28-.49,13.57,2.69,7.11,5.26,14,10.75,21,16.25,27.43,21.82,53.9,44.82,80.89,67.17C328.56,355,343.5,367,359.2,378.17c13.13,9.32,27.35,18.9,34.55,33.82,1.58,3.27,8.89.31,7.05-3.49-6.41-13.27-18.45-22.53-30.13-31-14.64-10.58-29-21.3-43-32.76-28.58-23.41-56.4-47.74-85.23-70.85q-10.72-8.59-21.64-16.92c-5.9-4.49-12.11-9.36-20-7.67-7,1.5-12,6.83-16.68,11.83q-8.4,9-17.49,17.24c-24,21.89-50.81,40.38-77.27,59.12C60,358.35,30.85,379.75,6.09,406.08c-3.35,3.57,4,5.18,6.53,2.5Z"/>
    <path d="M15.22,140.24c-.26-5.44,6-7.36,10-9.21l14.45-6.59,28.89-13.19c1.26-.58,2-1.33.89-2.22s-4.38.46-5.42.93L27.92,126.45c-6.37,2.91-20.86,6.69-20.43,15.87.07,1.58,7.84.26,7.73-2.07Z"/>
    <path d="M410.38,143.9c-3.61-4.52-8.49-7.47-13.26-10.63l-15.83-10.5-32.5-21.55c-2.2-1.46-9.17,1.66-7.19,3l32.5,21.55,15.83,10.5c4.76,3.16,9.65,6.1,13.26,10.63,1.58,2,9-.68,7.19-3Z"/>
    <path d="M15,142.53c0-4,5.89-3.18,8.67-3.18,4.52,0,9,0,13.56,0l27.11,0c1.64,0,4.38-.46,5.06-2.28.6-1.61-.53-2.91-2.27-2.92l-40.67-.06c-6.17,0-19.23.11-19.25,9.09,0,3.77,7.79,2.43,7.79-.72Z"/>
    <path d="M346.07,147.76c.81-1.64,9.11-1.1,11.05-1.15q6.68-.18,13.37.07a231.19,231.19,0,0,1,25.71,2.41c3.42.51,8-4.25,2.83-5a230.87,230.87,0,0,0-36.24-2.54c-6.65.07-20.34-1.77-24,5.7-1.8,3.65,6,3.22,7.3.54Z"/>
    <path d="M116.11,173.59c4.46-6.79,11.51-10.35,19.54-7.84,6.2,1.94,11.15,6.63,17.42,8.42,5,1.43,10.46.47,15.11-1.74a35.43,35.43,0,0,0,6.48-4.26c3.15-2.46,5-4.43,9-2.75,5.17,2.15,9,6.69,14.43,8.38,4.66,1.45,9.85.4,14.21-1.57,6-2.68,10.44-9.1,17.11-9.72,7.79-.72,16.12,3.42,23.55,5.22,14,3.41,29.54,4.61,43.67,1.14.62-.15,3.87-1,3.59-2s-3.68-.09-4.13,0c-15.06,3.69-31.82-.47-46.33-4.64-7.07-2-14.17-3.46-21.49-1.91-6.29,1.34-11,4.56-16,8.36-3.8,2.86-6.16,3.38-10.46,1-2.83-1.56-5.31-3.66-8.08-5.31a17.68,17.68,0,0,0-15.06-1.8,25.63,25.63,0,0,0-6.66,3.14c-2.6,1.71-5.6,5.38-8.63,6.13-3.38.84-7.88-2.13-10.73-3.76-3.21-1.83-6.37-3.83-9.91-5-11.92-3.84-27.38,1.52-34.23,11.94-.34.51,6.39.38,7.6-1.46Z"/>
    <path d="M142.85,208.77c4.48-5.19,10.55-8,17.47-6.88,5.56.92,10.56,3.92,15.83,5.75,11.13,3.87,20,.19,30.45-3.69,11.05-4.08,24-.23,35.45.4,7.66.42,17.34.46,23.36-5.12,3.1-2.87-4.49-2.24-6.07-.78-3.55,3.29-10,2.37-14.43,2.06-5.18-.36-10.35-.91-15.5-1.47-5.71-.62-11.45-1.06-17.14-.06-5.87,1-11.07,3.75-16.67,5.65-11.94,4.05-22.32-6.46-34.17-6.81A32.9,32.9,0,0,0,135.75,209c-1.9,2.21,5.67,1.47,7.1-.19Z"/>
    <path d="M439.44,284.53c1,0,3.1-1.54,1.15-1.54-1,0-3.1,1.54-1.15,1.54Z"/>
    <path d="M16.44,219.9c4.05-7.51-8.68-7.21-9.81-1.4a1.14,1.14,0,0,0,.3,1.13l.51.38c2,1.48,5.84.67,7.52-1a101.09,101.09,0,0,1,26.35-19.19c5.39-2.69.43-5.38-3.41-3.47A113.46,113.46,0,0,0,8,217.65l7.52-1-.37.65L10,219h.76l-2.34-.73,0,1.46c-1.92,3.55,6.75,2.6,8.08.13Z"/>
    <path d="M10.88,256.72a134.83,134.83,0,0,1,25.89-17.27c5.31-2.72.5-6.52-3.65-4.39A152.36,152.36,0,0,0,3.75,254.69c-1.58,1.34-.62,3.07,1,3.67,2.06.78,4.6-.33,6.15-1.65Z"/>
    <path d="M11.73,294a49.81,49.81,0,0,1,22.84-14c5.31-1.53,3.79-7.4-1.57-5.86a62.14,62.14,0,0,0-28.53,17.4c-3.71,4,4.63,5.31,7.26,2.49Z"/>
    <path d="M8.64,328.1A149,149,0,0,1,34.5,312.24c1.41-.68,2.29-1.5,1-2.52s-4.95.49-6.09,1A158.55,158.55,0,0,0,1.91,327.57c-3.57,2.72,5,1.81,6.73.53Z"/>
    <path d="M9.69,356.88l11.23-9.59,5.24-4.48,3-2.56q3.54-2.34-1.29-.85c.35,1.71,9.1-.32,8.69-2.33-.85-4.22-10-.26-12,1.14-8,5.69-15.28,13-22.76,19.41-1.51,1.29,1.36,1.34,2,1.32a10.44,10.44,0,0,0,5.83-2Z"/>
    <path d="M95,402.54a168.67,168.67,0,0,1,35.78-22.33c5.52-2.53.41-4.67-3.28-3a184.78,184.78,0,0,0-39.36,24.32c-1.5,1.21-.85,2.17.71,2.64,1.8.54,4.75-.51,6.15-1.65Z"/>
    <path d="M122.06,402a182.22,182.22,0,0,1,29.88-14.68c1-.37,3.44-1.34,2.53-2.69s-4.75,0-5.63.37a204.28,204.28,0,0,0-33.51,16.49c-1.65,1-.8,1.81.58,2.16,1.87.47,4.59-.7,6.15-1.65Z"/>
    <path d="M148.32,405.72a291.12,291.12,0,0,1,27.74-17.54c1.57-.87,2.16-2.48.7-3.64s-4.72-.06-6.17.75a291.12,291.12,0,0,0-27.74,17.54c-4.79,3.42,2.57,5,5.48,2.89Z"/>
    <path d="M181.66,403.42a53.25,53.25,0,0,1,13.16-9.76c5.22-2.76.54-7.81-3.93-5.44a66.78,66.78,0,0,0-16.56,12.4c-1.5,1.53-.55,3.7,1.19,4.44,2.14.91,4.63-.1,6.15-1.65Z"/>
    <path d="M207,402.53l20.81-9.93c5.42-2.58.5-6-3.55-4l-20.81,9.93c-5.42,2.58-.5,6,3.55,4Z"/>
    <path d="M239.41,404.16l25.95-14.82c1.46-.83,2.25-1.92.85-3.07s-4.9.19-6.13.9L234.13,402c-1.46.83-2.25,1.92-.85,3.07s4.9-.19,6.13-.9Z"/>
    <path d="M272,406.69l13.73-10.48c1.44-1.1.92-2.31-.71-2.64a8.53,8.53,0,0,0-6.15,1.65L265.16,405.7c-1.44,1.1-.92,2.31.71,2.64a8.53,8.53,0,0,0,6.15-1.65Z"/>
    <path d="M213.29,68.89c-7.65-1.65-16.79-2.38-23.6,2.28s-7.61,17-3.29,23.82c4.23,6.63,13.49,5.91,19.64,2.57,9-4.88,10.28-14.89,9-24.17l-7.46,2.5c5.05,6,2,16.55,9.54,21,5.4,3.16,12.7.19,16.32-4.36,9.89-12.44,2.3-31.07-9.55-39-12.92-8.63-33.62-10.73-47.53-3.21-14.22,7.69-18,25.82-12.58,40.18,6.94,18.54,26.23,28,45.3,25.08,3.56-.54,6.52-4.76,1.14-3.95-17.86,2.69-34.78-8.94-39.69-26.14a33.66,33.66,0,0,1,.62-21.15c3.61-9.59,11-13.93,21.06-14.21,15.84-.45,32.83,7.22,37,23.68a24.55,24.55,0,0,1,.23,11.81c-.78,3.25-2.88,9.7-7.11,6.8-2.61-1.79-3.11-6.9-3.64-9.69C218,79,217.22,75.84,214.79,73c-1.42-1.68-7.8,0-7.46,2.5.77,5.59,1,12.2-2.48,17-4.35,6-10.7,2.76-12.39-3.44-1.19-4.37-1.73-11.7,1.58-15.31s10.25-1.8,14.46-.89c2.27.49,9-3,4.8-4Z"/>
  </symbol>

</svg>
