<svg id="boy" xmlns="http://www.w3.org/2000/svg" viewBox="0 0 385.26 420.43">
  <title>boy</title>
  <path d="M67,171.34c-.14,2.05-1.3,6.34-.44,8.34.71,1.66,5.1-.32,5.76-1.26.12-.17.06-.44.18-.61l-5.76,1.26c.43,1-.11,3.06-.17,4.11-.34,5.65-.75,11.29-1.12,16.94-.77,12.06-1.43,24.13-1.66,36.22-.42,22.37.64,44.9,5.24,66.84,8.24,39.25,28.33,75.54,62.94,97.19a132.89,132.89,0,0,0,106.18,15.12c37.06-10.36,67-35.45,84.91-69.36,23.42-44.34,25.45-95.6,25.55-144.68,0-1.08-5.79-.22-5.8,1.55-.09,42.45-1.5,86-17.22,126-14.25,36.25-40.36,66.94-77.38,81-36.11,13.68-76.61,9.17-109.46-10.85-33.16-20.2-53.37-53.79-62.44-90.95-5.55-22.72-7.05-46.2-6.8-69.52.14-12.74.79-25.47,1.59-38.18.37-5.9.79-11.79,1.16-17.69.08-1.3.8-4,.25-5.31-.71-1.66-5.1.32-5.76,1.26-.12.17-.06.44-.18.61l5.76-1.26c-.83-1.95.31-6.38.44-8.34.06-1-5.67-.27-5.8,1.55Z"/>
  <path d="M282.87,37.27q-4.74,29.21-8.08,58.62c-2,18.05-3.48,36.29,3,53.65,10.33,27.55,34.75,61.87,68.48,54.74,3.65-.77,2.52-4.85-1.1-4.09-17.09,3.61-32.7-7.09-42.93-19.83-9.45-11.77-17.68-26.11-21.3-40.83-4-16.35-1.57-33.46.37-49.93q3.11-26.45,7.4-52.74c.48-3-5.45-2.27-5.88.41Z"/>
  <path d="M288.72,39.17c7.88-13.55,25.53-19.36,39.76-12.33,14.93,7.37,18.83,25.39,22.85,40,8.58,31.2,9.56,65,3.84,96.84A142.4,142.4,0,0,1,349.45,186a78.48,78.48,0,0,1-4.06,9.63c-1.14,2.22-3.76,5.13-2.36,7.68a2.33,2.33,0,0,0,2.5.81l.24,0c.91-.16,4.29-1.18,3.09-2.72a4,4,0,0,0-1.32-1.3c-1.59-1.27-7,1-5.38,2.26a4,4,0,0,1,1.32,1.3l3.09-2.72-.24,0,2.5.81c-1.18-2.14,2.32-6.66,3.29-8.76a91.55,91.55,0,0,0,3.7-9.39,150.55,150.55,0,0,0,5.62-23.42A238.3,238.3,0,0,0,364,107.28a229.81,229.81,0,0,0-10-53.16c-4.56-15-12.48-29.56-29.17-32.85-15.62-3.08-33.38,3.84-41.49,17.79-1.35,2.33,4.44,1.75,5.39.11Z"/>
  <path d="M289.6,40.17c2.48-12.31-13.11-19.25-22-23.51A170.1,170.1,0,0,0,230.33,3.95a175.55,175.55,0,0,0-76.82.62C106.6,15.51,64.95,46.3,41.57,88.54,27,114.85,18.78,144.51,0,168.42c-.21.26,4.65.24,5.7-1.09,15.26-19.44,23.64-42.78,34-64.94,10-21.25,22.85-40.5,40.14-56.51A162.42,162.42,0,0,1,217.19,4.47a168.27,168.27,0,0,1,40.3,12c9.7,4.28,29.06,11.68,26.32,25.28-.07.35,5.46.13,5.8-1.55Z"/>
  <path d="M270.41,113.75c-14.2,29.06-46.41,41.47-75.58,50l2.47,1A105.92,105.92,0,0,0,230.17,125c.67-1.42-5,.27-5.49.71a210.31,210.31,0,0,1-93.38,43.65l2.09.89a126.67,126.67,0,0,0,28.29-33.88c.69-1.2-3.62-.25-3.87-.18-13.12,4.13-23.7,13-36,18.84-11.85,5.6-24.65,9-37.54,11.09-26,4.28-52.89,3.7-79,.29a6.36,6.36,0,0,0-4.05.73c-.31.22-2.12,1.35-.7,1.54,26.84,3.51,54.31,4.07,81.11-.13a166.51,166.51,0,0,0,37.84-10.23c14-5.79,25.86-16.22,40.33-20.78l-3.87-.18a124.39,124.39,0,0,1-27.83,33.28c-1.29,1.09,1.78.94,2.09.89a224,224,0,0,0,99.7-46.25l-5.49.71a102.58,102.58,0,0,1-31.6,38.59c-2,1.51,1.61,1.27,2.47,1,30.83-9.05,65.76-22.09,80.81-52.88.43-.88-5-.49-5.72,1Z"/>
  <path d="M124.54,211.45l.47-.65-3.85,1.48c3-.17,6.44,8.3,7.44,10.57a51.54,51.54,0,0,1,3.5,11.63c1.26,7,1.7,14.57-.69,21.37-1.38,3.93-5.18,11.11-10.84,7.82-3.12-1.82-4.69-6.7-5.27-10.06-1.74-10.11,4.63-21.56,15.55-22.51,1.81-.16,6.21-3.14,2.38-2.81-12.08,1.05-23.4,9-24,22-.27,5.8,1.76,13.55,7.39,16.41,4.33,2.2,9.84.45,13.58-2.17,10.21-7.16,9.66-22.4,7.37-33.23-1.45-6.85-4.16-13.86-8.74-19.26-2.42-2.85-7.07-4-9.62-.46-1.33,1.83,4.36,1.16,5.32-.16Z"/>
  <path d="M275,205c13.51,9.41,23.86,29.8,16.31,46a13.66,13.66,0,0,1-3.65,5.23c-3.24,2.42-7.31,1.59-10.16-1a14.17,14.17,0,0,1-4.53-12.67c1.47-11.47,12.06-17.49,21.64-21.72,3.5-1.55-1.88-1.71-3.41-1-10.77,4.77-23.85,12.34-24.21,25.73-.3,11.16,10.64,17.78,20.59,13.83s12.66-15.64,11.59-25.33A44.14,44.14,0,0,0,280.39,203c-1.41-1-6.49,1.32-5.44,2.06Z"/>
  <path d="M195.23,269.43a75,75,0,0,1-16.69,23.85c-1.34,1.29,0,2.64,1.39,2.83a134.71,134.71,0,0,1,19.38,4.1c2.39.69,6.84-2.78,3.38-3.78A144.08,144.08,0,0,0,182,292l1.39,2.83A78.36,78.36,0,0,0,200.75,270c1.31-3-4.52-2.83-5.52-.58Z"/>
  <path d="M164.71,342.61A39,39,0,0,0,203,363.2a40.17,40.17,0,0,0,33-26.2c1.08-3.11-4.7-3-5.53-.61-4.24,12.14-15.21,21.95-28.37,22.8-13.51.87-26.06-7.31-32.16-19.09-1.15-2.22-6.69-.13-5.31,2.53Z"/>
  <path d="M59.75,214.89c-9.5-2.53-18.63,3-24.49,10.21C28.2,233.73,25.11,244.93,25.5,256s3.84,26.1,12,34.43c7.52,7.72,18.67,5.62,27.95,2.91,3.45-1,2.67-4.14-.84-3.12C55,293,46,293.83,40,284.44c-4.55-7.15-7.19-16.18-8.27-24.54a48.25,48.25,0,0,1,2.81-24.29c3.28-8.1,11.51-20.12,21.68-17.41,2,.53,6.83-2.42,3.51-3.31Z"/>
  <path d="M350.56,220c.36-7.07,7.47-2.83,10.52-.8a59,59,0,0,1,8.49,6.67A34.24,34.24,0,0,1,379,243.34c2,8.73-1.21,19-6.5,26-3.36,4.46-8.19,7.2-13.41,9-4.41,1.49-10.84,3.84-15.39,2.75-1.72-.41-6.78,2.22-3.59,3,5.82,1.38,11.54-.73,17.16-2.29,6-1.65,12-4.11,16.73-8.24,9.46-8.27,13.43-22.64,10.05-34.58-2.84-10-10.06-17.09-18.62-22.61-3.74-2.41-7.23-4.29-11.79-3.48-4.14.74-8.64,3.36-8.87,8-.11,2.2,5.69,1,5.78-.79Z"/>
  <path d="M4.76,168.15a317.76,317.76,0,0,0,155.13-31.46c3.47-1.68-1.76-2.3-3.52-1.45A305.64,305.64,0,0,1,7.09,165.13c-2-.11-6.21,2.81-2.33,3Z"/>
  <path d="M28,170.07A296.6,296.6,0,0,0,123.39,154c3.88-1.33.26-2.43-2.09-1.63a282.38,282.38,0,0,1-90.83,15.11c-1.75,0-6.28,2.62-2.43,2.61Z"/>
  <path d="M98,164c11.31-2.28,23.82-5.95,33.59-12.26,2.71-1.75-.35-2.78-2.2-2.35-2.62.61-5.2,1.3-7.78,2.07-3.42,1-2.71,4,.79,2.94s7.17-2.25,10.68-3.61c3.77-1.45.34-3.44-2.3-2.42-3,1.16-6.06,2.19-9.17,3.09l.79,2.94c2.58-.77,5.16-1.46,7.78-2.07l-2.2-2.35c-8.93,5.76-20.42,9-30.77,11.07-3.55.72-2.72,3.65.79,2.94Z"/>
  <path d="M134.62,149.4l.67-.33c.35-.17,1-.57,1.16-1s-.16-.64-.51-.75a6.08,6.08,0,0,0-4.07.68l-.67.33c-.35.17-1,.57-1.16,1s.16.64.51.75a6.08,6.08,0,0,0,4.07-.68Z"/>
  <path d="M53.25,169.09c6.33,1.19,12.56.09,18.85-.89q11.17-1.74,22.26-3.92c.49-.1,4.71-1.88,3-2a66.39,66.39,0,0,0-16.9.62c-2.24.36-5.23,2.61-1.13,1.94a52,52,0,0,1,13.24-.43l3-2q-8.32,1.61-16.68,3C72,166.48,64.89,168.24,58,166.95c-1.3-.25-6.22,1.87-4.79,2.14Z"/>
  <path d="M134.47,170.78l.57-.29c.53-.29-.6.16.15-.05l.31-.08q.41-.08,0,0t0,0l.43,0a4.28,4.28,0,0,0,2.18-.79,2.4,2.4,0,0,0,1-1.5c.09-1.47-1.49-1.85-2.65-1.81a10.4,10.4,0,0,0-4.59,1.27c-.9.5-2.36,1.76-1.39,2.89s2.81,1,3.92.38Z"/>
  <path d="M137.26,169.12a289.78,289.78,0,0,0,80.18-34c3.31-2-1.79-2.56-3.53-1.48a279.33,279.33,0,0,1-77.36,32.88c-3.45.88-2.77,3.52.7,2.62Z"/>
  <path d="M225.09,131.21l1-.67a2.35,2.35,0,0,0,1.08-1.31,1.09,1.09,0,0,0-.62-1.15,4.47,4.47,0,0,0-4.12.49l-1,.67a2.35,2.35,0,0,0-1.08,1.31,1.09,1.09,0,0,0,.62,1.15,4.47,4.47,0,0,0,4.12-.49Z"/>
  <path d="M201.8,162.49c15.56-5.15,31.27-10.84,44.77-20.36,10-7.08,21.6-15.85,28.06-26.49,1.41-2.33-4.39-1.82-5.4-.15-6,9.91-16.89,18.26-26.27,24.87-12.66,8.93-27.35,14.33-41.95,19.17-3.37,1.12-2.68,4.11.79,3Z"/>
  <path d="M266.86,303.07c3.41,0,4.36-4.52.44-4.52-3.41,0-4.36,4.52-.44,4.52Z"/>
  <path d="M283.61,322.76v-1.52c0-.37-.87-.46-1-.47a6.33,6.33,0,0,0-2.13.26,6.19,6.19,0,0,0-2,.84c-.33.24-.66.48-.66.93v1.52c0,.37.87.46,1,.47a6.33,6.33,0,0,0,2.13-.26,6.19,6.19,0,0,0,2-.84c.33-.24.66-.48.66-.93Z"/>
  <path d="M312.4,297v-1.52c0-.35-.89-.4-1-.41a6.86,6.86,0,0,0-2.12.29,6.73,6.73,0,0,0-2,.81c-.31.21-.68.44-.68.86v1.52c0,.35.89.4,1,.41a6.86,6.86,0,0,0,2.12-.29,6.73,6.73,0,0,0,2-.81c.31-.21.68-.44.68-.86Z"/>
  <path d="M97.63,313.78h-.94c-3.35,0-4.42,4.35-.49,4.35h.94c3.35,0,4.42-4.35.49-4.35h-.94c-3.35,0-4.42,4.35-.49,4.35h.94c3.35,0,4.42-4.35.49-4.35Z"/>
  <path d="M116,343.44h1.52a5.68,5.68,0,0,0,2.27-.44,3.38,3.38,0,0,0,1.54-1.17c.63-1.16-.54-1.83-1.6-1.83h-1.52a5.68,5.68,0,0,0-2.27.44,3.38,3.38,0,0,0-1.54,1.17c-.63,1.16.54,1.83,1.6,1.83Z"/>
  <path d="M140.28,314.88c2.57,0,6-3.89,2.09-3.89-2.57,0-6,3.89-2.09,3.89Z"/>
  <path d="M153,239.19c1.73,0,6.29-2.58,2.44-2.58-1.73,0-6.29,2.58-2.44,2.58Z"/>
  <path d="M153,239.21c1.76,0,6.28-2.62,2.43-2.62-1.76,0-6.28,2.62-2.43,2.62Z"/>
</svg>
