<svg id="camera" xmlns="http://www.w3.org/2000/svg" viewBox="0 0 477.55 470.57">
  <title>camera</title>
  <path d="M7.43,182.84c0-18.77.38-38.22,3.81-56.71.52-2.79.94-7.29,2.88-9.57s6.69-2.43,9.56-2.69c4-.36,8-.36,12-.68,19.84-1.57,40.12-.73,60-.94,82.56-.86,165,.6,247.58,1.53,23.34.26,46.69.54,70,1q17.24.35,34.48.87c6,.18,12,.33,17.36,3.25,4.34,2.35,5.35,6,5.54,10.7,0,1.27,5.87.27,5.8-1.55-.34-8.64-5.41-12-13.39-14-4.46-1.1-9-1-13.59-1.1q-8.87-.26-17.75-.48c-21.49-.52-43-.85-64.46-1.12-44.36-.55-88.71-1.4-133.06-1.94-44-.54-88.1-.33-132.15.12-21.47.22-43.26-.5-64.68,1-8.6.61-26-1.22-30,8.89-4.12,10.44-4.07,23.28-4.75,34.33-.62,10.17-1,20.38-1,30.57,0,1.21,5.79.31,5.8-1.55Z"/>
  <path d="M1.62,181.92A2113.91,2113.91,0,0,0,4.43,402.47c1.33,19.84,3.59,39.67,5.63,59.45.23,2.26,6.05.92,5.8-1.55C12.2,425,9.18,389.67,7.66,354.11Q5.29,298.63,5.94,243.06q.33-30.88,1.51-61.74c.1-2.69-5.75-1.65-5.83.59Z"/>
  <path d="M11.85,463.63c2.69.74,4.48,3,7.18,3.89a47.52,47.52,0,0,0,9.69,2c7.21.81,14.33.06,21.53-.39,16.91-1.06,34.17-.1,51.11-.1,32.43,0,64.86.91,97.29.93s64.84-.17,97.26-.22q24.81,0,49.62.09c7.89,0,15.94.62,23.82.2,7.57-.4,15-1.13,22.63-1.18,17.84-.13,35.71,1.06,53.53-.29,6.64-.5,12.8-1.49,18.81-4.51,5.08-2.55,10.38-5.36,12.91-10.63.65-1.36-5-.83-5.76.86-2.57,5.36-10.53,9.16-16.15,10.52-7.87,1.89-16.75,1.5-24.82,1.55-14.56.1-29.13-.7-43.69-.22-7,.23-14,1-21,1q-11.91-.12-23.82-.17-22.83-.11-45.65-.05c-60.21.1-120.43.66-180.63-.54-17.31-.35-34.63-.17-51.94-.17-8.25,0-16.43.93-24.67.89a51,51,0,0,1-13.51-1.59c-3.45-1-5.71-3.52-9-4.43-1.56-.43-6.74,2-4.68,2.56Z"/>
  <path d="M470.64,129.4c.14,20.59-2.14,41.07-1.9,61.68l.75,63.12L471,383.82c.29,24.3.81,48.62.62,72.92,0,.84,5.78.07,5.8-1.55.34-43.57-.79-87.18-1.31-130.74l-1.51-127.33c-.13-11.35-.38-22.68.24-34,.64-11.75,1.65-23.47,1.57-35.25,0-.87-5.81-.06-5.8,1.55Z"/>
  <path d="M4.1,206.43C27.78,203.81,52,204,75.77,204.5q35.29.71,70.45,4.17c2.73.27,6-3.66,2.05-4q-36.11-3.52-72.41-4.21c-23.65-.42-47.66-.65-71.19,2-3.15.35-4.53,4.49-.57,4Z"/>
  <path d="M322.27,200.72,464,203.45c2.21,0,6.15-3.23,2.25-3.3l-141.73-2.73c-2.21,0-6.15,3.23-2.25,3.3Z"/>
  <path d="M123.55,293.1c.28-48.88,29.94-94.49,76.06-112,46.8-17.8,100.68-2.09,131.84,36.7,31,38.63,35.17,94,10.29,136.89s-75.12,65.9-123.81,56c-48-9.82-85.26-50.49-92.89-98.58a125.11,125.11,0,0,1-1.49-18.93c0-3-5.89-2.16-5.87.44.29,51.36,32.23,98.73,80.84,116.4,48.37,17.58,104,2.1,136.76-37.4,33.29-40.09,37.87-98.51,11.21-143.3-26.4-44.36-78.89-67.44-129.44-57.43-50,9.89-89.5,51.45-97.74,101.57a128.6,128.6,0,0,0-1.64,20.16C117.66,296.57,123.53,295.71,123.55,293.1Z"/>
  <path d="M157.26,292.51c.28-34,21.45-66.18,53.91-77.7s70,1.24,90.7,28.28c20.43,26.64,22.85,64.05,5.87,93-17.8,30.39-53.15,46-87.49,37.43-36.93-9.2-62.68-43.3-63-81.05,0-.8-5.81,0-5.8,1.55.3,36.38,24.06,69.15,58.86,80.2,33.07,10.5,71.29-.32,94-26.5,24.25-27.95,27.31-69.83,7.1-100.9-19.71-30.3-56.74-44.16-91.71-36.23-39.16,8.89-67.93,43-68.26,83.43C151.46,294.83,157.25,294.08,157.26,292.51Z"/>
  <path d="M59.23,108.64,58.1,93.39c-.23-3.15-2.49-13.25.09-15.11,1.22-.87,6.28-.18,7.84-.22l7.84-.22,15.68-.45,15.68-.45c5.6-.16,9.8-.15,12,5.65,3.26,8.61,2.42,19.49,2.63,28.55.07,3,5.93,2.18,5.87-.43-.16-6.71-.48-13.42-1-20.12-.38-4.55-.87-9.52-3.56-13.38-2.39-3.42-5.94-4.62-10-4.67-7-.1-14.08.39-21.1.59l-21.55.62c-4.41.13-11.9-1.18-15.51,2.17-3.11,2.89-1.45,8.72-1.18,12.37l1.62,21.92c.2,2.64,6,1.26,5.8-1.55Z"/>
  <path d="M168.73,105.91l5.39-31.22,2.69-15.61,1.35-7.81c.31-1.81.22-5.42,1.23-7,2-3.07,11.88-2.28,15.27-2.54q6.84-.53,13.69-.9Q224.62,40,240.91,40q15.68,0,31.34.9,6.85.38,13.69.92c5.12.4,12.8-.55,14.78,5.19,1.55,4.51,1.82,9.8,2.64,14.5l2.72,15.66,5.43,31.32c.37,2.16,6.2.75,5.8-1.55l-9.67-55.79c-1.08-6.25-2.12-11-9.07-11.94-9.25-1.22-18.72-1.59-28-2q-26.8-1.3-53.63-.18-14.2.58-28.35,1.85c-4.92.44-12.7-.12-14.8,5.58-1.61,4.37-1.79,9.73-2.58,14.31l-2.69,15.61-5.56,32.2c-.42,2.42,5.45,1.49,5.82-.65Z"/>
  <path d="M326,68.32,342.81,94c1.43,2.18,7,0,5.31-2.55L331.29,65.77c-1.43-2.18-7,0-5.31,2.55Z"/>
  <path d="M322.19,25.65A357.22,357.22,0,0,0,354.54,1.91c2.6-2.14-3.13-2.43-4.7-1.13a345.45,345.45,0,0,1-31.31,22.94c-3.28,2.14,1.67,3.23,3.66,1.94Z"/>
  <path d="M326.05,46.74a114,114,0,0,1,30-1.25c2.25.2,6.14-3,2.25-3.32a119.94,119.94,0,0,0-31.47,1.32c-2.76.48-4.78,3.94-.78,3.24Z"/>
  <path d="M424.31,138.11a7.49,7.49,0,0,0-9.86,4c-1.31,3.63-.61,8.92-.76,12.78-.18,4.52-.39,9-.53,13.57-.15,4.8-.34,12.12,5.29,14,4.65,1.52,8.33-1.77,9.77-5.87,2.42-6.9,1.33-15.42,1.25-22.59,0-3.77,1.94-15.05-3.63-15.78-6.49-.84-6.49,5.87-6.94,10.38q-1.38,13.7-2.26,27.43c-.16,2.36,5.09.42,5.77-.83a47.86,47.86,0,0,0,4.52-11.78l-5.77.83-2.62,11.64c-.42,1.87,5.35,1,5.77-.83l1.79-7.71-5.77.83-1.12,10c-.23,2,5.54.91,5.77-.83l3.17-23.89c.27-2-5.47-.91-5.77.83L420.22,167l5.78-1.19.1-4.35c0-1.46-5.75-.51-5.8,1.55l-.1,4.35c0,1.55,5.52.36,5.78-1.19l2.15-12.74-5.77.83L419.2,178.2l5.77-.83,1.12-10c.23-2.06-5.38-.85-5.77.83l-1.79,7.71,5.77-.83,2.62-11.64c.42-1.88-5.34-.94-5.77.83A47.86,47.86,0,0,1,416.63,176l5.77-.83q.61-9.32,1.43-18.62.39-4.41.83-8.81c.2-2-.28-6.46,1.41-7.74l-3.46,1.14c1,0,3.05,37.6-.89,38-1.87.18-2.73-6.33-2.81-7.48a113.07,113.07,0,0,1,.3-11.75l.38-9.69c.05-1.4,1.14-9,0-9.48,1.53.71,6.85-1.6,4.66-2.61Z"/>
  <path d="M126.63,349.37c-6.81,8.41-9.58,18.51-10.77,29.12-1,8.9-.48,18.92,5.39,26.18,13.18,16.31,36.31,8.57,50.32-1.88,3.14-2.34-1.48-4.73-3.92-2.91-6.78,5.05-14.59,9.47-23.27,9.69-8.48.21-16.68-3.81-20.43-11.63-3.27-6.83-2.95-14.79-1.91-22.1,1.29-9.07,3.63-17.31,9.49-24.54,2.34-2.89-3.12-4.14-4.91-1.93Z"/>
  <path d="M236.5,241.23c6.27-5.66,19.08-.13,25.9,2.52,7.25,2.82,14.38,6.76,18.86,13.34,8.79,12.89,11,33.83,3.63,47.64-.34.65,4.94.38,5.71-1.06,5-9.44,5.23-20.18,3.09-30.48s-6-19.72-14.87-25.8c-7.53-5.18-17.43-8.58-26.39-10.21-7.3-1.33-15.44-.58-21.16,4.57-1.12,1,4.2.41,5.23-.51Z"/>
  <path d="M229.19,338.07c.5,15.68,27.95,5.35,35,1.26a35.59,35.59,0,0,0,8.13-6.34c1.68-1.79,5.74-5.93,5.45-8.53-.31-2.79-6.54-1.18-6.79,1-.06.56,5.61.1,5.8-1.55l0-.37-1.25,1.07.42-.18-4.38.66c1.86.73-4.2,8.13-5,8.93a32.44,32.44,0,0,1-9.46,6.64c-6.39,3-21.83,7.15-22.19-4.16,0-.82-5.84,0-5.8,1.55Z"/>
  <path d="M415.2,237.86c-.55,32-1.19,64-1.6,96q-.31,23.86-.21,47.73c.06,14.4-1.36,30.2,4.11,43.84.78,2,4.23,1.53,5.31,0,8.68-12,5.75-27.39,5.36-41.2-.51-18,.1-36,.91-54,.79-17.67,1.77-35.34,2.06-53,.14-8.75.18-17.52-.19-26.26-.31-7.29-1.17-14.23-4.68-20.74-.81-1.51-3.58-.67-4.56,0a10.09,10.09,0,0,0-4.84,9c.11,3,6,2,5.86-.47s.57-4.48,2.8-6h-4.56c4,7.47,4.11,16,4.29,24.33.17,7.86.14,15.71,0,23.57-.34,16.71-1.26,33.4-2,50.09-.73,16.35-1.31,32.72-1,49.09.24,13.68,4.45,32.08-4.21,44l5.31,0c-5.57-13.9-4-30.07-4-44.75q-.09-23.86.24-47.73c.42-31.34,1-62.67,1.58-94,.05-3-5.82-2.05-5.86.47Z"/>
  <path d="M6.51,202.46c12.08-2.7,24.82-1.58,37.1-1.29q17.9.43,35.81.94,35.31,1,70.6,2.32c1.28,0,6.6-2.31,3.75-2.41q-38.28-1.42-76.57-2.49-18.9-.52-37.8-1c-11.25-.26-22.35-.44-33.39,2-3.41.76-2.93,2.62.5,1.86Z"/>
  <path d="M12.14,204.21a645.84,645.84,0,0,1,71.45,1.43c22.64,1.6,45.31,3.34,68,1.75,3.09-.22,4.62-4.06.64-3.78-23.51,1.65-47-.44-70.43-2a635.35,635.35,0,0,0-69-1.14c-3.11.13-4.62,3.94-.64,3.78Z"/>
  <path d="M145.63,204.77c2.72,2.81,7.92,1.24,10.61-.79.2-.15.44-.6.11-.78-2.88-1.54-6.59-.89-9.36.61-.2.11-1.5.71-1.23,1.17,1,1.68,2.69,2,4.54,1.82,1.12-.14,3.15-.38,3.88-1.39s-.63-1-1.37-1l-3.15.11c-.53,0-4.63.85-4.15,1.95.91,2.08,4,1.34,5.68.73-.08,0,1.81-.82.94-.44.62-.27,1.27-.48,1.9-.72l4.42-1.69c.14-.06,2.7-1.25,1.73-1.66a6.11,6.11,0,0,0-5.86,1.27,2.75,2.75,0,0,0-.62,1.4,4.88,4.88,0,0,0-.18.84c0,.71-.8.86.68.06l3.55-.8.53.13a5.44,5.44,0,0,0-3.73.32c-.22.08-2.65,1.27-1.73,1.66a6.11,6.11,0,0,0,5.86-1.27,2.75,2.75,0,0,0,.62-1.4,4.88,4.88,0,0,0,.18-.84c0-.71.8-.86-.68-.06l-3.55.8-.53-.13,1.73-1.66c-2.75,1-6,1.85-8.48,3.42l2-.81-.35.08,2.12-.28a.72.72,0,0,1-.41-.51l-4.15,1.95,3.15-.11,2.51-2.35c-.5.06-1.07-.72-1.25-1l-1.23,1.17q-1,.12-.22.25a2.12,2.12,0,0,1,.78.34l.11-.78,1.63-.61a1.93,1.93,0,0,1-.68-.29,3.83,3.83,0,0,1-.85-.71c-1-1.07-6.36,1-5.46,2Z"/>
  <path d="M326.62,198.36l-.32-.13c-1.45-.58-4.44.28-5.23,1.68l-.22.39a.47.47,0,0,0,.16.58c1.19,1,2.92.69,4.37.71l12.53.14L362,202c1.79,0,6.27-2.62,2.42-2.66l-19.27-.22-8.67-.1c-.9,0-9.29-.69-9.66,0l-5.23,1.68.32.13c1.42.57,6.68-1.65,4.71-2.44Z"/>
  <path d="M323.45,202.75c22.9,3.47,46,2.85,69.06,1.91,24.58-1,49-1.47,73.54.62,2.37.2,6.1-3.16,2.2-3.5-23.07-2-46.07-1.77-69.18-.81-24,1-48.23,2.08-72.12-1.54-2-.3-6.83,2.81-3.5,3.32Z"/>
  <path d="M146.53,206.14a7.3,7.3,0,0,0,3.43,1.77,4.83,4.83,0,0,0,3.58-.68c.57-.38,1.64-1.55.83-2.23-2.58-2.17-7.31-1.28-9,1.65a1.15,1.15,0,0,0,.45,1.68,13.45,13.45,0,0,0,6.4,1.13c1.14-.06,3-.82,3.25-2.12s-1.66-1.55-2.57-1.5c.37,0-.49,0-.48,0l-.56-.06a6.48,6.48,0,0,1-1.48-.45l.45,1.68c.23-.39-.06,0-.19.11a2.06,2.06,0,0,1-.82.32,3.49,3.49,0,0,1-.74,0l-.15-.08q.3.19.12,0l4.41-2.91a3,3,0,0,1-1.55-.7,3.67,3.67,0,0,0-3.88-.21c-.67.32-2.54,1.65-1.48,2.59Z"/>
  <path d="M176.73,398.19l-.64-1.64c-.32-.81-2.22-.36-2.76-.24a7.67,7.67,0,0,0-1.82.61c-.37.19-1.06.48-1.18.91l-.66,2.29c-.29,1,1.87.69,2.33.6a8.18,8.18,0,0,0,2.21-.69c.37-.19,1.06-.48,1.18-.91l.66-2.29-5.76,1.28.64,1.64c.14.36.72.41,1,.43a6.65,6.65,0,0,0,2.12-.28,6.51,6.51,0,0,0,2-.82c.23-.16.81-.52.67-.89Z"/>
  <path d="M11.87,459.85c9.67,8.84,23.31,6.92,35.39,6.74,19-.29,38.06.32,57.06.49l112.76,1c70.14.65,140.36.42,210.48,2.22,11.69.3,23.83.75,35.33-1.77,6.93-1.52,15.76-5.17,14.54-13.72-.34-2.4-6.16-1-5.8,1.55,1.14,8-10.52,9-16,9.53-10.37,1.09-20.86.69-31.26.38-31.12-.93-62.3-.75-93.43-1l-207.56-1.91-58.88-.54c-8.06-.07-16.08-.08-24.13.13s-16.88.2-23.17-5.55c-1.76-1.61-7.24.71-5.33,2.45Z"/>
  <path d="M15.36,461.73q-2.33-.67.06-1.39,2.06-.53.75-1c-1.67-.94-6.54.33-4.9,2.91,2.66,4.17,8.2,4.86,12.48,3.06,1.08-.46,2.17-1.77,1.39-2.92s-2.83-.86-3.93-.4c-1.78.75-3.74-.88-4.62-2.26l-4.9,2.91c2.36,1.33,5.83,1.85,7.7-.65a2.65,2.65,0,0,0-2-4.4c-1.35-.1-3.17.41-3.78,1.76s.51,2.28,1.75,2.37Z"/>
  <path d="M10.66,455.18A10.84,10.84,0,0,0,13,463.69c1.18,1.48,4.69.65,5.41-1,1.08-2.46.92-5.25-2.23-5.63-2.23-.27-5.36,1-5.52,3.55-.18,2.88,2.48,5.44,5,6.36,3.12,1.15,6.52.77,9.72.26,1.15-.18,3.09-.78,3.23-2.21s-1.55-1.83-2.61-1.66c-2,.31-4.23.81-6.21.22a4.32,4.32,0,0,1-2.53-1.86,4.55,4.55,0,0,1-.62-1.48q-3.39-.58-3.67,2l5.41-1a8.31,8.31,0,0,1-1.81-6.6c.38-2.7-5.51-1.83-5.84.55Z"/>
  <path d="M9.22,243.06q22.43-1.23,44.88-.44c1.32,0,6.61-2.37,3.73-2.47q-23.07-.81-46.13.45c-1.63.09-6.29,2.67-2.47,2.46Z"/>
  <path d="M8.65,265l45.07-1.87-2.1-2.74L49,263.15c-2.47,2.59,3.12,3.27,4.8,1.51l2.66-2.79c1.6-1.68-.57-2.8-2.1-2.74L9.24,261c-3.18.13-4.55,4.14-.59,4Z"/>
  <path d="M8.61,287.82H40.43c1.15,0,6.52-2.22,3.8-2.22H12.41c-1.15,0-6.52,2.22-3.8,2.22Z"/>
  <path d="M4.82,315.71a253.92,253.92,0,0,1,37.29.65c1.73.16,6.76-2.74,3.58-3a262.48,262.48,0,0,0-38.58-.76c-2,.11-6.16,3.36-2.29,3.14Z"/>
  <path d="M5.66,341.58l33.29-2.21c3.15-.21,4.57-4.21.59-3.94L6.25,337.63c-3.15.21-4.57,4.21-.59,3.94Z"/>
  <path d="M4.77,366A76.32,76.32,0,0,0,38,369.47c1.5-.17,6.28-2.73,2.52-2.31a71,71,0,0,1-31-3.39c-1.3-.44-6.43,1.67-4.77,2.23Z"/>
  <path d="M9.33,406.53l25.73-1.84c1.84-.13,6.21-3.11,2.38-2.83L11.71,403.7c-1.84.13-6.21,3.11-2.38,2.83Z"/>
  <path d="M172.79,45.62a321.92,321.92,0,0,1-8.82,63.2c-.41,1.71,5.34.84,5.76-.87a325.26,325.26,0,0,0,8.86-63.88c.05-1.31-5.72-.44-5.8,1.55Z"/>
  <path d="M176.85,47.62c19.9-1.76,39.79-3.82,59.72-5.15,19.56-1.3,39.23-1.24,58.36,3.52,1.72.43,6.78-2.19,3.59-3-19.52-4.86-39.68-4.95-59.65-3.63-20.42,1.35-40.8,3.44-61.18,5.25-2.74.24-4.89,3.34-.85,3Z"/>
  <path d="M181.58,45.53l-.32.42,5-1.34.23-.55-3.14,1.37c9-1.31,19-.38,28.1-.44q13.29-.09,26.58,0,27.74.1,55.47.81c1.16,0,3.29-.12,4.1-1.1.56-.68,1-1.48-.41-1.52q-31.31-.79-62.64-.84-15.75,0-31.5.16c-5.24.06-10.52-.05-15.75.22-2.81.15-4.84.52-7,2.4a.72.72,0,0,0-.25.65c.33,1,.5,1,1.45,1.32a5.59,5.59,0,0,0,5-1.34l.32-.42c1.28-1.64-4.34-1-5.29.26Z"/>
  <path d="M296.4,45.63a13.57,13.57,0,0,1,6,11c.06,3.12,5.93,2.31,5.88-.4a17,17,0,0,0-7.47-14c-2.21-1.5-7.22,1.54-4.44,3.43Z"/>
  <path d="M52.66,79.07c-2,10.44.82,20.85,1,31.32,0,1.3,5.82.34,5.8-1.55-.16-10.24-3-20.48-1-30.68.32-1.69-5.44-.73-5.75.9Z"/>
  <path d="M54.62,82.35q29.54-3.17,59.23-4.5c1.7-.08,6.28-2.74,2.45-2.57q-29.68,1.33-59.23,4.5c-1.65.18-6.24,3-2.45,2.57Z"/>
  <path d="M58.94,81.28a16.84,16.84,0,0,1,9.63-2.66c1.35,0,3.19-.36,3.77-1.77a1.79,1.79,0,0,0-1.77-2.43A26.42,26.42,0,0,0,55.1,78.65a1.8,1.8,0,0,0-.31,3c1.2.92,3,.36,4.16-.35Z"/>
  <path d="M328.21,42.3l-4.09-.09-1.33,4,32.93-2.33c3.17-.22,4.56-4.26.58-4l-32.93,2.33c-2.35.17-5,3.9-1.33,4l4.09.09c2.65.06,6-3.9,2.07-4Z"/>
  <path d="M320,25.76A208,208,0,0,0,349.65,4.88c1.27-1.07-4.15-.57-5.26.38A202.13,202.13,0,0,1,315.58,25.5c-2.46,1.43,3.33.91,4.46.25Z"/>
</svg>
