<svg id="computer" xmlns="http://www.w3.org/2000/svg" viewBox="0 0 519.31 425.75">
  <title>computer</title>
  <path d="M6.51,363.14a653,653,0,0,0,48.9-83.9c.68-1.41-4.93-.87-5.77.83A647.05,647.05,0,0,1,1.17,363.22c-1.35,2,4.38,1.32,5.34-.08Z"/>
  <path d="M55.19,275.56l2.38-122.71L58.76,92l.58-29.93c.18-9.19-.11-18.55,1.16-27.68,1.09-7.85,3.64-16.21,10.1-21.33,7-5.58,16.58-6,25.15-6.39,20.57-1,41.15-1.79,61.74-2.4q60.76-1.8,121.56-1.42,69.44.44,138.82,3.73c1.5.07,6.68-2.6,3.66-2.74Q293.29-2.23,164.86,1.34q-32.37.91-64.73,2.45c-13.94.67-30.55,1.77-39.34,14.33-9.33,13.33-7,33.18-7.31,48.51l-1.26,64.84L49.4,277.11c0,1.32,5.76.41,5.8-1.55Z"/>
  <path d="M467.8,271.5,467,143.35l-.38-63.57L466.47,48c-.06-9.79.52-19.82-.35-29.58-.67-7.49-3.72-14.4-11.88-15.52-4.75-.65-9.8,0-14.57.26L421.89,4c-2,.09-6.2,3.17-2.33,3,9.47-.43,19.09-1.4,28.57-1.27,9.91.13,12.07,8.71,12.36,17,.7,19.84.27,39.78.39,59.63l.72,121.19L462,273c0,1.54,5.81.52,5.8-1.55Z"/>
  <path d="M.41,362.64c-1.43,8.66,1.13,17.82,3.27,26.2,2,7.71,4.62,15.41,9.27,21.94,9.44,13.27,24.9,15.52,40.13,14.87,20.72-.88,41.27-1.58,62-1.54q32.38.05,64.75,0,129.51-.23,259-2.21c12-.18,24.12-.08,36.14-.64,8.47-.39,17.21-1.93,24.12-7.17,6.73-5.1,10.91-12.85,13.5-20.74C516,383,515.26,372,519.18,361.81c.49-1.28-5.12-.67-5.74.94-3.14,8.13-3.07,16.66-4.82,25.08-1.68,8.08-5,16.5-10.59,22.67-7.62,8.36-18.37,8.17-28.85,8.34l-29.88.48q-60.26.91-120.53,1.45t-120.54.69c-39.86.1-79.87-1-119.7.29-18.22.6-41.24,6.18-55.86-8-6.15-6-9.61-14.08-12-22.17-2.72-9.17-6.09-20.33-4.51-29.88.27-1.62-5.48-.62-5.74.94Z"/>
  <path d="M461.71,272.56c4.8,16.13,17,28,26,41.8,10.09,15.37,17.56,32.24,25.66,48.7,1,2.09,6.7.27,5.8-1.55-7.71-15.65-14.86-31.65-24.15-46.45-9.19-14.63-22.53-27.13-27.56-44-.64-2.14-6.43-.56-5.8,1.55Z"/>
  <path d="M73.83,272.56c23.57,1.53,47,.78,70.51-.4,23.89-1.2,47.78-.57,71.68.07q71.87,1.95,143.77,1.69,40.67-.15,81.33-1c2.3,0,6.09-3.59,2.2-3.51q-71.9,1.51-143.81.83-36.2-.35-72.4-1.27c-23.52-.6-47.06-1.51-70.59-.74-26.92.89-53.53,2.59-80.48.84-2.36-.15-6.11,3.25-2.2,3.51Z"/>
  <path d="M91.47,23.7c-3.69-3.29-9.35-2.73-13.25,0-5.8,4-6.19,11.68-6.77,18.07-1.69,18.72-2.62,37.5-3,56.29-.85,37.25.58,74.44,1.05,111.67.26,20.5,0,41,.43,61.5l5.83-1c-.26-.72-.46-1.43-.72-2.15-1-2.64-6.73-1-5.8,1.55.26.72.46,1.43.72,2.15.83,2.31,5.89,1.48,5.83-1-.46-20.18-.17-40.36-.41-60.54-.25-21-1-42.09-1.24-63.14s-.19-42.23.59-63.33q.58-15.81,1.74-31.6c.38-5.12.71-10.28,1.33-15.38C78.22,33,80.83,21.55,87,27.06c1.94,1.72,7-1.13,4.46-3.36Z"/>
  <path d="M88.35,24.35c99.66,1.11,199.36,3,299,1.9q11-.13,21.94-.31c6-.1,15.24-2,20.07,2.09,4,3.45,8.07,7.1,10.09,12.13,1.87,4.66,2.39,9.77,3.07,14.71.19,1.34,6,.11,5.8-1.55-1.23-8.8-2.43-17.44-9.47-23.6-3-2.63-5.31-5.57-9.4-6.31-5-.92-10.64-.16-15.71-.07Q374.87,24,336,24c-52.27,0-104.54-.64-156.8-1.22l-87.11-1c-1.16,0-3.28.13-4.1,1.1-.56.66-1.06,1.44.39,1.46Z"/>
  <path d="M442.54,54.87c-3.69,73-5.07,146-3.39,219,0,1.09,5.84.18,5.8-1.55-1.68-73-.3-146.1,3.39-219,0-1-5.71-.24-5.8,1.55Z"/>
  <path d="M67.3,285.08q73.36-2.06,146.75-1.35c49.48.49,98.88,2.61,148.34,3.83,27.41.68,54.84.77,82.22-.71,1.76-.1,6.25-2.9,2.41-2.69-49.54,2.67-99.1.09-148.63-1.44q-72.67-2.25-145.4-1.78-41.65.28-83.29,1.45c-1.78,0-6.26,2.8-2.41,2.69Z"/>
  <path d="M63.63,289.39A569.93,569.93,0,0,0,35.14,364c-.37,1.23,1.9,1.09,2.45,1,29-2.33,58.09-3.54,87.18-4.32,28.25-.76,56.59-1.8,84.84-.77,27.18,1,54.18,1.94,81.39,1.58q42.58-.55,85.17-.7,48.55-.09,97.09.83c2,0,6.21-2.93,2.33-3-57.77-1.18-115.55-1-173.32-.25-27.62.34-55.08.22-82.67-1.14-28.51-1.4-57.08-.44-85.59.26-31.88.79-63.76,2-95.56,4.6l2.45,1a569.93,569.93,0,0,1,28.49-74.57c.7-1.51-5-.94-5.77.81Z"/>
  <path d="M447.25,286.3c5.08-5.32,12.1,14.34,13.18,16.71,3,6.58,6,13.14,8.91,19.74s5.7,13.14,8.08,19.89c1.36,3.87,2.19,6.76,1.81,10.93-.1,1.09-.45,2.28-.48,3.34a4.82,4.82,0,0,1-.83,1.8q1.94.74,1.56-.42c-.34-1.9-6.17-.51-5.8,1.55.89,4.92,8.88.38,10.18-2,2-3.69,1.72-9.35.55-13.2a182.24,182.24,0,0,0-7.4-19.14c-5.14-11.9-10.25-24-16-35.58-1.77-3.54-4.08-7.13-8.25-7.92a11.42,11.42,0,0,0-10.1,3.45c-2.31,2.42,3.34,2.23,4.63.88Z"/>
  <path d="M31.53,371.76l366,2.39,102.86.67c1.79,0,6.27-2.64,2.42-2.67l-365.48-2.38L34,369.09c-1.79,0-6.27,2.64-2.42,2.67Z"/>
  <path d="M43.49,370.48a28.7,28.7,0,0,0-15.85,1.3C22.25,374,22.73,379.2,24.46,384c1.46,4,3,8,4.54,12.06,1.29,3.45,2.26,7.66,4.62,10.6,4.75,5.89,14.94,3.17,21.32,2.71,39.86-2.88,79.56-3.19,119.5-2.86,80.81.66,161.63,1.1,242.43,2.13,11.06.14,22.12.42,33.18.45,9.45,0,19-.47,28.1-3.34,14.26-4.51,27.84-16.4,26.74-32.55-.11-1.65-5.94-.5-5.8,1.55,1.16,17-14.45,27.78-29.51,30.25-16.36,2.69-33.88.81-50.39.6q-52.76-.68-105.52-1l-104.93-.85c-34.53-.28-69.12-1.12-103.65-.08-19.24.58-38.37,2.49-57.58,3.4-6.53.31-8.91-2.41-11.08-8.15-1.65-4.38-3.26-8.79-4.92-13.16-1.06-2.77-3.5-7.18-2.43-10.23,1.21-3.48,7.91-2.67,10.8-2.09,1.68.34,6.78-2.3,3.61-2.94Z"/>
  <path d="M234.14,100.92q-16.58,19.25-31.87,39.55c-.23.31-.37.72,0,1q19.18,17.69,37.59,36.19c1.26,1.27,6.71-.85,5.41-2.15q-8.86-8.9-17.9-17.63-4.87-4.7-9.79-9.33c-2.23-2.1-8.3-5.95-8.64-8.81-.32-2.59,5-7.67,6.71-9.86q3.76-4.82,7.6-9.59,8-9.89,16.27-19.51c1.45-1.69-4.24-1.16-5.33.11Z"/>
  <path d="M281.58,175.31q16.82-19,32.36-39.15a.72.72,0,0,0,0-1q-19-17.93-37.14-36.65c-1.24-1.28-6.7.82-5.41,2.15q8.75,9,17.68,17.85,4.81,4.76,9.68,9.46c2.2,2.13,8.22,6.05,8.53,8.91.28,2.59-5.1,7.6-6.84,9.77q-3.82,4.78-7.72,9.49-8.09,9.79-16.51,19.3c-1.46,1.66,4.23,1.15,5.33-.11Z"/>
  <path d="M50.84,323.93l325.81,1.25,92.36.36c3.41,0,4.36-4.51.44-4.52l-325.74-1.25-92.43-.36c-3.41,0-4.36,4.51-.44,4.52Z"/>
  <path d="M251.92,285.56a584.52,584.52,0,0,1-13.57,71.24c-.27,1,5.35.32,5.7-1.07A588.52,588.52,0,0,0,257.72,284c.07-.55-5.58-.12-5.8,1.55Z"/>
  <path d="M115.17,288.79l.5-.16c.7-.23,2.5-.89,2.48-1.92a2.13,2.13,0,0,0-1.19-2.29c-1.06-.76-3.18-.14-4.12.49-4.1,2.78-4.26,10-5.37,14.48q-2.44,9.89-4.75,19.81Q98,339.52,93.8,360c-.49,2.37,5.38,1.49,5.82-.65q3.81-18.53,8-37,2.07-9,4.24-17.94,1.14-4.71,2.32-9.42c.46-1.84.76-7.07,2.28-8.1l-4.12.49h0l2.48-1.92-.5.16c-3.4,1.12-2.64,4.34.85,3.18Z"/>
  <path d="M171.51,287.13a473.58,473.58,0,0,1-7.33,69.78c-.25,1.38,5.46.45,5.72-1a477.35,477.35,0,0,0,7.4-70.33c0-.93-5.74-.17-5.8,1.55Z"/>
  <path d="M314.2,287q-5.29,35.75-8.6,71.74c-.05.56,5.65.06,5.8-1.55q3.31-36,8.6-71.74c.07-.46-5.55-.1-5.8,1.55Z"/>
  <path d="M375.06,288.16a375.59,375.59,0,0,0-4.71,67.52c.06,3.06,4.76,2.38,5.74.23l1.79-3.92c1.42-3.11-4.43-3.34-5.58-.82l-1.79,3.92,5.74.23A375.59,375.59,0,0,1,381,287.8c.5-3.07-5.44-2.43-5.89.36Z"/>
  <path d="M425.46,292q1,32.56-.54,65.12c0,1.05,5.71.29,5.8-1.55q1.54-32.54.54-65.12c0-1.18-5.85-.22-5.8,1.55Z"/>
</svg>
