<svg id="email" xmlns="http://www.w3.org/2000/svg" viewBox="0 0 441.4 423.91">
  <title>email</title>
  <path d="M79.94,18.35c.48-11.94,21.86-9.3,29.32-9.2,15.22.19,30.42,1,45.61,1.84,29.68,1.71,59.4,3.87,89.15,3.12a348.88,348.88,0,0,0,44.1-3.7c11.65-1.79,24.57-6.29,36.42-3.94,14,2.78,16.3,16.79,16,28.94-.37,14.83-1.24,29.66-1.87,44.47l-4.36,102.6c-.18,4.12,7.69,3.09,7.84-.54l4.28-100.62c.69-16.22,1.89-32.52,2-48.76C348.49,20.9,346,8.47,334.49,3c-10.51-5-23-2.61-34-.5A330.21,330.21,0,0,1,251.39,8c-33.28,1.35-66.52-1.33-99.72-3.17-18.06-1-36.27-2-54.37-1.58-9.66.25-24.72,3.57-25.2,15.6-.17,4.12,7.7,3.08,7.84-.54Z"/>
  <path d="M71.23,16.79c-3.66,4.16-3.45,10-4,15.25-.67,7.08-1.1,14.19-1.33,21.3-.44,14.06-.12,28.14.2,42.2.64,28,1.19,56.16-4,83.83-.63,3.36,7.21,2.19,7.77-.8,4.94-26.39,4.68-53.25,4.08-80-.29-13.11-.64-26.22-.44-39.34.1-6.73.35-13.46.83-20.18q.35-4.89.84-9.78c.32-3.18.06-8.23,2.31-10.78,3.11-3.53-4.34-4-6.32-1.71Z"/>
  <path d="M236.06,265.41a802.5,802.5,0,0,1,172-115.4l-5.47-1.4-1.17,190.74-.28,45.7L401.09,397c0,3.28.55,7.28-.39,10.47-1.7,5.77-13.33,7.2-18.47,8.29-24.24,5.14-49.41,3.42-74,2.24-11.22-.54-22.44-.39-33.66-.81-14.56-.54-29-1.15-43.56-.16-31.51,2.15-63.09.77-94.61-.51L42.75,412.7l-23.92-1c-3.42-.14-7.81.55-9.76-2.87C7.21,405.61,8,400.8,8,397.2c0-15.49,0-31,.11-46.48l.49-105.89c.08-17.83.11-35.66.25-53.49C9,174.72,9.63,158.07,14,142L7.1,144.37A1637.85,1637.85,0,0,1,172.37,269.18c2.24,1.93,9.5-1.13,7.14-3.15A1648.59,1648.59,0,0,0,13.18,140.38c-2-1.3-6.28.07-6.92,2.41-4.07,14.91-5,30.29-5.15,45.68-.21,16.4-.18,32.8-.25,49.2L.4,337.57c-.07,16.3-.18,32.6-.19,48.9,0,6.85-.57,14,.17,20.8.64,6,4.51,8.53,10.2,9,16.29,1.46,32.87,1.34,49.21,2l49.83,2c32.66,1.32,65.39,3.24,98.09,2.44,16-.39,32-1.95,48-1.44,13.64.43,27.29.6,40.92,1.06,24.44.83,48.92,3,73.3-.06A148.24,148.24,0,0,0,387.9,419c5.47-1.38,12.2-2.81,16.68-6.44,5.11-4.15,4.23-10.51,4.27-16.47l.16-25.83,1.37-222.53c0-2.61-3.9-2.18-5.47-1.4A816.51,816.51,0,0,0,229.77,263.79c-1.38,1.21-.58,2.52.82,3.08,1.72.68,4.18-.33,5.46-1.46Z"/>
  <path d="M12.62,408.58c42.22-44.9,97.14-74.49,144.33-113.46a360.35,360.35,0,0,0,33.16-30.84c2.54-2.7,5-5.63,8.19-7.62,5.09-3.21,9.28-.49,13.57,2.69,7.11,5.26,14,10.75,21,16.25,27.43,21.82,53.9,44.82,80.89,67.17C328.56,355,343.5,367,359.2,378.17c13.13,9.32,27.35,18.9,34.55,33.82,1.58,3.27,8.89.31,7.05-3.49-6.41-13.27-18.45-22.53-30.13-31-14.64-10.58-29-21.3-43-32.76-28.58-23.41-56.4-47.74-85.23-70.85q-10.72-8.59-21.64-16.92c-5.9-4.49-12.11-9.36-20-7.67-7,1.5-12,6.83-16.68,11.83q-8.4,9-17.49,17.24c-24,21.89-50.81,40.38-77.27,59.12C60,358.35,30.85,379.75,6.09,406.08c-3.35,3.57,4,5.18,6.53,2.5Z"/>
  <path d="M15.22,140.24c-.26-5.44,6-7.36,10-9.21l14.45-6.59,28.89-13.19c1.26-.58,2-1.33.89-2.22s-4.38.46-5.42.93L27.92,126.45c-6.37,2.91-20.86,6.69-20.43,15.87.07,1.58,7.84.26,7.73-2.07Z"/>
  <path d="M410.38,143.9c-3.61-4.52-8.49-7.47-13.26-10.63l-15.83-10.5-32.5-21.55c-2.2-1.46-9.17,1.66-7.19,3l32.5,21.55,15.83,10.5c4.76,3.16,9.65,6.1,13.26,10.63,1.58,2,9-.68,7.19-3Z"/>
  <path d="M15,142.53c0-4,5.89-3.18,8.67-3.18,4.52,0,9,0,13.56,0l27.11,0c1.64,0,4.38-.46,5.06-2.28.6-1.61-.53-2.91-2.27-2.92l-40.67-.06c-6.17,0-19.23.11-19.25,9.09,0,3.77,7.79,2.43,7.79-.72Z"/>
  <path d="M346.07,147.76c.81-1.64,9.11-1.1,11.05-1.15q6.68-.18,13.37.07a231.19,231.19,0,0,1,25.71,2.41c3.42.51,8-4.25,2.83-5a230.87,230.87,0,0,0-36.24-2.54c-6.65.07-20.34-1.77-24,5.7-1.8,3.65,6,3.22,7.3.54Z"/>
  <path d="M116.11,173.59c4.46-6.79,11.51-10.35,19.54-7.84,6.2,1.94,11.15,6.63,17.42,8.42,5,1.43,10.46.47,15.11-1.74a35.43,35.43,0,0,0,6.48-4.26c3.15-2.46,5-4.43,9-2.75,5.17,2.15,9,6.69,14.43,8.38,4.66,1.45,9.85.4,14.21-1.57,6-2.68,10.44-9.1,17.11-9.72,7.79-.72,16.12,3.42,23.55,5.22,14,3.41,29.54,4.61,43.67,1.14.62-.15,3.87-1,3.59-2s-3.68-.09-4.13,0c-15.06,3.69-31.82-.47-46.33-4.64-7.07-2-14.17-3.46-21.49-1.91-6.29,1.34-11,4.56-16,8.36-3.8,2.86-6.16,3.38-10.46,1-2.83-1.56-5.31-3.66-8.08-5.31a17.68,17.68,0,0,0-15.06-1.8,25.63,25.63,0,0,0-6.66,3.14c-2.6,1.71-5.6,5.38-8.63,6.13-3.38.84-7.88-2.13-10.73-3.76-3.21-1.83-6.37-3.83-9.91-5-11.92-3.84-27.38,1.52-34.23,11.94-.34.51,6.39.38,7.6-1.46Z"/>
  <path d="M142.85,208.77c4.48-5.19,10.55-8,17.47-6.88,5.56.92,10.56,3.92,15.83,5.75,11.13,3.87,20,.19,30.45-3.69,11.05-4.08,24-.23,35.45.4,7.66.42,17.34.46,23.36-5.12,3.1-2.87-4.49-2.24-6.07-.78-3.55,3.29-10,2.37-14.43,2.06-5.18-.36-10.35-.91-15.5-1.47-5.71-.62-11.45-1.06-17.14-.06-5.87,1-11.07,3.75-16.67,5.65-11.94,4.05-22.32-6.46-34.17-6.81A32.9,32.9,0,0,0,135.75,209c-1.9,2.21,5.67,1.47,7.1-.19Z"/>
  <path d="M439.44,284.53c1,0,3.1-1.54,1.15-1.54-1,0-3.1,1.54-1.15,1.54Z"/>
  <path d="M16.44,219.9c4.05-7.51-8.68-7.21-9.81-1.4a1.14,1.14,0,0,0,.3,1.13l.51.38c2,1.48,5.84.67,7.52-1a101.09,101.09,0,0,1,26.35-19.19c5.39-2.69.43-5.38-3.41-3.47A113.46,113.46,0,0,0,8,217.65l7.52-1-.37.65L10,219h.76l-2.34-.73,0,1.46c-1.92,3.55,6.75,2.6,8.08.13Z"/>
  <path d="M10.88,256.72a134.83,134.83,0,0,1,25.89-17.27c5.31-2.72.5-6.52-3.65-4.39A152.36,152.36,0,0,0,3.75,254.69c-1.58,1.34-.62,3.07,1,3.67,2.06.78,4.6-.33,6.15-1.65Z"/>
  <path d="M11.73,294a49.81,49.81,0,0,1,22.84-14c5.31-1.53,3.79-7.4-1.57-5.86a62.14,62.14,0,0,0-28.53,17.4c-3.71,4,4.63,5.31,7.26,2.49Z"/>
  <path d="M8.64,328.1A149,149,0,0,1,34.5,312.24c1.41-.68,2.29-1.5,1-2.52s-4.95.49-6.09,1A158.55,158.55,0,0,0,1.91,327.57c-3.57,2.72,5,1.81,6.73.53Z"/>
  <path d="M9.69,356.88l11.23-9.59,5.24-4.48,3-2.56q3.54-2.34-1.29-.85c.35,1.71,9.1-.32,8.69-2.33-.85-4.22-10-.26-12,1.14-8,5.69-15.28,13-22.76,19.41-1.51,1.29,1.36,1.34,2,1.32a10.44,10.44,0,0,0,5.83-2Z"/>
  <path d="M95,402.54a168.67,168.67,0,0,1,35.78-22.33c5.52-2.53.41-4.67-3.28-3a184.78,184.78,0,0,0-39.36,24.32c-1.5,1.21-.85,2.17.71,2.64,1.8.54,4.75-.51,6.15-1.65Z"/>
  <path d="M122.06,402a182.22,182.22,0,0,1,29.88-14.68c1-.37,3.44-1.34,2.53-2.69s-4.75,0-5.63.37a204.28,204.28,0,0,0-33.51,16.49c-1.65,1-.8,1.81.58,2.16,1.87.47,4.59-.7,6.15-1.65Z"/>
  <path d="M148.32,405.72a291.12,291.12,0,0,1,27.74-17.54c1.57-.87,2.16-2.48.7-3.64s-4.72-.06-6.17.75a291.12,291.12,0,0,0-27.74,17.54c-4.79,3.42,2.57,5,5.48,2.89Z"/>
  <path d="M181.66,403.42a53.25,53.25,0,0,1,13.16-9.76c5.22-2.76.54-7.81-3.93-5.44a66.78,66.78,0,0,0-16.56,12.4c-1.5,1.53-.55,3.7,1.19,4.44,2.14.91,4.63-.1,6.15-1.65Z"/>
  <path d="M207,402.53l20.81-9.93c5.42-2.58.5-6-3.55-4l-20.81,9.93c-5.42,2.58-.5,6,3.55,4Z"/>
  <path d="M239.41,404.16l25.95-14.82c1.46-.83,2.25-1.92.85-3.07s-4.9.19-6.13.9L234.13,402c-1.46.83-2.25,1.92-.85,3.07s4.9-.19,6.13-.9Z"/>
  <path d="M272,406.69l13.73-10.48c1.44-1.1.92-2.31-.71-2.64a8.53,8.53,0,0,0-6.15,1.65L265.16,405.7c-1.44,1.1-.92,2.31.71,2.64a8.53,8.53,0,0,0,6.15-1.65Z"/>
  <path d="M213.29,68.89c-7.65-1.65-16.79-2.38-23.6,2.28s-7.61,17-3.29,23.82c4.23,6.63,13.49,5.91,19.64,2.57,9-4.88,10.28-14.89,9-24.17l-7.46,2.5c5.05,6,2,16.55,9.54,21,5.4,3.16,12.7.19,16.32-4.36,9.89-12.44,2.3-31.07-9.55-39-12.92-8.63-33.62-10.73-47.53-3.21-14.22,7.69-18,25.82-12.58,40.18,6.94,18.54,26.23,28,45.3,25.08,3.56-.54,6.52-4.76,1.14-3.95-17.86,2.69-34.78-8.94-39.69-26.14a33.66,33.66,0,0,1,.62-21.15c3.61-9.59,11-13.93,21.06-14.21,15.84-.45,32.83,7.22,37,23.68a24.55,24.55,0,0,1,.23,11.81c-.78,3.25-2.88,9.7-7.11,6.8-2.61-1.79-3.11-6.9-3.64-9.69C218,79,217.22,75.84,214.79,73c-1.42-1.68-7.8,0-7.46,2.5.77,5.59,1,12.2-2.48,17-4.35,6-10.7,2.76-12.39-3.44-1.19-4.37-1.73-11.7,1.58-15.31s10.25-1.8,14.46-.89c2.27.49,9-3,4.8-4Z"/>
</svg>
