<svg id="girl" xmlns="http://www.w3.org/2000/svg" viewBox="0 0 418.67 418.79">
  <title>girl</title>
  <g opacity="0.36">
    <path d="M132.23,141.89c.9,0,3.14-1.34,1.21-1.34-.9,0-3.14,1.34-1.21,1.34Z" transform="translate(-1.47)" fill="#020202"/>
  </g>
  <path d="M73.75,213.26c-.49,39.88,4.89,80.62,17.82,118.45,5.71,16.72,13.51,33,25,46.54A106.29,106.29,0,0,0,154,406.08c59.7,27,129-.79,164.5-53.07,22.79-33.52,31.61-74.71,29.37-114.82-.08-1.47-5.9-.39-5.8,1.55C345.72,305.8,316.4,376.3,252.89,404a116.13,116.13,0,0,1-91.5.74c-30.94-13-50.94-38.86-62.34-69.82-14.36-39-20-81.79-19.51-123.21,0-1.37-5.77-.44-5.8,1.55Z" transform="translate(-1.47)" fill="#020202"/>
  <path d="M112.06,125.35a118.42,118.42,0,0,1-6.15,47.09c-5.42,15.3-15.46,25.29-28.71,34.18-10.58,7.1-21.57,13.85-29.12,24.38-7.05,9.84-9.6,22.36-3.4,33.28,6.48,11.41,19.14,18,31.24,21.75,1.31.41,6.41-1.72,4.77-2.23-14.06-4.37-30-13.49-33.3-29.13-3.8-18.25,11.8-32.76,25.35-42,14.05-9.58,28.4-18.16,36-34.12,7.94-16.75,10.33-36.41,9.15-54.76-.06-1-5.9,0-5.8,1.55Z" transform="translate(-1.47)" fill="#020202"/>
  <path d="M116.69,126.82h.41c1.05,0,3.85-.55,4-2,.45-3.72-5.24-2.63-6.6-.52-1.54,2.38.53,5.94,1.31,8.32,1.31,4,2.7,8,4.38,11.8,6.15,14.09,16.77,25.23,28.62,34.76a161.26,161.26,0,0,0,83.7,34.46c.88.09,5.54-.54,4.67-2.35a123.86,123.86,0,0,1-10.76-72.79c.35-2.24-5.49-1.24-5.79.73a125.31,125.31,0,0,0,10.76,73.62l4.67-2.35a158.44,158.44,0,0,1-70.25-25.11A134.75,134.75,0,0,1,137.49,161a71.62,71.62,0,0,1-10.75-16.52c-1.51-3.26-2.78-6.63-4-10-.61-1.74-4-8.73-2.58-10.41l-4.47,1.51-.4,0,4-2H119c-2.2-.07-6.16,3.16-2.26,3.28Z" transform="translate(-1.47)" fill="#020202"/>
  <path d="M219.43,143.28c1.47,13.15,8.14,24.51,16,34.86a245.15,245.15,0,0,0,28.2,31.24c19.83,18.32,44.72,32.05,72.32,32,1.29,0,6.58-2.46,3.73-2.46-27.61.05-52.25-14.27-71.86-32.73A252.44,252.44,0,0,1,242,177.48c-8.22-10.56-15.23-22.22-16.74-35.75-.13-1.2-6-.06-5.8,1.55Z" transform="translate(-1.47)" fill="#020202"/>
  <path d="M371.31,227.33c8.1,20.07-.14,43.64-20.4,52.42-3.71,1.61-.31,3.31,2.24,2.21,21.84-9.46,33-33.67,24-56.18-.77-1.91-6.49-.16-5.8,1.55Z" transform="translate(-1.47)" fill="#020202"/>
  <path d="M13.68,415.15c-11.26-26.49-5.91-53.61,8.86-77.46A220.13,220.13,0,0,1,45.37,306.9c8.4-9.38,18.28-17.5,30.74-20.52,3.58-.87,2.58-4.59-1-3.73C49.54,288.85,32.4,313.34,18.9,334.2c-7.76,12-14.24,25.14-16.49,39.38A78.87,78.87,0,0,0,7.88,416.7c1,2.45,6.78.77,5.8-1.55Z" transform="translate(-1.47)" fill="#020202"/>
  <path d="M13.92,417.92c19.59-15.61,34.71-36.4,46-58.61,11.5-22.54,19.56-47.32,21.16-72.67.06-1-5.68-.26-5.8,1.55-1.55,24.61-9.37,48.75-20.39,70.7-11.12,22.14-26,43.18-45.48,58.72-2.33,1.86,3.39,1.17,4.47.31Z" transform="translate(-1.47)" fill="#020202"/>
  <path d="M340.72,284.38c-4.81,53.42,24.45,107.34,71.91,132.38,2,1,7.18-1.7,4.53-3.1-46.52-24.54-75.32-77.46-70.6-129.85.24-2.69-5.63-1.74-5.84.57Z" transform="translate(-1.47)" fill="#020202"/>
  <path d="M346.46,288.85c5.56-.26,12.73,7.16,16.66,10.53A129.2,129.2,0,0,1,375.86,312,149.77,149.77,0,0,1,396,341.22a159.92,159.92,0,0,1,18.31,72.43c0,3,5.89,2,5.86-.47A163.5,163.5,0,0,0,399.83,336a147.45,147.45,0,0,0-23.2-31.45,133.3,133.3,0,0,0-13.55-12.17c-4.77-3.72-9.7-8-16.06-7.66-3.24.15-4.51,4.31-.55,4.12Z" transform="translate(-1.47)" fill="#020202"/>
  <path d="M46.64,235c-13.42-13.82-15.9-33.72-16.5-52.14-.72-22.11.31-44.78,7.54-65.87,13.7-40,47.18-66.92,80.6-90.43C154.28,1.22,203.46-1.16,245.37,8c18.57,4.05,37.29,10.77,53.29,21.2,12.16,7.92,23,18,33,28.38a253.57,253.57,0,0,1,33.66,42.73c7.9,12.83,15.37,27.54,16,42.89.07,2,5.88.78,5.8-1.55-.52-14-6.85-27.3-13.72-39.21a240,240,0,0,0-31.21-41.75c-10.44-11.4-21.75-22.18-34.32-31.22-15.24-11-33.29-18.17-51.36-22.91A210.52,210.52,0,0,0,192,.33c-21.56,1.15-43.38,5.44-62.7,15.39-9.76,5-18.49,11.62-27.13,18.33-9.35,7.27-18.94,14.32-27.85,22.12C59.13,69.47,46.21,85.65,37.51,103.91,26.74,126.51,23.94,151.2,24.18,176c.21,21.27,1.41,45.16,17.1,61.31,1.47,1.52,7-.65,5.37-2.31Z" transform="translate(-1.47)"/>
  <path d="M382,140.78c3.3,15,3.25,30.39,3.08,45.71-.16,14.45-1.68,28-11.74,39.2-2.42,2.69,3.13,3.5,4.83,1.62,10.15-11.27,12.54-24.8,12.76-39.53.24-16.24.38-32.61-3.12-48.55-.57-2.6-6.38-1.1-5.8,1.55Z" transform="translate(-1.47)"/>
  <path d="M130.82,236.59a2.26,2.26,0,0,1-.61-2l-4.72,2.18c15.59,2,20.15,25.13,16.39,37.41-1.07,3.48-4.16,9.81-8.4,5.79-3.38-3.21-3.06-8.34-2.05-12.47A35.5,35.5,0,0,1,144,248.27c2.46-2-3.3-1.62-4.56-.62-7.66,6.1-14.4,15.75-14.52,25.91-.12,9.67,9.62,14.12,17.17,8.47s8-18.65,6-27.13c-2.25-9.32-8.68-19.62-19-20.93-1.23-.16-4.82.4-4.72,2.18a2.26,2.26,0,0,0,.61,2c1,1.71,6.52-.33,5.8-1.55Z" transform="translate(-1.47)"/>
  <path d="M269.76,229.83c2.05-1,6.8,7.48,7.36,8.48a51.23,51.23,0,0,1,4.09,9.28c2.1,6.43,3.72,14.43,1.26,21-1.77,4.72-7.84,8-11.09,2.86-1.87-2.94-1.72-6.4-.64-9.62,2.34-7,7.64-13,13-17.85,1.38-1.25-4.15-.77-5.29.26-6.62,6-18.29,18.51-13.17,28.37,3.72,7.17,14.16,5,19.21.6,8.2-7.22,4.85-21.64,1.35-30.32-3.43-8.51-9-19-19.51-14.09-3.47,1.63,1.87,1.8,3.42,1.07Z" transform="translate(-1.47)"/>
  <path d="M109.61,127.71c-.3,14.53-1.41,29.31-6.16,43.15-5.35,15.57-15.57,27.46-29.8,35.65-3.37,1.94,1.75,2.6,3.55,1.56,13.69-7.88,24.33-18.9,30.38-33.61,6.17-15,7.48-31.49,7.81-47.53,0-2.26-5.75-1-5.78.77Z" transform="translate(-1.47)"/>
  <path d="M195.24,285.56A70.15,70.15,0,0,1,182.36,318c-1.13,1.55,1.5,1.91,2.36,1.86a52.33,52.33,0,0,1,19.93,2.75c2,.67,6.79-2.24,3.5-3.34a59.33,59.33,0,0,0-22.7-2.87l2.36,1.86a72.39,72.39,0,0,0,13.27-33.34c.32-2.46-5.54-1.47-5.81.66Z" transform="translate(-1.47)"/>
  <path d="M5.23,380.46C9.39,384,16.43,392.88,22.32,387c2.46-2.45,2.61-6.91,3.31-10.11.36-1.61,2.39-14.84,3.16-15H26.11C29.37,363,32.46,367,35,369.28c1.39,1.27,4.91.12,5.59-1.5,6.1-14.62.34-31.49,7.61-45.72l-5.38,1.09A186.39,186.39,0,0,1,58.35,349c.95,1.9,6.58,0,5.8-1.55a191.27,191.27,0,0,0-16-26.53c-.93-1.29-4.76-.13-5.38,1.09-7.47,14.61-1.79,31.6-8,46.53l5.59-1.5c-2.79-2.54-6.66-8-10.78-8.14a6.69,6.69,0,0,0-6.43,4.18c-2,5-2.54,11.13-3.69,16.37a42.83,42.83,0,0,1-1,4.46c-.62,1.83.78,1.15-.37.65-2.47-1.09-5.43-4.6-7.47-6.34-1.5-1.27-6.88,1-5.39,2.23Z" transform="translate(-1.47)"/>
  <path d="M280.77,89.79c1.15,0,6.52-2.21,3.8-2.21-1.15,0-6.52,2.21-3.8,2.21Z" transform="translate(-1.47)"/>
  <path d="M279.06,180.44l36.5-17.33-3.08-2.57-32.17,19.9,3.73,2.21a310.84,310.84,0,0,1,26.78-16.77l-3.08-2.57a266.6,266.6,0,0,1-28.43,14.33l2.44,2.93,38.54-19.75-3.08-2.57a239.87,239.87,0,0,1-33.25,18.39l3.08,2.57a285.86,285.86,0,0,1,32.68-19.07l-3.08-2.57a236.35,236.35,0,0,1-41.48,21.66l3.08,2.57c14.62-8.84,29.38-17.69,45.65-23.18l-1.68-3.2A265.18,265.18,0,0,0,281,176.72c-3.36,2.13,1.61,3.45,3.73,2.21l31.1-18.26-3.73-2.21-33.24,21.85c-2.62,1.72.28,3.47,2.33,2.84a12.38,12.38,0,0,0,5-2.82c2.58-2.33-3.09-2.86-4.75-1.35l-1.19.71,2.33,2.84,33.24-21.85c3.35-2.2-1.63-3.44-3.73-2.21L281,176.72l3.73,2.21a256.59,256.59,0,0,1,39.86-20.57c3.11-1.28,1.13-4.15-1.68-3.2-17.28,5.84-32.91,15-48.45,24.44-3.19,1.93,1.11,3.36,3.08,2.57a244,244,0,0,0,42.78-22.38c3-2-1-3.6-3.08-2.57a297.15,297.15,0,0,0-34,19.79c-3,2.05,1,3.49,3.08,2.57a249.38,249.38,0,0,0,34.54-19.11c3-2-1-3.63-3.08-2.57L279.3,177.65c-3.58,1.83-.37,4.14,2.44,2.93a278.92,278.92,0,0,0,29.72-15.05c3-1.76-1-3.74-3.08-2.57a325.18,325.18,0,0,0-28.07,17.49c-3.28,2.29,1.64,3.5,3.73,2.21l32.17-19.9c3.08-1.91-1-3.54-3.08-2.57l-36.5,17.33c-3.6,1.71-.36,4.25,2.44,2.93Z" transform="translate(-1.47)"/>
  <path d="M289,155.08a175.72,175.72,0,0,0,15.53,39.45c.93,1.73,5.67.47,5.59-1.5-.57-14.54-12-25.11-14.49-39.13l-5.8,1.55q5.51,15.2,10,30.73c.72,2.49,6.51.93,5.8-1.55q-4.47-15.53-10-30.73c-.89-2.44-6.25-1-5.8,1.55,2.39,13.58,13.89,24.09,14.43,38.09l5.59-1.5a171.58,171.58,0,0,1-15.06-38.52c-.65-2.5-6.45-1-5.8,1.55Z" transform="translate(-1.47)"/>
  <path d="M9.4,393.78l-.05,12.28c0,2.74,5.75,1.71,5.84-.57l.43-11.95L9.8,394.61a38.64,38.64,0,0,1,1.33,12.29l5.82-1.06L14.78,388.6c-.28-2.22-5.85-1-5.82,1.06l.1,6.8,5.59-1.5A29.93,29.93,0,0,1,11,387.09c-.71-2.39-6.11-.87-5.8,1.55A32,32,0,0,0,9,400c1.06,2,5.79.13,5.57-2a41.43,41.43,0,0,0-3.14-12.21c-1-2.26-6.22-.92-5.8,1.55a73.07,73.07,0,0,0,7.82,22.54c.89,1.65,4.82.41,5.41-1l4.94-11.81-5.65.08a8.52,8.52,0,0,1-2.58,7l5.28-.1a22.93,22.93,0,0,1,1.62-9.72c1.22-3.11-4.35-2-5.47-.41A54,54,0,0,0,9.5,409.21c-.86,2.76,4.84,1,5.65-.08a66.55,66.55,0,0,0,8-14.4l-5.65.08a17.1,17.1,0,0,1-3.94,9.3l5.11.88,9.38-16.46-5.65.08a51.35,51.35,0,0,1-6.78,12.9c-1.67,2.34,4,2.31,5.11.88A86.52,86.52,0,0,0,31.88,385l-5.47-.41a66.21,66.21,0,0,1-12.56,18.64l4.76,1.36a58,58,0,0,0,11.2-17.78c1.18-3-4.46-2.31-5.47-.41a86.29,86.29,0,0,1-12.81,18l5.11.88a15.39,15.39,0,0,0,1.05-15l-5.17,2.32c4.51,3,5.62,11.77.25,14.67l4,1.67a18.22,18.22,0,0,0-2.08-21.54l-2.21,2.95c3.19-.75,6.44,2.2,9.43,3a12.34,12.34,0,0,0,6.08,0c3.56-.84,7-3.15,6.35-7.15-.37-2.42-5.44-.75-5.82,1.06a41.89,41.89,0,0,1-6.09,14.77l5.47.41,3.86-10.09c1.13-3-4.5-2.36-5.47-.41a49,49,0,0,1-8.5,12.08l5.11.88L32.95,384.8c1.17-2.34-2.76-2.23-4-1.67l-.51.24c-.62.29-1.68.94-1.7,1.75,0,1,0,1.38.74,2.11a3.27,3.27,0,0,0,3.14.53c5.36-1.62,7.87-8.48,9.94-13.2l-5.65.08a23.24,23.24,0,0,1-5,12.23l5.11.88a44.56,44.56,0,0,1,5.55-10.15l-5.65.08c0,3.56-1.14,6.6-4.08,8.77l4.76.33-1.81-12.18c-.35-2.33-5-.76-5.63.57l-2.57,5.06,5.63-.57-1.11-7.41c-.34-2.23-5.83-1-5.82,1.06l0,6.33c0,2.75,5.84,1.7,5.84-.57l0-7.66c0-2.74-5.62-1.71-5.84.57a8.55,8.55,0,0,0,1.46,5.92c1.06,1.66,5.42.39,5.59-1.5L32,369.8,28,372a5.31,5.31,0,0,1,4.42,1.56c1.24,1,6-.23,5.17-2.32A10.76,10.76,0,0,0,35,367.15c-1.53-1.5-7,.16-5.34,2.42l4,5.26c1.18,1.57,6.55.08,5.57-2a15.84,15.84,0,0,0-6.62-7.29c-1.33-.78-4.4-.28-5,1.34-2.2,5.86,2.64,10.57,8.5,10l-2.42-2.09L29.15,385.3c-1.21,2.86,4.56,2.45,5.47.41A49.91,49.91,0,0,1,42,373.87l-5.3-.39-4.32,12.45c-.82,2.37,4.86,1.56,5.65-.08l9.87-20.31-5.65.08a17.33,17.33,0,0,1-4,10l5.3.39a58.48,58.48,0,0,1,6.93-14.41l-5.65.08-1.58,6c-.68,2.61,5.1,1.44,5.84-.57l4-11.05-5.84.57a116.69,116.69,0,0,1-7.46,19.83l5.65-.08a22.17,22.17,0,0,1,2.17-6.73c1.48-2.91-4.33-2-5.47-.41L25.78,392l5.47.41,25.19-42.9-5.63.57a18.43,18.43,0,0,1-2.09,11.49l5.65-.08.32-5.89c.14-2.53-4.31-1.63-5.3-.39A138,138,0,0,0,28.72,391c-1.1,2.83,4,2.33,5.11.88A74.67,74.67,0,0,0,49.64,344c-.08-2.74-5.79-1.71-5.84.57l-.15,8.18,5.84-.57-.88-22.75-5.82,1.06a89.11,89.11,0,0,0,8.7,15.45c1.31,1.86,6.81-.1,5.34-2.42l-2.6-4.13c-1.12-1.77-5.24-.29-5.59,1.5a13.74,13.74,0,0,0,.8,8.38c.82,2,4.13,1,5.28-.1l.37-.37c.31-.31.71-1,.52-1.45-.94-2.31-3.78-2.6-5.83-1.54a3.36,3.36,0,0,0-2,2.49c-.26,1.24,1.77,4.8,1.16,5.38-2.54,2.4,3.11,2.91,4.76,1.36A3.38,3.38,0,0,0,55,352.33c0-.44-1.22-4.53-1.81-4.16l-3.58.67.37-1.06,5.28-.1a12.1,12.1,0,0,1-.76-7.4l-5.59,1.5,2.6,4.13,5.34-2.42a84.23,84.23,0,0,1-8.25-14.58c-.86-1.95-5.9-1.16-5.82,1.06l.88,22.75c.11,2.74,5.79,1.71,5.84-.57l.15-8.18-5.84.57a71.76,71.76,0,0,1-14.73,46l5.11.88a134.31,134.31,0,0,1,20-34.89l-5.3-.39L48.54,362c-.15,2.76,4.83,1.48,5.65-.08a21.83,21.83,0,0,0,2.41-13.45c-.31-2.4-4.92-.64-5.63.57L25.78,392c-1.6,2.72,4.29,2.05,5.47.41l16.38-22.74-5.47-.41A25.44,25.44,0,0,0,39.62,377c-.43,2.69,4.9,1.48,5.65-.08a122.56,122.56,0,0,0,7.82-20.82c.71-2.57-5.09-1.46-5.84.57l-4,11.05,5.84-.57,1.58-6c.72-2.76-4.84-1.16-5.65.08a62.23,62.23,0,0,0-7.29,15.4c-.79,2.47,4.48,1.37,5.3.39A20.86,20.86,0,0,0,48.05,365c.24-2.73-4.88-1.51-5.65.08l-9.87,20.31,5.65-.08,4.32-12.45c.84-2.43-4.48-1.36-5.3-.39a54.22,54.22,0,0,0-8.06,12.8l5.47.41,4.45-10.51c.69-1.63-1.09-2.22-2.42-2.09-2.92.29-4.56-3.42-3.67-5.81l-5,1.34a12.54,12.54,0,0,1,5.36,5.75l5.57-2-4-5.26-5.34,2.42a6.43,6.43,0,0,1,2.2,3.2L37,370.44a10.37,10.37,0,0,0-6.83-2.25c-1.22,0-3.83.51-4,2.18L25.59,377l5.59-1.5a5,5,0,0,1-1-4.08l-5.84.57,0,7.66,5.84-.57,0-6.33-5.82,1.06,1.11,7.41c.35,2.33,5,.76,5.63-.57l2.57-5.06-5.63.57,1.81,12.18c.28,1.91,3.86,1,4.76.33,3.89-2.89,6.18-6.63,6.19-11.56,0-2.93-4.67-1.27-5.65.08a44.56,44.56,0,0,0-5.55,10.15c-1.11,2.85,4,2.29,5.11.88a27,27,0,0,0,6-14.16c.31-2.67-4.93-1.56-5.65.08s-3.71,9.62-5.4,10.14l3.14.53-.24-.27-1.7,1.75.51-.24-4-1.67L17.39,404.63c-1.42,2.85,4,2,5.11.88a53,53,0,0,0,9.22-13l-5.47-.41-3.86,10.09c-1.18,3.08,4.37,2.1,5.47.41a44.71,44.71,0,0,0,6.46-15.75l-5.82,1.06c.72,4.72-8.68-.45-10-.83a12.69,12.69,0,0,0-7-.13c-.94.22-3.38,1.63-2.21,2.95a15.73,15.73,0,0,1,1.95,18.7c-1.31,2.25,2.84,2.28,4,1.67,7.79-4.2,9.81-15.42,1.85-20.7-1.22-.81-6.14.2-5.17,2.32a13.08,13.08,0,0,1-.73,13c-1.63,2.62,4,2.08,5.11.88a91,91,0,0,0,13.53-19l-5.47-.41a54.53,54.53,0,0,1-10.48,16.84c-2.41,2.64,3.2,3,4.76,1.36A69.81,69.81,0,0,0,31.88,385c1.28-2.82-4.51-2.42-5.47-.41A81.54,81.54,0,0,1,16,401l5.11.88A54.87,54.87,0,0,0,28.26,388c.87-2.47-4.82-1.38-5.65.08l-9.38,16.46c-1.51,2.65,4,2.19,5.11.88a20.9,20.9,0,0,0,5-11.23c.33-2.64-5-1.61-5.65.08a66.55,66.55,0,0,1-8,14.4l5.65-.08a50.78,50.78,0,0,1,7.11-14.31L17,393.92A27.6,27.6,0,0,0,15,405.61c.1,2.23,4.49.7,5.28-.1A11.38,11.38,0,0,0,24,396.59c-.09-2.61-4.9-1.73-5.65.08l-4.94,11.81,5.41-1a70.42,70.42,0,0,1-7.37-21.67l-5.8,1.55a41.43,41.43,0,0,1,3.14,12.21l5.57-2A29.5,29.5,0,0,1,11,387.09l-5.8,1.55a33.38,33.38,0,0,0,4.06,8.74c1,1.56,5.62.44,5.59-1.5l-.1-6.8L9,390.15l2.16,17.24c.28,2.26,5.71.94,5.82-1.06a42,42,0,0,0-1.37-13.27c-.59-2.21-5.74-1-5.82,1.06l-.43,11.95,5.84-.57.05-12.28c0-2.75-5.83-1.7-5.84.57Z" transform="translate(-1.47)"/>
  <path d="M47.55,355.73c-3.9,3-4.9,9.18-6.29,13.56-2.1,6.6-4.51,15.3-10.94,19l4.63-.17c0-2.49-.43-4.94-.49-7.43,0-1.74-5.3.15-5.77,1.22-1.6,3.56-3.95,6.67-5.81,10.09l5.77-1.22c0-4.37-.23-8.74.05-13.1l-5.77,1.22q0,2.08,0,4.15l5.8-1.55c-.22-5.72-1.59-12.31,2.81-16.81l-5.37,1.14c12.48,14.73-1.35,37.57-15.08,46.12l4.39.53c7.63-11.88,17.32-22.33,25.8-33.59C48.93,368.72,57.33,357,58.69,344l-5.77,1.22c.39,7.24-2.45,13.72-4.51,20.5l5.77-1.22c-.69-7.95,2.06-15.68,4.25-23.2.49-1.68-5.15-.67-5.75.88-3.23,8.34-6,16.82-10.24,24.75-.64,1.21,4.89.75,5.75-.88,4.19-7.92,7-16.41,10.24-24.75l-5.75.88c-2.25,7.76-5,15.68-4.29,23.87.14,1.66,5.4,0,5.77-1.22,2.14-7,5-13.68,4.56-21.17-.08-1.48-5.62-.24-5.77,1.22-1.39,13.3-10,25-17.89,35.34-8.24,10.82-17.54,20.93-24.9,32.4-1.32,2.06,3.69,1,4.39.53,14.89-9.29,30.87-33.14,17-49.46-1.08-1.27-4.48.23-5.37,1.14-4.83,5-3.53,11.89-3.29,18.19.06,1.43,5.79.34,5.8-1.55q0-2.08,0-4.15c0-1.38-5.68-.31-5.77,1.22-.29,4.59-.1,9.18-.09,13.78,0,1.81,5.27-.28,5.77-1.22,1.87-3.43,4.2-6.52,5.81-10.09l-5.77,1.22c.06,2.49.45,4.94.49,7.43,0,1.46,4.13.12,4.63-.17,6-3.46,9.14-9.49,11.46-15.82,1.23-3.35,2.2-6.79,3.33-10.18.75-2.26,1.51-5.69,3.52-7.22,2.46-1.87-3.3-1.48-4.54-.54Z" transform="translate(-1.47)"/>
  <path d="M414.48,413.84c2.09,0,6.18-3.15,2.29-3.15-2.09,0-6.18,3.15-2.29,3.15Z" transform="translate(-1.47)"/>
  <path d="M33.23,382.43l-3-4c-.86-1.15-5.12.39-5.59,1.5a47.57,47.57,0,0,0-3.35,11.89c-.23,1.55,5.41.49,5.73-1l1.86-8.38-5.73,1a47.71,47.71,0,0,1-1.49,6.7l5.76-1.26a10.05,10.05,0,0,1,.78-4.48l-5.73,1a17.28,17.28,0,0,0-.45,6.89c.2,1.62,5.27-.4,5.76-1.26l3.68-6.48-5.76,1.26a15.34,15.34,0,0,1,.35,7.31c-.31,1.68,5.13.19,5.73-1l2.9-5.57-5.76,1.26-.51,5.6c-.12,1.28,5.27-.23,5.76-1.26l2.21-4.67-5.76,1.26-.82,2.21c-.66,1,4.69.23,5.5-.65,5.14-5.61,6-11.5,6.63-18.8.11-1.23-4.22.12-4.59.31a7.37,7.37,0,0,0-4.15,4.37l5.76-1.26a9.17,9.17,0,0,1,1.22-5.65l-5.73,1a13.49,13.49,0,0,0-.08,4.69c.25,1.67,5.25-.44,5.76-1.26L45,365.93l-5.76,1.26a14.2,14.2,0,0,1,1.21,7.48c-.11,1.19,5.31-.1,5.76-1.26l2.42-6.21-5.76,1.26-.56,5.45c-.11,1,5.43.12,5.76-1.26a34.49,34.49,0,0,1,3.78-9.45l-5.73,1q-2.25,7.26-5.09,14.29c-.47,1.15,5.09.57,5.73-1l13.89-33.25-5.76,1.26-.43,9.6c-.05,1.22,5.37-.07,5.76-1.26L62,348.45c.45-1.37-5.09-.39-5.73,1l-6.5,13.83c-.49,1,5,.58,5.73-1L62,348.45l-5.73,1-1.77,5.38,5.76-1.26.43-9.6c.06-1.31-5.31.19-5.76,1.26L41,378.45l5.73-1q2.85-7,5.09-14.29c.47-1.51-5.06-.19-5.73,1a34.49,34.49,0,0,0-3.78,9.45l5.76-1.26.56-5.45c.12-1.17-5.31.09-5.76,1.26l-2.42,6.21,5.76-1.26A14.2,14.2,0,0,0,45,365.64c-.71-1.62-5.13.26-5.76,1.26l-4.86,7.71,5.76-1.26a8.66,8.66,0,0,1,0-4.11c.29-1.7-5.13-.19-5.73,1a11.18,11.18,0,0,0-1.29,6.23c.08,1.4,5.37-.17,5.76-1.26a3.42,3.42,0,0,1,1.81-2.47l-4.59.31c-.61,6.76-1.34,12.39-6.1,17.59l5.5-.65c1-1.47.77-1,.88-2.79.08-1.33-5.28.25-5.76,1.26l-2.21,4.67,5.76-1.26.51-5.6c.12-1.33-5.26.3-5.76,1.26L26,393.07l5.73-1a16.92,16.92,0,0,0-.28-7.9c-.44-1.64-5.23.33-5.76,1.26L22,391.95l5.76-1.26a16.32,16.32,0,0,1,.38-6.3c.36-1.42-5.24-.5-5.73,1a15.91,15.91,0,0,0-.85,5.06c0,1.24,5.4-.05,5.76-1.26a47.71,47.71,0,0,0,1.49-6.7c.23-1.55-5.41-.49-5.73,1l-1.86,8.38,5.73-1a47.57,47.57,0,0,1,3.35-11.89l-5.59,1.5,3,4c.87,1.16,6.42-.73,5.45-2Z" transform="translate(-1.47)"/>
  <path d="M14.92,386.93l-4.18-6.69c-1.09-1.75-4.86-1-5.43.91a3.47,3.47,0,0,0,1.07,3.95c2.05,1.88,7-1.16,4.42-3.5a.25.25,0,0,1,.09.38l-5.43.91,4.18,6.69c1.49,2.39,7,.07,5.28-2.64Z" transform="translate(-1.47)"/>
  <path d="M345.88,331.82,347,333a2.36,2.36,0,0,0,1.53.39,6.17,6.17,0,0,0,2.27-.47c.59-.25,2.49-1.21,1.61-2.09l-1.14-1.14a2.36,2.36,0,0,0-1.53-.39,6.17,6.17,0,0,0-2.27.47c-.59.25-2.49,1.21-1.61,2.09Z" transform="translate(-1.47)"/>
  <path d="M353,335.06l5.63-21.47-5.81,1.09q6.58,18.85,11.73,38.15c.6,2.24,5.48.75,5.81-1.09a34.32,34.32,0,0,1,8.44-17.34l-5.26.16,10.59,28.26c.76,2,4.89.93,5.62-.62l5.25-11-5.62.62a180.13,180.13,0,0,0,17,31.06c1.23,1.8,6.83-.21,5.35-2.37a175.3,175.3,0,0,1-16.56-30.24c-.84-2-4.86-1-5.62.62l-5.25,11,5.62-.62L379.33,333c-.71-1.91-4.24-1-5.26.16a38.1,38.1,0,0,0-9.55,19.19l5.81-1.09q-5.15-19.29-11.73-38.15c-.79-2.26-5.33-.73-5.81,1.09l-5.63,21.47c-.62,2.36,5.25,1.56,5.82-.62Z" transform="translate(-1.47)"/>
  <path d="M379.82,378.09a32.74,32.74,0,0,0,6.79,11.74c1.18,1.32,5.47.52,5.59-1.5A35.61,35.61,0,0,0,390,373.5c-.84-2.24-6.1-.8-5.8,1.55a36,36,0,0,0,5.91,15.6c1.18,1.78,5.79.15,5.57-2a33,33,0,0,0-2.5-9.79l-5.8,1.55,6.06,13.22c.86,1.87,5.84,1.06,5.81-1.08l-.12-9.56-5.81,1.08a48,48,0,0,0,5.91,14.52c.94,1.55,5.58.33,5.59-1.5l0-9.56L399,388.66a53.61,53.61,0,0,0,3.36,10.48c.88,2,5.53,1,5.81-1.08a18.64,18.64,0,0,0-1.13-9.73c-.86-2.2-6.25-.8-5.8,1.55l2.47,12.69c.46,2.36,5.9.74,5.8-1.55l-.49-11c-.1-2.28-5.43-.65-5.81,1.08a23,23,0,0,0,.65,12.72c.78,2.33,5.95.75,5.8-1.55L409,392.2l-5.8,1.55a90.41,90.41,0,0,0,2.6,12.3c.61,2.15,5.63.86,5.81-1.08a26,26,0,0,0-1.24-11l-5.8,1.55a24.9,24.9,0,0,1,2.52,8.22c.3,2.31,5.87.77,5.8-1.55a76,76,0,0,0-1.29-11.65l-5.8,1.55,3.47,16.36c.47,2.2,5.63.82,5.81-1.08a21.53,21.53,0,0,0-1-9.05c-.67-2.07-5.76-.93-5.81,1.08l-.21,8.59,5.81-1.08a22.89,22.89,0,0,0-13.45-19.52c-1.65-.76-5.3,0-5.18,2.28l.41,7.42,5.8-1.55a13.08,13.08,0,0,0-7.7-9.52c-1.12-.51-6.21.09-5.18,2.28a93,93,0,0,0,7.18,12.59c1.09,1.61,6.49,0,5.57-2a25.39,25.39,0,0,0-6.63-8.78c-1.61-1.37-7.18.62-5.35,2.38l6.16,5.93c1.21,1.16,6.6.21,5.57-2A51,51,0,0,0,393.86,385c-1.4-1.64-6.88.2-5.35,2.38l10.3,14.69,5.35-2.38-3.28-4.16c-1.34-1.7-6.73.08-5.35,2.38l3.79,6.34c1,1.68,6.42,0,5.57-2L401.3,394l-5.18,2.28,4,2.34c1.47.86,6.37-.41,5-2.7a148.3,148.3,0,0,0-19.39-25c-1.2-1.25-6.53-.2-5.57,2l6.7,15.11c1,2.16,6.15.84,5.8-1.55A29.19,29.19,0,0,0,383,368.66c-1.19-1.06-5.65-.68-5.59,1.5a36.51,36.51,0,0,0,2.42,12.38c.85,2.21,6.5.69,5.8-1.55a35.91,35.91,0,0,0-9.06-15c-1.35-1.34-6-.4-5.57,2a39.49,39.49,0,0,0,7.47,17c1.15,1.53,6.21.21,5.57-2a24.52,24.52,0,0,0-6.43-10.87c-1.47-1.45-6.81,0-5.35,2.38l7.23,11.7c1,1.7,6.08.16,5.57-2a25,25,0,0,0-4.25-9.19c-1.17-1.62-6-.22-5.57,2a23,23,0,0,0,5.83,11.34c1.36,1.47,5.88.34,5.57-2a19.4,19.4,0,0,0-3.18-8.38c-1.2-1.83-6.8.16-5.35,2.38a98.7,98.7,0,0,0,13.94,17.11c4.48,4.34,12.4,8.39,14.42,14.5.68,2.07,5.74.93,5.81-1.08a49.15,49.15,0,0,0-4.82-23.5c-1-2.18-6.73-.48-5.8,1.55l2.2,4.8c.9,2,4.8,1,5.62-.61a9.21,9.21,0,0,0,1-6.14c-.38-2.35-5.87-.74-5.8,1.55a8.89,8.89,0,0,0,1,4.12c1,2.13,6.08.87,5.8-1.55a17.49,17.49,0,0,0-1.86-6.17c-1-2-5.38-1-5.81,1.08a7.62,7.62,0,0,0,1.62,6.84c1.15,1.48,6.46.09,5.57-2a90.71,90.71,0,0,0-9.32-16.57c-1.28-1.8-5-.12-5.59,1.5a14.62,14.62,0,0,0-.6,8.57l5.8-1.55-3.67-9.92c-.8-2.15-5.46-.87-5.81,1.08a19.71,19.71,0,0,0,.62,9.93c.71,2.25,6.35.75,5.8-1.55l-2.13-8.84c-.57-2.36-5.93-.74-5.8,1.55l.18,3c.13,2.13,5.69.86,5.81-1.08.33-5.28.28-10.51.79-15.79l-5.82.62a42.05,42.05,0,0,0,1.91,17.28c.67,2,5.87.93,5.81-1.08a31.12,31.12,0,0,0-3-12.82c-1-2.19-6-.84-5.8,1.55a64,64,0,0,0,3.27,16.47c.76,2.25,6.19.78,5.8-1.55a59.18,59.18,0,0,0-3.78-13.09c-.92-2.19-6.14-.82-5.8,1.55l2.16,15.08,5.57-2a67,67,0,0,1-9.35-14.82c-1-2.22-5.92-.82-5.8,1.55l.23,4.3,5.8-1.55q-6.28-14-13.27-27.65c-.92-1.79-5.84-1.13-5.81,1.08l.27,18.19c0,2.66,5.82,1.56,5.82-.62v-9.2l-5.81,1.08.27,6c.1,2.25,5,.59,5.62-.61a19.24,19.24,0,0,0,2.11-10.65l-5.8,1.55a46.74,46.74,0,0,1,1.45,9.24c.13,2.25,5.48.7,5.81-1.08l1.79-9.57L375,351.65a80.64,80.64,0,0,1,0,12.93l5.81-1.08-1.25-9.24c-.3-2.2-5-.72-5.62.61a10.39,10.39,0,0,0-.95,6c.28,2.29,5.89.79,5.8-1.55a123.81,123.81,0,0,1,1-21.82L374,338.58c1.56,10.72.3,26.91,14.76,28.44l-1.65-2a9.7,9.7,0,0,0-1,8,1.55,1.55,0,0,0,1.16.95,21.18,21.18,0,0,1,16.36,16.14c.59,2.58.7,5.21,3.92,5.53a5.43,5.43,0,0,0,5.2-2.58l-5.62.61.62,5.34,5.8-1.55-2.25-18.24-5.8,1.55a74.6,74.6,0,0,1,3.37,29.37l5.81-1.08L400.6,363c-.72-2.35-5.93-.73-5.8,1.55a39,39,0,0,0,2.14,10.8c.73,2.09,5.62.92,5.81-1.08a10.54,10.54,0,0,0-.66-5.28c-.83-2.21-6.23-.79-5.8,1.55l2.2,12,5.57-2-14-15.89c-1.23-1.4-4.59-.5-5.4,1l-3.22,6,5.4-1-7.45-7.24c-1.51-1.47-4.94-.4-5.59,1.5a20.23,20.23,0,0,0-1,8.14l5.57-2-5.44-8c-1.09-1.6-5.35-.32-5.59,1.5a13.94,13.94,0,0,0,.63,6.76l5.8-1.55a61.5,61.5,0,0,0-11.27-19.74c-1.18-1.4-6.38-.21-5.57,2l4,10.84c.75,2,5.71,1,5.81-1.08a29.34,29.34,0,0,0-2.57-14c-1-2.16-6.1-.84-5.8,1.55a17.69,17.69,0,0,0,4.26,9.62c1.18,1.39,5.43.47,5.59-1.5a10.67,10.67,0,0,0-.69-5.26c-.84-2.21-6.26-.79-5.8,1.55a19.16,19.16,0,0,0,1.92,5.43c1,1.91,5.49,1.08,5.81-1.08a12.13,12.13,0,0,0-.58-6.33l-5.57,2,3.08,3.21c1.2,1.25,6.53.2,5.57-2a229.74,229.74,0,0,1-10.58-28.93c-.68-2.32-6-.76-5.8,1.55a95.75,95.75,0,0,0,3.09,17c.64,2.33,6,.76,5.8-1.55a47.77,47.77,0,0,0-2.56-11.92c-.73-2.08-5.65-.93-5.81,1.08a43.47,43.47,0,0,0,1,13.64c.55,2.38,5.89.72,5.8-1.55A45.3,45.3,0,0,0,361,333c-.69-2.29-6.09-.78-5.8,1.55l1.25,9.9c.28,2.23,6,.85,5.8-1.55l-1-9.38c-.24-2.24-6-.84-5.8,1.55l.49,7.37,5.57-2a21,21,0,0,1-1.59-18.21l-5.82.62a111.6,111.6,0,0,0,2.3,26.15c.47,2.27,6.23.8,5.8-1.55l-1-5.18c-.4-2.2-5.66-.82-5.81,1.08-.41,5.18-.36,9.5,1.78,14.36.64,1.46,2.95,1.19,4.1.62a13.77,13.77,0,0,0,4.36-3.18c2.36-2.59-3.24-2.88-4.73-1.25l-2,1.64,4.1.62c-2-4.52-2.13-8.54-1.75-13.42l-5.81,1.08,1,5.18,5.8-1.55a107.62,107.62,0,0,1-2.27-25.21c.08-2.86-5.16-1.24-5.82.62a22.93,22.93,0,0,0,2.06,20c1.11,1.89,5.71.08,5.57-2l-.49-7.37-5.8,1.55,1,9.38,5.8-1.55L361,333l-5.8,1.55a45.3,45.3,0,0,1,1.9,11.31l5.8-1.55a40.57,40.57,0,0,1-1-12.7l-5.81,1.08a47.77,47.77,0,0,1,2.56,11.92l5.8-1.55a95.75,95.75,0,0,1-3.09-17l-5.8,1.55a229.74,229.74,0,0,0,10.58,28.93l5.57-2-3.08-3.21c-1.22-1.27-6.38-.3-5.57,2a10.52,10.52,0,0,1,.55,5.4l5.81-1.08a19.16,19.16,0,0,1-1.92-5.43l-5.8,1.55a6.65,6.65,0,0,1,.66,4.32l5.59-1.5a16.06,16.06,0,0,1-3.81-8.79l-5.8,1.55a27.11,27.11,0,0,1,2.54,13.07l5.81-1.08-4-10.84-5.57,2A58.9,58.9,0,0,1,368,371.43c.79,2.26,6.54.65,5.8-1.55a12.25,12.25,0,0,1-.6-5.82l-5.59,1.5,5.44,8c1.23,1.8,5.71.13,5.57-2a17.69,17.69,0,0,1,1-7.2l-5.59,1.5,7.45,7.24c1.33,1.29,4.55.58,5.4-1l3.22-6-5.4,1,14,15.89c1.29,1.47,6,.32,5.57-2l-2.2-12-5.8,1.55a6.56,6.56,0,0,1,.63,4.34l5.81-1.08A39,39,0,0,1,400.6,363l-5.8,1.55,14.06,46c.65,2.13,5.64.88,5.81-1.08a77.13,77.13,0,0,0-3.4-30.31c-.73-2.29-6.08-.78-5.8,1.55L407.74,399c.27,2.22,6.08.86,5.8-1.55l-.62-5.34c-.27-2.35-4.93-.5-5.62.61l-.46.73,2.28-1.49-.94.19,2.72.15c-1.37-.58-2.57-7.47-3.39-9.09a23.68,23.68,0,0,0-5-6.71,24.07,24.07,0,0,0-6-4.13c-3.61-1.71-6.78-1.78-3.88-7,.69-1.23-.6-1.88-1.65-2-11.59-1.22-9.95-18.31-11.12-26.34-.33-2.25-5.56-.76-5.81,1.08a129,129,0,0,0-1,22.76l5.8-1.55a6,6,0,0,1,.6-4.12l-5.62.61,1.25,9.24c.3,2.19,5.66.82,5.81-1.08a86.6,86.6,0,0,0,0-13.87c-.18-2.27-5.48-.69-5.81,1.08l-1.79,9.57,5.81-1.08a46.74,46.74,0,0,0-1.45-9.24c-.61-2.34-6-.75-5.8,1.55a15.47,15.47,0,0,1-1.77,8.76l5.62-.61-.27-6c-.09-2.08-5.81-.92-5.81,1.08v9.2l5.82-.62-.27-18.19-5.81,1.08q7,13.66,13.27,27.65c1,2.23,5.92.81,5.8-1.55l-.23-4.3-5.8,1.55a70.65,70.65,0,0,0,9.8,15.64c1.29,1.56,5.9.28,5.57-2l-2.16-15.08-5.8,1.55a59.18,59.18,0,0,1,3.78,13.09l5.8-1.55A64,64,0,0,1,396,365.25l-5.8,1.55a29,29,0,0,1,2.94,11.88L399,377.6a39.72,39.72,0,0,1-1.88-16.35c.24-2.6-5.61-1.6-5.82.62-.51,5.3-.47,10.5-.79,15.79l5.81-1.08-.18-3-5.8,1.55,2.13,8.84,5.8-1.55a18,18,0,0,1-.59-9l-5.81,1.08,3.67,9.92c.82,2.21,6.27.78,5.8-1.55a13.07,13.07,0,0,1,.63-7.63l-5.59,1.5a86.2,86.2,0,0,1,8.88,15.74l5.57-2a5.54,5.54,0,0,1-1.15-5.07l-5.81,1.08a17.49,17.49,0,0,1,1.86,6.17l5.8-1.55a8.89,8.89,0,0,1-1-4.12l-5.8,1.55a5.28,5.28,0,0,1-.63,4.25l5.62-.61-2.2-4.8L401.7,389a47.4,47.4,0,0,1,4.79,22.57l5.81-1.08c-2.09-6.32-9-9.83-13.63-14.16A98.77,98.77,0,0,1,383.49,378l-5.35,2.38a16.87,16.87,0,0,1,2.74,7.56l5.57-2a21,21,0,0,1-5.39-10.52l-5.57,2a22.59,22.59,0,0,1,3.8,8.36l5.57-2-7.23-11.7-5.35,2.38a22.27,22.27,0,0,1,6,10l5.57-2a37.39,37.39,0,0,1-7-16.16l-5.57,2a33.78,33.78,0,0,1,8.61,14.17l5.8-1.55a33.91,33.91,0,0,1-2.39-11.45l-5.59,1.5a27.64,27.64,0,0,1,9.13,17l5.8-1.55-6.7-15.11-5.57,2a148.3,148.3,0,0,1,19.39,25l5-2.7-4-2.34c-1.18-.69-6.09.17-5.18,2.28l3.59,8.34,5.57-2-3.79-6.34-5.35,2.38,3.28,4.16c1.35,1.71,6.87-.22,5.35-2.38L393.86,385l-5.35,2.38A47.15,47.15,0,0,1,395.37,398l5.57-2-6.16-5.93-5.35,2.38a23.18,23.18,0,0,1,6.19,8l5.57-2a86.78,86.78,0,0,1-6.74-11.77L389.28,389a10.71,10.71,0,0,1,6.46,8.06c.5,2.35,5.92.74,5.8-1.55l-.41-7.42L396,390.38a20.73,20.73,0,0,1,12.21,18.05c.13,2.1,5.76.89,5.81-1.08l.21-8.59-5.81,1.08a19.48,19.48,0,0,1,.94,8.11l5.81-1.08-3.47-16.36c-.48-2.27-6.24-.8-5.8,1.55a76,76,0,0,1,1.29,11.65l5.8-1.55a24.9,24.9,0,0,0-2.52-8.22c-1-2.05-6.56-.73-5.8,1.55a23.85,23.85,0,0,1,1.21,10.09l5.81-1.08a90.41,90.41,0,0,1-2.6-12.3c-.32-2.28-6-.8-5.8,1.55l.67,10.1,5.8-1.55a21.26,21.26,0,0,1-.62-11.78l-5.81,1.08.49,11,5.8-1.55-2.47-12.69-5.8,1.55a16.81,16.81,0,0,1,1.1,8.79l5.81-1.08a53.61,53.61,0,0,1-3.36-10.48c-.45-2.14-5.81-.87-5.81,1.08l0,9.56,5.59-1.5a45,45,0,0,1-5.47-13.69c-.48-2.13-5.84-.87-5.81,1.08l.12,9.56,5.81-1.08-6.06-13.22c-1-2.18-6.68-.54-5.8,1.55a33,33,0,0,1,2.5,9.79l5.57-2A34,34,0,0,1,390,373.5l-5.8,1.55a33,33,0,0,1,2.16,13.89l5.59-1.5a30.06,30.06,0,0,1-6.34-10.91c-.75-2.27-6.53-.65-5.8,1.55Z" transform="translate(-1.47)"/>
  <path d="M391.11,363l2.55-3.94-5.65.52.72,4.47c.38,2.35,5.81,1.1,5.82-1q-4.18,2.14-2,5.2l.76,1.83,2.66,6.4L401,388.29l5.56-2-2.66-5.08c-1.12-2.13-5.06-.11-5.59,1.5a10.93,10.93,0,0,0-.6,4.41l5.59-1.5a8.47,8.47,0,0,0-5.41-3.76c-4-1.17-7.15-1.48-10.52-4.28-5.15-4.3-9.3-8.26-16.44-6.68l3.42,1.58c-.1-10.57,6-21.38.39-31.38-1.12-2-5.93-.25-5.56,2,.59,3.59-2.78,5.36-5.64,3.71a10.59,10.59,0,0,1-3.41-3.45c-1.85-2.86-2.51-6.4-3.2-9.68l-5.56,2c8.07,14.57,19.31,25.74,31.53,36.82a205.69,205.69,0,0,1,16.09,15.72c1.41,1.59,14.75,19.59,12.75,20.46l2.95-.28-.9-.27c-1.32-.4-5.38.49-4.6,2.63a15.57,15.57,0,0,0,5.45,7.36c1.36,1,5,.09,5.18-1.86a9,9,0,0,0-1.88-6.6c-1.44-2-7,.2-5.33,2.48a5.25,5.25,0,0,1,1.36,4.65l5.18-1.86a11.94,11.94,0,0,1-4.16-5.72l-4.6,2.63c2.37.71,5.25.19,6.57-2.14,1.77-3.14-1.29-7.47-2.8-10.24-4.49-8.24-10.88-15.25-17.61-21.72-14.64-14.08-29.82-26.43-39.84-44.51-1.08-2-6-.27-5.56,2,1.47,6.92,4.13,15.08,12.19,16.35,6,1,12.72-3.47,11.64-10l-5.56,2c5,8.93-1,19.94-.91,29.42,0,1.79,2.09,1.87,3.42,1.58,5.57-1.23,10.06,6.39,14.52,8.73,3.54,1.86,9.34,1.08,11.53,4.79,1,1.67,5.68.51,5.59-1.5a10.93,10.93,0,0,1,.6-4.41l-5.59,1.5,2.66,5.08c1,1.92,6.46.15,5.56-2l-5.33-12.8c-1.54-3.69-2.69-8.64-5-11.89-1.77-2.46-7.68-2.53-7.7,1.44l5.82-1-.72-4.47c-.41-2.56-4.85-.72-5.65.52l-2.55,3.94c-1.66,2.57,4.22,2.49,5.5.52Z" transform="translate(-1.47)"/>
  <path d="M39.91,383.62l-1.16-1.3c-1.37-1.54-4.53-.8-5.42,1l-1.17,2.32,5.53.61,1-2.34L33,383.8c0,3,.06,6.73-2.53,8.75l4.67,1.58a123.45,123.45,0,0,1,8.74-17.36l-5.69-.07c.22,7-9.55,8.45-14.84,10.43l4.17.88-.4-2.35c0-2.54-3.46-1.89-4.84-1-8.8,5.4-3.09,20.25-10.58,27.34-2.6,2.46,3,3.35,4.83,1.63A18.74,18.74,0,0,0,21.73,404c1.07-4.43.1-14.25,4.35-16.87l-4.84-1a8.38,8.38,0,0,0,.47,3.43c.53,1.75,2.94,1.34,4.17.88,7-2.63,18.47-4.6,18.17-14.21-.1-3-4.65-1.8-5.69-.07a123.45,123.45,0,0,0-8.74,17.36c-1.13,2.77,3.31,2.65,4.67,1.58,3.82-3,4.52-7.11,4.57-11.77,0-2.86-4.86-2-5.69-.07l-1,2.34c-1.32,3,4.43,2.78,5.53.61l1.17-2.32-5.42,1,1.16,1.3c1.7,1.91,7.22-.39,5.31-2.52Z" transform="translate(-1.47)"/>
  <path d="M325.61,200.47l27-33.13c2.28-2.79-3.24-3.23-4.78-1.43q-14.32,16.79-30.05,32.27c-2.52,2.48,3.11,3.07,4.78,1.43q15.73-15.48,30.05-32.27l-4.78-1.43-27,33.13c-2.27,2.78,3.27,3.28,4.78,1.43Z" transform="translate(-1.47)"/>
  <path d="M186.09,356.49c5.88,6.15,12.63,10.72,21.24,7.23,8.25-3.35,14.39-11.47,17.65-19.47.61-1.49-5.06-.87-5.76.85-2.2,5.38-5.61,10.84-10.41,14.31-3.83,2.77-7.13,3.11-11.06.55a36.65,36.65,0,0,1-6.25-5.61c-1.22-1.28-6.69.81-5.42,2.14Z" transform="translate(-1.47)"/>
  <path d="M270.8,322c-.79-2.7-4.25-2.84-6.4-1.9a3.16,3.16,0,0,0-1.5,1.34A1.47,1.47,0,0,0,263,323c.95,1.11,2.73.9,3.92.38a3.16,3.16,0,0,1-1.08.28q.43,0-.38,0l-.43-.09.23.08q-.52-.27-.29-.12l.15.11q-.39-.37-.16-.12a1.48,1.48,0,0,1,.13.2l-.24-.48a2,2,0,0,1,.13.34c.39,1.34,2.3,1.47,3.41,1.13s2.79-1.3,2.39-2.69Z" transform="translate(-1.47)"/>
  <path d="M299.21,307.23V305c0-.41-.85-.59-1.08-.63a5.39,5.39,0,0,0-2.14.19c-.93.27-2.57.8-2.57,2v2.27c0,.41.85.59,1.08.63a5.39,5.39,0,0,0,2.14-.19c.93-.27,2.57-.8,2.57-2Z" transform="translate(-1.47)"/>
  <path d="M290.59,327.85h-1.14a5.61,5.61,0,0,0-2.28.44,3.36,3.36,0,0,0-1.54,1.19c-.62,1.17.53,1.87,1.62,1.87h1.14a5.61,5.61,0,0,0,2.28-.44,3.36,3.36,0,0,0,1.54-1.19c.62-1.17-.53-1.87-1.62-1.87Z" transform="translate(-1.47)"/>
  <path d="M111.51,325.34l-1.16,3.4c-.16.47.27,1,.63,1.18a3.33,3.33,0,0,0,1.93.29c1.3-.17,2.8-.76,3.26-2.1l1.16-3.4c.16-.47-.27-1-.63-1.18a3.33,3.33,0,0,0-1.93-.29c-1.3.17-2.8.76-3.26,2.1Z" transform="translate(-1.47)"/>
  <path d="M136.35,325.26h-1.14a4.16,4.16,0,0,0-2.18.79,2.4,2.4,0,0,0-1,1.51c-.08,1.51,1.49,1.83,2.66,1.83h1.14a4.16,4.16,0,0,0,2.18-.79,2.4,2.4,0,0,0,1-1.51c.08-1.51-1.49-1.83-2.66-1.83Z" transform="translate(-1.47)"/>
  <path d="M143.57,348.73v-3.41a2.28,2.28,0,0,0-2.72-2.05c-1.19.11-3.17.94-3.17,2.43v3.41a2.28,2.28,0,0,0,2.72,2.05c1.19-.11,3.17-.94,3.17-2.43Z" transform="translate(-1.47)"/>
</svg>
