<svg id="pencil" xmlns="http://www.w3.org/2000/svg" viewBox="0 0 283.28 288.61">
  <title>pencil</title>
  <path d="M17,213.32c.61,0,3.27-1.16,1.88-1.16-.61,0-3.27,1.16-1.88,1.16Z" transform="translate(-1.99)"/>
  <path d="M18.57,201.53c33.82-28.68,65-60,96.15-91.53l48.93-49.62,23.77-24.1c7.25-7.35,14.33-15.05,22.48-21.43C219.06,7.67,230.33,2,242.29,3.39,252.75,4.61,261.58,11.5,268.55,19s11.54,16.55,11.17,27S275,66.2,269.86,75a146.37,146.37,0,0,1-18.14,24.64c-7,7.69-15,14-22.85,20.8-3.44,3-6.42,6.46-9.78,9.54-3.74,3.43-7.75,6.53-11.17,10.3-5.71,6.29-11.84,12.18-17.53,18.5-7.77,8.64-16.54,16.11-24.56,24.49Q152.36,197.32,139,211.47L85.25,267.88c-2.33,2.45,3.31,2.35,4.65,1l51-53.53,25.48-26.76c7.71-8.09,16.29-15.3,23.92-23.44,13.65-14.56,27.13-29.18,41.94-42.57,7.76-7,16-13.21,23.2-20.9a151.76,151.76,0,0,0,18.53-24.32c10.33-16.91,17.09-37.47,4.52-55.09C267.64,7.08,250.57-3,231.69.83c-21.13,4.33-35.87,21.25-50.32,35.91L129.64,89.2C92,127.35,54.83,165.89,13.92,200.58c-2.53,2.14,3.2,2.18,4.65,1Z" transform="translate(-1.99)"/>
  <path d="M11.56,202.81c.09,28.09-5.6,56.33-9.43,84.09-.09.63,5.56.18,5.8-1.55,3.84-27.76,9.52-56,9.43-84.09,0-.88-5.8-.07-5.8,1.55Z" transform="translate(-1.99)"/>
  <path d="M4.84,288.4Q46,277.88,87.56,268.63c3.44-.77,2.89-2.82-.55-2.06Q45.5,275.83,4.29,286.34c-3.4.87-2.88,2.93.55,2.06Z" transform="translate(-1.99)"/>
  <path d="M12.68,203.75a126.06,126.06,0,0,0,40.11-4.1l-3.16-.2a243,243,0,0,1,1.46,32c0,.71,2.12.42,2.38.37l33-6.3-2.38-.37a401.1,401.1,0,0,1,1.4,42.41c0,1,5.76.22,5.8-1.55a401.1,401.1,0,0,0-1.4-42.41c-.06-.72-2.06-.43-2.38-.37l-33,6.3,2.38.37a243,243,0,0,0-1.46-32c-.1-.93-2.82-.29-3.16-.2a112.51,112.51,0,0,1-35.85,3.58c-1.33-.08-6.63,2.31-3.73,2.48Z" transform="translate(-1.99)"/>
  <path d="M57.17,199,174.56,86.43c2.56-2.46-3.06-3.18-4.8-1.51L52.37,197.53c-2.56,2.46,3.06,3.18,4.8,1.51Z" transform="translate(-1.99)"/>
  <path d="M89.06,224.65Q140.62,168,195.82,114.8c2.43-2.34-3.25-2.34-4.66-1Q136,167,84.4,223.66c-2.29,2.52,3.33,2.45,4.66,1Z" transform="translate(-1.99)"/>
  <path d="M10.34,263.64c4.15-.21,8.69,5.67,11.41,8.16,3,2.75,6.35,5.39,6.77,9.71.27,2.84,6.08,1.4,5.8-1.55-.54-5.62-5.46-9.21-9.33-12.75-4.18-3.82-8.1-8.41-14.2-8.1-3.38.17-4.38,4.72-.44,4.52Z" transform="translate(-1.99)"/>
  <path d="M11.16,269.71,7.58,280.08l5.73.18A19.59,19.59,0,0,1,15.95,274l-5.73-.18a19.66,19.66,0,0,1-2.43,7.7l5.57.76,1.36-3.59L9,278.48a11.73,11.73,0,0,1-2.05,4.6c-2.26,3.17,3.1,3.67,4.89,1.84a14.53,14.53,0,0,1,9.75-4.43l-1.07-4-7.21,3.71c-2.47,1.27-1.77,4.2,1.07,4a37.52,37.52,0,0,0,12.44-3c1.47-.63,2.24-2.36.91-3.52L16,267.42c-1.81-1.57-6.25.49-4.87,3l1.17,2.15c1.17,2.14,6.3.43,5.54-2.08a9.86,9.86,0,0,0-2.53-4.35c-1.36-1.37-5.68-1.11-5.59,1.5a27.36,27.36,0,0,0,1.65,8.75c1,2.68,6.51,1.27,5.8-1.55l-2.37-9.37c-.71-2.79-6.4-1.27-5.8,1.55a53.54,53.54,0,0,0,2.74,9c1.1,2.72,6.13,1.31,5.8-1.55a41.51,41.51,0,0,0-2.36-9.8l-5.54,2.08a22.32,22.32,0,0,0,6.81,8.2,3.69,3.69,0,0,0,4.66-.8A4.72,4.72,0,0,0,22,270c-.56-2.79-6.36-1.3-5.8,1.55l0,.74,4.66-.8a19.67,19.67,0,0,1-6-7.37c-1.06-2.18-6.45-.36-5.54,2.08a41.51,41.51,0,0,1,2.36,9.8l5.8-1.55a53.54,53.54,0,0,1-2.74-9L9,267l2.37,9.37,5.8-1.55a23.8,23.8,0,0,1-1.56-7.59L10,268.77a6.79,6.79,0,0,1,2,3.3L17.56,270l-1.17-2.15-4.87,3,11.76,10.22.91-3.52a28,28,0,0,1-9.36,2.21l1.07,4,7.21-3.71c2.47-1.27,1.77-4.2-1.07-4a22.68,22.68,0,0,0-15.1,7l4.89,1.84a18,18,0,0,0,3.05-6.83c.64-2.85-4.94-2.26-5.73-.18L7.79,281.5c-1.26,3.31,4.35,3,5.57.76a22.79,22.79,0,0,0,2.75-8.85c.34-3.28-4.71-1.8-5.73-.18a22.88,22.88,0,0,0-3,7.43c-.62,2.82,5,2.32,5.73.18l3.59-10.37c1.11-3.22-4.68-3.32-5.57-.76Z" transform="translate(-1.99)"/>
  <path d="M14.21,268.24a34.35,34.35,0,0,1,2.54,7.14L22,273.5a.71.71,0,0,1-.64-1l-5.75,1.3a7.25,7.25,0,0,1,.73,1.65c.4,1.72-1.06,1.36,1.89.9l1.84-.07-.45-.12-.17,1.17a21.48,21.48,0,0,1,5.38-2.79c.5-.17,2.37-.84,1.74-1.6s-3.13.15-3.73.35A31.32,31.32,0,0,0,15,277.21c-.5.35-1.09.93-.17,1.17A8,8,0,0,0,21,277c1.76-1.29,1.32-3.05.43-4.75-.61-1.17-5.48.14-5.75,1.3a1.62,1.62,0,0,0,1.58,2.16c.82.09,5.63-.4,5.28-1.88A34.35,34.35,0,0,0,20,266.69c-.67-1.37-6.24.64-5.8,1.55Z" transform="translate(-1.99)"/>
  <path d="M16.09,275A11.74,11.74,0,0,1,21,276a4.94,4.94,0,0,0,4.09-.58c.73-.43,1.81-1.58.54-2.12a17.6,17.6,0,0,0-7.22-1.44c-1.24,0-3.1.42-3.84,1.55s.62,1.58,1.53,1.57Z" transform="translate(-1.99)"/>
  <path d="M175,49.44c21.13,20.43,42,41.09,62.46,62.23,1.87,1.93,7.35-.46,5.3-2.58-20.7-21.42-41.89-42.35-63.31-63-1.9-1.84-6.89,1-4.45,3.4Z" transform="translate(-1.99)"/>
  <path d="M190.59,30l55.89,56.77L254.59,95c1.94,2,7.4-.47,5.29-2.62L204,35.66l-8.11-8.23c-1.94-2-7.4.47-5.29,2.62Z" transform="translate(-1.99)"/>
  <path d="M202.53,17.32,259,72.47l8,7.84c1.3,1.27,6.74-.87,5.41-2.16L216,23l-8-7.84c-1.3-1.27-6.74.87-5.41,2.16Z" transform="translate(-1.99)"/>
  <path d="M233.14,48.73l1.19-2.43-5.62.22-3.56,8.73c-.81,2,4.86,1.38,5.62-.22l2.55-5.41c1.24-2.63-4.52-2-5.43-.23l-3.41,6.72,5.62-.22,1.77-5.3c.71-2.14-4.93-1.36-5.62.22l-2,4.68,5.62-.22,1.59-6.62c.56-2.34-5.2-1.28-5.81.67a12.86,12.86,0,0,1-2.15,4.19l5.62-.22,1.74-6.08c.68-2.36-4.89-1.1-5.62.22l-3.39,6.12,5.43.23,3.31-7.55-5.62.22a32.34,32.34,0,0,1-4.28,7.9l5.43.23a42.1,42.1,0,0,0,3.78-8.52c.75-2.35-4.86-1-5.62.22l-2.77,4.59,5.43.23,2.51-5.51c1.23-2.71-4.45-1.89-5.43-.23L221.9,49l5.43.23a26.16,26.16,0,0,0,2.14-5c.72-2.35-4.51-1-5.25-.22l-2.57,2.76,5.06.67a11.64,11.64,0,0,0,2.49-5c.58-2.4-4.49-1-5.25-.22a48.11,48.11,0,0,0-4.75,6c-1.63,2.44,4.3,1.61,5.43.23a17.61,17.61,0,0,0,2.77-4.78c.88-2.13-4.81-1.12-5.62.22a16.25,16.25,0,0,0-2,4.92c-.59,2.52,4.49.87,5.25.22l4-3.45L224,44.81l-2,3.78c-1.37,2.62,4.07,1.75,5.06.67l3.49-3.84-5.06-.67-3.61,5.47c-1.58,2.39,4.29,1.75,5.43.23a18.58,18.58,0,0,0,2.65-5c.83-2.32-4.54-.93-5.25-.22l-4.87,4.89,5.06.67a39.24,39.24,0,0,0,2-5.59c.67-2.48-4.51-.87-5.25-.22a12.3,12.3,0,0,0-2.79,3.5l5.62-.22c1.25-3.75-3.73-4.57-6.22-3.14-2.73,1.56-2.55,5,.73,5.58,1.28.22,3.83-.11,4.47-1.53l2-4.51c1.2-2.68-4.51-2-5.43-.23l-3,5.87,5.62-.22.9-3.23-5.81.67L217.07,52c-.33,2.46,5,1.25,5.62-.22l1.58-3.54-5.62.22-.55,3.37,5.81-.67a15,15,0,0,1,2.93-7.9l-5.62.22-1,2.08,5.06.67,2-4.19c1.3-2.7-4.06-1.72-5.06-.67l-2.3,2.42,5.25.22.84-2.4c.8-2.3-4.52-1-5.25-.22l-3.12,3.33,5.06.67,2.59-4.65c1.47-2.63-4.36-1.66-5.43-.23L216,45.74l5.43.23,3.28-5.57c1.46-2.48-4.36-1.87-5.43-.23l-3.44,5.28,5.43.23a14.52,14.52,0,0,0,2.19-5.78c.41-2.57-4.88-1-5.62.22l-2.68,4.54c-1.44,2.44,4.38,1.94,5.43.23l1.27-2.07-5.62.22-1.57,4.36,5.81-.67.86-2.13c1.36-2.6-4.41-1.88-5.43-.23l-1.7,2.78,5.43.23c1.17-2.51.2-5.28.83-8.1.57-2.55-4.87-1-5.62.22L212.6,43l5.43.23a13.47,13.47,0,0,0,1.35-4c.46-2.65-4.85-.88-5.62.22a8.79,8.79,0,0,0-1.48,3c-.76,2.16,5,1.22,5.81-.67a13.72,13.72,0,0,0,1-3.57c.38-2.74-4.82-.8-5.62.22l-2.12,2.71,5.43.23a26.42,26.42,0,0,0,1.74-5.45c.48-2.4-5-1.23-5.62.22l-1.65,3.65,5.61-.66-.11-1.21c.41-2.45-4.95-1.21-5.62.22l-2,4.19,5.62-.22,1.09-3.6-5.81.67-.47,2.78,5.81-.67.39-2.67c.35-2.41-5.46-1.41-5.81.67l-.68,4.09,5.8-1.11c-1-2.15,1.22-4.7-2.2-5.36-1.79-.35-4.27.5-5,2.2l5.62-.22.94-4.15c.6-2.65-4.86-.78-5.62.22a15.82,15.82,0,0,0-2.07,3.74L212.5,38l.55-3.43c.41-2.58-4.87-1-5.62.22l-1.82,3C204.14,40.2,210,39.64,211,38a6.9,6.9,0,0,0,1.23-4.57c-.06-2.12-5-.45-5.61.66l-1.45,2.77,5.62-.22.61-3.58c.42-2.47-4.93-1.17-5.62.22l-1.52,3.08,5.62-.22a7.13,7.13,0,0,0,.64-3.16c.19-2.2-3.75-1.32-4.73-.62a10.07,10.07,0,0,0-3.18,3.4c-1.41,2.51,4.39,1.91,5.43.23a14.39,14.39,0,0,0,1.73-4.05c.51-1.94-3.29-1.36-4.08-1a6.54,6.54,0,0,0-3.2,2.69c-1.53,2.41,4.32,1.81,5.43.23a13.57,13.57,0,0,0,2.14-4.65c.65-2.47-4.51-.9-5.25-.22a13.44,13.44,0,0,0-2.63,3.24l5.62-.22a9.93,9.93,0,0,0,.28-4.1c-.23-2-4.49-.6-5.24.22a8.49,8.49,0,0,0-2.16,3.46c-.78,2,4.9,1.42,5.62-.22l1.23-2.81c1.25-2.86-4.38-1.63-5.43-.23a14,14,0,0,0-2,3.85c-.77,2.13,4.88,1.28,5.62-.22a21.94,21.94,0,0,0,1.74-4.73c.57-2.37-5.17-1.24-5.81.67L200,32.75l5.81-.67a11.19,11.19,0,0,0-.39-3.8c-.48-2.07-4.31-.53-5.24.22a8.7,8.7,0,0,0-2.5,3.11l5.62-.22,2.49-5.91c1-2.34-4.85-.74-5.62.22l-2.54,3.18,5.62-.22.49-3.68c.35-2.59-4.38-.9-5.25-.22L195.7,27l5.25.22.67-2.77c.59-2.44-4.49-1-5.25-.22l-2.29,2.27,5.06.67,1.92-3.31c.5-.86-.08-1.57-1-1.76L199.7,22c-1.24-.28-3.87.15-4.47,1.53L195,24c-.16.37-.38.94,0,1.28,2.65,2.19,6.07.73,8.35-1.19l-2.71,1.16.61-.05-2.53-.93.18-.21,3.82-1.62-.28,0,1.61,1.85,1.79-2.87c1.67-2.67-4.16-1.38-5.06-.67L197.93,23l4.69,1.1a8.65,8.65,0,0,0,2.4-3.22c1.21-2.73-4-1.74-5.06-.67l-.88.93L202.52,20h-.42l1.8,1.4.43-1.49-4.72-.18a13.76,13.76,0,0,1-2.11,1.78l4.69,1.1,1.48-1.31-5.24.22.41,4.15c.16,1.57,3.38.81,4.07.52a8.47,8.47,0,0,0,3-2l-5.24.22a6.66,6.66,0,0,1,1,2.78c.59,2.35,5.25.39,5.8-1.11l.74-2-5.8,1.11A15.71,15.71,0,0,1,204,29.11c.58,2.2,6,.64,5.8-1.55A20.33,20.33,0,0,0,207,18.8c-.92-1.62-6.15,0-5.58,1.94a96.29,96.29,0,0,0,3.29,9.51c.81,2,4.77.71,5.61-.66l1-1.66-5.61.66a26.08,26.08,0,0,1,1,6c.11,2,5.74.76,5.8-1.11l.19-5.29-5.59,1.5a8.4,8.4,0,0,1,1.72,3.91l5.8-1.55a10.4,10.4,0,0,1-.62-3.7l-5.8,1.55,2.42,5c1,2.07,6.67.34,5.8-1.55L213,25.66l-5.58,1.94L209.21,30c1.1,1.43,6.49-.11,5.58-1.94L213,24.34c-1-2-6.55-.54-5.8,1.55a43.86,43.86,0,0,0,5.79,11c1.2,1.66,5,.08,5.59-1.5a5,5,0,0,0-.29-4.59l-5.58,1.94A18.56,18.56,0,0,1,214.9,37c.86,2.05,6.44.58,5.8-1.55L220,33.11,214.41,35,219,40c1.38,1.5,5,.22,5.59-1.5a3.65,3.65,0,0,0-.7-4c-1.11-1.48-6.53.21-5.58,1.94l1.63,3,5.58-1.94c-1.48-2-3.85-1.5-5.87-.7-.59.23-2.12,1.18-1.73,2.07a58.5,58.5,0,0,0,9,14.25c1.15,1.35,6.19.18,5.58-1.94L232,49.56l-5.8,1.55,3.43,7.11c1,2,6.53.55,5.8-1.55l-.78-2.2-5.58,1.94L234,63.26l5.37-2.33L236.49,57c-1.2-1.66-6.67.15-5.37,2.33l2.06,3.44,5.37-2.33a19.61,19.61,0,0,0-5-3.76c-1.55-.84-5.29.11-5.19,2.23a7.48,7.48,0,0,0,1.25,3.91c.93,1.61,6.37-.08,5.58-1.94a9.48,9.48,0,0,0-5.28-5.47c-1.11-.5-6.07.12-5.19,2.23a26.93,26.93,0,0,0,3.14,5.6c1.21,1.66,6.73-.21,5.37-2.33l-1.6-2.48-5.37,2.33a28.85,28.85,0,0,0,6,6.51c1.53,1.22,5.62.39,5.58-1.94l-.05-3-5.58,1.94,4,6.37c.91,1.43,4.17.28,5-.61,1.45-1.5,2.12-3,1.17-5s-6.53-.53-5.8,1.55a27.87,27.87,0,0,0,3.07,6.14c1,1.56,6.08.09,5.58-1.94l-.74-3.06-5.8,1.55A36.71,36.71,0,0,0,242,76.41c1,1.75,5.78,0,5.58-1.94a10.25,10.25,0,0,0-.63-3.35l-5.8,1.55,2.68,6.3c.87,2,6.45.58,5.8-1.55l-.9-2.94-5.58,1.94,3.41,6c1,1.81,5.08-.07,5.59-1.5l.89-2.48-5.8,1.11,1.46,4.32c.77,2.28,5.21.47,5.8-1.11a14.48,14.48,0,0,0,.9-3.81l-5.8,1.11a29.14,29.14,0,0,0,1.15,4.68c.5,1.49,3.09.94,4.07.52a6,6,0,0,0,3.29-2.67l-5.61.66a4.32,4.32,0,0,0,1,2.15c1.05,1.57,4.6.17,5.4-1l2.69-4.08-5.62.22-.47,4.29c-.29,2.69,5.14,1,5.81-.67a11.9,11.9,0,0,0,1-3.24l-5.81.67-1.15,4.89,5.8-1.11-.43-2.92c-.34-2.3-5.34-.41-5.8,1.11l1.67-.34c-1.13-.31-4.68.29-4.66,2,0,2.37,0,2.69,1.71,4.42,1.25,1.25,3.92.43,5-.61l2-1.88-5.24.22.4,2.07c.45,2.32,4.83.29,5.61-.66l1.35-1.63-5.62.22-1,2.5c-.8,2.1,4.86,1.27,5.62-.22l2-3.93c1.4-2.75-4.37-1.61-5.43-.23L256,88.59c-1.68,2.19,4,1.79,5.06.67A39.78,39.78,0,0,0,268,79.4c.94-1.91-2-2-3.13-1.67l-2.26.67,3.32,1.22a7.26,7.26,0,0,0-.16-2.63c-.33-1.58-3.23-.81-4.07-.52l-2.49.88,4.08,1a5.11,5.11,0,0,0-.59-4.1c-1-1.77-4-.88-5.24.22L254.67,77l5.25.22a4.66,4.66,0,0,0,.27-2.63c-.16-2.33-4.94-.19-5.61.66L252.36,78l5.62-.22.68-2.75c.61-2.45-4.49-1-5.25-.22l-2.8,2.71,5.25.22.51-5.74c.22-2.5-4.34-1.08-5.25-.22L247.78,75l5.25.22.88-4.74c.49-2.61-5.11-1-5.81.67l-1.72,2.71,5.25.22.33-3.74c.23-2.57-4.87-1.12-5.62.22a5.72,5.72,0,0,0-.79,4.2c.33,2.21,4.93.41,5.61-.66a3.51,3.51,0,0,0-.54,3.72c.21.95,1.81,1,2.53.93,3.86-.61,7.31-2.82,6.79-7.15-.26-2.12-5.55-.62-5.8,1.11q1.17-.53-.22-.34a3.35,3.35,0,0,0,3.1.39l.32-.11-3.1-.39-.07,0,3.27-2c.09,0-2.58-3.45-2.84-3.79-1.06-1.37-4.06-.33-5,.61l-3.43,3.34,5.25.22V66.12c0-2-2.92-1.4-4.08-1l-2.85,1.09,3.89,1.41a10.17,10.17,0,0,0,1-4.38c0-2.46-4.94-1.35-5.62.22l-1.27,2.95,5.62-.22.79-3.42c.54-2.36-5-1.24-5.62.22l-1.22,2.7,5.61-.66-.17-2.76c-.14-2.34-4.94-.18-5.61.66l-1.06,1.33,5.4-1c-1.87-2.16-5.54-1-7,1.14l5.61-.66-.13-2.31c0-.46-.8-.82-1.14-.87-3.4-.57-1.39-6.74-4.31-8.52-1.19-.72-5.15,0-5.2,1.79L234,56.74l5.8-1.11-.92-2.73c-.66-2-5.74-.79-5.8,1.11L233,56.4l5.8-1.11a13.89,13.89,0,0,0-2.16-4.59c-1-1.4-5.59-.29-5.59,1.5v2.25l5.8-1.11L236,49.91l-5.58,1.94,1.36,1.74c1.11,1.42,6.17.14,5.58-1.94l-.34-2.34-5.2,1.79,2,1.42c1.31.92,4.88-.07,5.2-1.79a5.79,5.79,0,0,0,0-3.09l-5.58,1.94a65.16,65.16,0,0,0,8.54,11.86c1.36,1.5,6.86-.28,5.37-2.33l-2.48-3.38c-1.22-1.66-6.76.24-5.37,2.33l3.27,4.89,5-2.62,0,1-4.1,1.1c1.44.32,3.27,4.16,4,5.34,1.05,1.74,6.68-.15,5.37-2.33-1.44-2.38-2.92-5.66-5.85-6.32a4.72,4.72,0,0,0-4.1,1.1,2.35,2.35,0,0,0-.84,2.23,1.11,1.11,0,0,0,.61.68l.39.14c1.29.47,6.52-.31,5-2.62l-3.27-4.89L239.57,58l2.48,3.38,5.37-2.33a65.16,65.16,0,0,1-8.54-11.86c-.95-1.68-5.93-.06-5.58,1.94l0,2.21,5.2-1.79-2-1.42c-1.16-.81-5.15,0-5.2,1.79a7.18,7.18,0,0,0,.36,3.23l5.58-1.94-1.36-1.74c-1.13-1.44-6.1-.16-5.58,1.94l.85,3.43c.5,2,5.81.74,5.8-1.11V51.53L231.3,53A8.26,8.26,0,0,1,233,56.85c.54,2,5.75.74,5.8-1.11l.07-2.39-5.8,1.11.92,2.73c.66,2,5.75.79,5.8-1.11l.08-2.93-5.2,1.79c1.57,1,.52,4.75,1.28,6.3,1,2,3,1.73,3.09,4s5,.3,5.61-.66l.38-.56L242,65.66l.74,0-2.32-.54.44.51c1.3,1.51,4.41.2,5.4-1l1.06-1.33-5.61.66.17,2.76c.13,2.08,5.06.55,5.61-.66l1.22-2.7-5.62.22-.79,3.42c-.54,2.34,5,1.28,5.62-.22l1.27-2.95-5.62.22a6.46,6.46,0,0,1-.64,3.48c-1,2.32,2.72,1.85,3.89,1.41l2.85-1.09-4.08-1v4.44c0,2.45,4.24,1.2,5.25.22l3.43-3.34-5,.61c2,2.65,4,5.12,7.47,4.88,1.19-.08,2.9-.79,3.27-2a1.51,1.51,0,0,0-.38-1.64c-.58-.79-2.32-.65-3.1-.39l-.32.11,3.1.39c-3.07-2.87-11.46-1.56-10.41,3.88,1.16,6,10.38,2.8,11.07-1.89l-5.8,1.11-.25,2.18,2.53.93c-.64-2.87-1.77-5-4.92-5.19a6.18,6.18,0,0,0-5.77,2.8l5.61-.66.42-2.41-5.62.22-.33,3.74c-.21,2.41,4.37,1.21,5.25.22a15.47,15.47,0,0,0,2.84-4.49l-5.81.67-.88,4.74c-.46,2.49,4.44,1,5.25.22l3.34-3.17-5.25-.22L250,78.45c-.22,2.49,4.34,1.09,5.25.22l2.8-2.71-5.25-.22-.68,2.75c-.66,2.66,4.87.73,5.62-.22L260,75.46l-5.61.66-.28,1.74c-.79,2.4,4.54.87,5.25.22l2.75-2.54-5.24.22a3.24,3.24,0,0,1,.57,3.22c-.4,2,3.22,1.26,4.08,1l2.49-.88-4.07-.52.14,1.75c-.11,1.63,2.31,1.53,3.32,1.22l2.26-.67-3.13-1.67a35.9,35.9,0,0,1-6.16,9l5.06.67,2.39-3.12-5.43-.23-2,3.93,5.62-.22,1-2.5c.94-2.46-4.88-.68-5.62.22L256,88.53l5.61-.66-.4-2.07c-.39-2-4.38-.58-5.24.22l-2,1.88,5-.61a3.22,3.22,0,0,1-1.26-2.77l-4.66,2c3.12.86,6.66-.38,7.65-3.63L254.9,84l.43,2.92c.33,2.22,5.42.51,5.8-1.11l1.15-4.89c.54-2.28-5.31-1.42-5.81.67a11.9,11.9,0,0,1-1,3.24l5.81-.67.47-4.29c.29-2.65-4.83-1-5.62.22l-2.69,4.08,5.4-1-.53-1.38c-.45-2.2-4.89-.46-5.61.66l-.21.31,4.07.52a29.14,29.14,0,0,1-1.15-4.68c-.34-2.09-5.61-.67-5.8,1.11a14.48,14.48,0,0,1-.9,3.81l5.8-1.11L253,78c-.76-2.26-5.23-.49-5.8,1.11l-.89,2.48,5.59-1.5-3.41-6c-.91-1.61-6.18,0-5.58,1.94l.9,2.94,5.8-1.55-2.68-6.3c-.87-2-6.39-.62-5.8,1.55a10.25,10.25,0,0,1,.63,3.35l5.58-1.94a32.4,32.4,0,0,1-2.72-6.34c-.67-2.13-6.32-.62-5.8,1.55l.74,3.06,5.58-1.94a23,23,0,0,1-2.64-5.37l-5.8,1.55a1.68,1.68,0,0,1-.07,2.33l5-.61-4-6.37c-1.14-1.79-5.61,0-5.58,1.94l.05,3,5.58-1.94a28.85,28.85,0,0,1-6-6.51c-1.16-1.7-6.73.21-5.37,2.33l1.6,2.48,5.37-2.33a23.41,23.41,0,0,1-2.71-4.83l-5.19,2.23a7.15,7.15,0,0,1,4.07,4.11L235,60.48a4.87,4.87,0,0,1-.82-3.13L229,59.58a16.64,16.64,0,0,1,4.18,3.18c1.38,1.42,6.71-.08,5.37-2.33L236.49,57l-5.37,2.33L234,63.26c1.22,1.68,6.82-.31,5.37-2.33l-4.92-6.85c-1.05-1.47-6.28-.05-5.58,1.94l.78,2.2,5.8-1.55L232,49.56c-1-2-6.42-.64-5.8,1.55l.44,1.56,5.58-1.94a55.38,55.38,0,0,1-8.53-13.48L222,39.32l.74-.3-2.93.36.34.37c1.11,1.47,6.54-.2,5.58-1.94l-1.63-3-5.58,1.94.26,2.37,5.59-1.5-4.57-4.95c-1.17-1.27-6.23-.21-5.58,1.94L214.9,37l5.8-1.55A32.71,32.71,0,0,0,218,30.38c-1-1.59-6.47.18-5.58,1.94a3.2,3.2,0,0,1,.28,3.71l5.59-1.5A40.78,40.78,0,0,1,213,24.34l-5.8,1.55L209,29.6l5.58-1.94-1.83-2.38c-1.09-1.42-6.45.05-5.58,1.94l3.53,7.65,5.8-1.55-2.42-5c-1-2-6-.73-5.8,1.55a10.4,10.4,0,0,0,.62,3.7c.56,2.14,6.35.62,5.8-1.55a13.94,13.94,0,0,0-2.15-4.68c-1-1.43-5.53-.27-5.59,1.5l-.19,5.29,5.8-1.11a26.08,26.08,0,0,0-1-6c-.61-2.11-4.85-.58-5.61.66l-1,1.66,5.61-.66a96.29,96.29,0,0,1-3.29-9.51l-5.58,1.94a18.74,18.74,0,0,1,2.37,8l5.8-1.55a15.71,15.71,0,0,0-1.55-3.86c-1.12-2-5.12-.73-5.8,1.11l-.74,2,5.8-1.11a6.66,6.66,0,0,0-1-2.78c-.9-1.77-4.11-.89-5.24.22l-.69.5,4.07.52L204.22,20c-.21-2.08-4.46-.46-5.24.22l-1.48,1.31c-2.62,2.31,3.22,2.25,4.69,1.1L205,20.43a1.47,1.47,0,0,0,.55-1.33l-.16-.89c-.33-1.76-3.88-.8-4.72-.18a6.35,6.35,0,0,0-2.59,4.06c-.22,1,1.07,1.43,1.8,1.4a5.9,5.9,0,0,0,4.75-2.13l-5.06-.67A4.39,4.39,0,0,1,197.93,23c-2.61,2.31,3.21,2.28,4.69,1.1l2.91-2.33-5.06-.67L198.68,24c-.75,1.21.66,1.75,1.61,1.85l.28,0c1.15.13,3.26-.48,3.82-1.62.28-.58.5-1,.19-1.57-.47-.94-1.59-1-2.53-.93a6.06,6.06,0,0,0-2.47.64c-2.91,1.61,1.24,1,1.09,1.35l-4.47,1.53.39.09-1-1.76-1.92,3.31c-1.51,2.6,4.08,1.63,5.06.67l2.29-2.27-5.25-.22-.67,2.77c-.62,2.56,4.51.8,5.25.22l2.84-2.24L198,25.66l-.49,3.68c-.37,2.76,4.82.78,5.62-.22l2.54-3.18-5.62.22-2.49,5.91c-.84,2,4.84,1.35,5.62-.22a4.19,4.19,0,0,1,1.77-2.23l-5.24.22.37,2.92c0,2.68,5.2,1.15,5.81-.67l1.59-4.8-5.81.67a12.3,12.3,0,0,1-1.35,3.83l5.62-.22a7.86,7.86,0,0,1,1.64-3l-5.43-.23-1.23,2.81,5.62-.22,1-1.69-5.24.22a5.73,5.73,0,0,1-.29,3.21c-.66,2.42,4.88,1,5.62-.22a6.39,6.39,0,0,1,1.89-2.37l-5.25-.22a7.63,7.63,0,0,1-1.75,3.75l5.43.23.12-.33-4.08-1a7.33,7.33,0,0,1-1.35,3.15l5.43.23,1.4-1.73-4.73-.62a7.13,7.13,0,0,1-.64,3.16c-.72,2.22,4.9,1.24,5.62-.22l1.52-3.08-5.62.22L205,37.31c-.43,2.5,4.91,1.13,5.62-.22l1.45-2.77-5.61.66-.86,2.78L211,38l1.82-3-5.62.22-.55,3.43c-.42,2.64,5.13,1,5.81-.67a9.18,9.18,0,0,1,1.68-2.84l-5.62.22-.94,4.15c-.53,2.37,5,1.23,5.62-.22l.24-.51-3.08,1.59c-2.06.32-1.72,2.2-1.13,3.41.92,1.89,5.47.86,5.8-1.11l.68-4.09-5.81.67-.39,2.67c-.35,2.41,5.46,1.41,5.81-.67l.47-2.78c.42-2.48-5.24-1.23-5.81.67l-1.09,3.6c-.68,2.24,4.92,1.26,5.62-.22l2-4.19-5.62.22a3.24,3.24,0,0,0,.12,2.1c.61,2,5,.75,5.61-.66l1.65-3.65-5.62.22a16.1,16.1,0,0,1-1.36,4.55c-1.25,2.91,4.38,1.57,5.43.23l2.12-2.71-5.62.22a13.72,13.72,0,0,1-1,3.57l5.81-.67,1.1-2.07-5.62.22a7.45,7.45,0,0,1-1,3.06c-1.33,2.66,4.41,1.83,5.43.23l2.2-3.46-5.62.22a26.21,26.21,0,0,0-1,4.67c0,.81,1,1.77.6,2.53-1.26,2.71,4.43,1.85,5.43.23l1.7-2.78-5.43-.23a13.49,13.49,0,0,0-1.24,3c-.67,2.25,5.12,1.26,5.81-.67L222,42.37c.82-2.28-4.85-1-5.62.22l-1.27,2.07,5.43.23,2.68-4.54-5.62.22a12.34,12.34,0,0,1-1.81,4.88c-1.5,2.39,4.34,1.9,5.43.23l3.44-5.28-5.43-.23L216,45.74c-1.51,2.56,4.34,1.68,5.43.23l3.91-5.22-5.43-.23-2.59,4.65c-1.44,2.59,4.07,1.72,5.06.67l3.12-3.33-5.25-.22-.84,2.4c-.81,2.31,4.53,1,5.25.22l2.3-2.42-5.06-.67-2,4.19c-1.3,2.7,4.06,1.71,5.06.67A7.29,7.29,0,0,0,227,42.83c.57-2.64-4.86-.82-5.62.22a16.63,16.63,0,0,0-3.32,8.8c-.22,2.49,5.47,1.37,5.81-.67l.55-3.37c.4-2.43-5-1.24-5.62.22l-1.58,3.54,5.62-.22.62-4.56c.34-2.52-5.28-1.25-5.81.67l-.9,3.23c-.65,2.34,4.9,1.16,5.62-.22l3-5.87L220,44.37l-2,4.51,4.47-1.53-.4-.61-2.71,1.16.95-.06L218,47.29l.65,1.59c-.75,2.26,4.87,1.15,5.62-.22A6.19,6.19,0,0,1,226.31,46l-5.25-.22a23.28,23.28,0,0,1-1.62,4.69c-1.21,2.76,4,1.7,5.06.67l4.87-4.89-5.25-.22a14.55,14.55,0,0,1-2.27,4.15l5.43.23L230.89,45c1.58-2.39-4.05-1.78-5.06-.67l-3.49,3.84,5.06.67,2-3.78c1.45-2.76-4.1-1.49-5.06-.67l-4,3.45,5.25.22a9.05,9.05,0,0,1,1.62-4l-5.62.22a10.93,10.93,0,0,1-2.39,3.88l5.43.23a39.86,39.86,0,0,1,4-5.13L223.37,43a9.63,9.63,0,0,1-2.11,4.12c-1.7,2,3.95,1.86,5.06.67L228.9,45l-5.25-.22A14.05,14.05,0,0,1,221.9,49c-1.38,2.52,4.42,2,5.43.23l2.09-3.57L224,45.38l-2.51,5.51c-1.24,2.72,4.44,1.86,5.43.23l2.77-4.59-5.62.22a37.72,37.72,0,0,1-3.39,7.62c-1.49,2.56,4.35,1.72,5.43.23a35.82,35.82,0,0,0,4.66-8.8c.76-2.06-4.91-1.39-5.62.22l-3.31,7.55c-1.19,2.72,4.48,1.93,5.43.23l3.39-6.12L225,47.9,223.29,54c-.73,2.55,4.87.8,5.62-.22a16.79,16.79,0,0,0,2.54-5.09l-5.81.67L224,56c-.56,2.33,5,1.28,5.62-.22l2-4.68-5.62.22-1.77,5.3c-.74,2.22,4.89,1.22,5.62-.22l3.41-6.72-5.43-.23-2.55,5.41,5.62-.22,3.56-8.73c.9-2.21-4.82-1-5.62.22a9.72,9.72,0,0,0-1.58,3.33c-.7,2.12,5.13,1.39,5.81-.67Z" transform="translate(-1.99)"/>
  <path d="M256.7,82.58a8.66,8.66,0,0,1,2.14-3.82l-5.54.92a3.15,3.15,0,0,1,.31,1.72c0,1.32,5.51,0,5.77-1.25L260,77c.35-1.76-5.12-.24-5.74.94a9.79,9.79,0,0,1-2.69,3.34l5.14-.59a26.2,26.2,0,0,0-3.2-8.6c-.91-1.56-5.08.06-5.77,1.25l-1.41,2.44,5.77-1.25c.12-2.8-.77-4.63-3.74-4.56-1.93,0-4.84.79-5.54,2.83l5.77-1.25L248.09,66c-.12-1.29-6-.18-5.8,1.55l.52,5.58c.14,1.5,5.38-.13,5.77-1.25q-3.22.32-2.26,2.37a9.5,9.5,0,0,1,0,1.86c-.07,1.55,5.26-.38,5.77-1.25l1.41-2.44-5.77,1.25a26.2,26.2,0,0,1,3.2,8.6c.28,1.49,4.51-.09,5.14-.59A13.74,13.74,0,0,0,260,77l-5.74.94-.63,3.17,5.77-1.25a3.15,3.15,0,0,0-.31-1.72c-.53-1.62-4.86.2-5.54.92A10.27,10.27,0,0,0,251,83.53c-.4,1.42,5.28.65,5.74-.94Z" transform="translate(-1.99)"/>
  <path d="M211.31,44.64l-.7,1.39,5.62-.61c-.47-1,.14-.79.91-1,1.06-.35,2.15-.63,3.23-.94l6-1.75c1-.28,2.8-1.13,2.45-2.43s-2.43-1.15-3.34-.88c-3.63,1.06-7.34,2-10.91,3.2-2.12.73-5.44,2.66-4.12,5.4.93,1.92,4.8,1,5.62-.61l.7-1.39c1.33-2.67-4.49-2.26-5.45-.33Z" transform="translate(-1.99)"/>
</svg>
