<svg id="phone" xmlns="http://www.w3.org/2000/svg" viewBox="0 0 233.07 413.18">
  <title>phone</title>
  <path d="M28.86,5,131.08,2.68c16.47-.37,33.13-1.26,49.54.59A105.33,105.33,0,0,1,204.87,8.7c6.42,2.34,13.23,5.63,16.91,11.68,4,6.64,2.77,14.9,2.64,22.33-.07,4-.09,8-.1,12,0,12.3,0,24.59.13,36.89.25,35.3.66,70.6,1.06,105.9q.63,55.79,1.19,111.58c.21,23.61.65,47.26.18,70.87,0,1.26-.06,2.52-.1,3.79,0,.67,5.74,0,5.8-1.55.82-21.3.18-42.72,0-64q-.44-55.24-1.15-110.48-.62-54.68-1.13-109.37c-.17-22,.09-44,.14-66,0-6.66-1.34-12.86-6.24-17.63s-11.37-7.18-17.62-9.16C192,.88,176.51,0,161.27,0,126.93,0,92.54,1.42,58.21,2.18l-25.56.57c-1.14,0-6.5,2.27-3.8,2.21Z" transform="translate(0 0)" fill="#010002"/>
  <path d="M43.19,413.18l112.73-.58c28.29-.14,64.17,2,77.1-29.29.64-1.56-5-.93-5.77.83-6.13,14.86-19.15,22.75-34.76,24.63-15.8,1.9-32.19.86-48.08.94l-98.88.51c-2,0-6.22,3-2.34,3Z" transform="translate(0 0)" fill="#010002"/>
  <path d="M28.36,3.43A36.69,36.69,0,0,0,4.56,34.94C4,42,3.76,49.14,3.51,56.23c-.94,26.65-1.39,53.32-1.83,80Q.85,187.59.44,239,0,285.49,0,332c0,11,0,21.91.16,32.87.07,6-.21,12.15.46,18.08.06.57.08,1.15.16,1.72.27,1.81,6.1.49,5.8-1.55-.65-4.43-.45-9.1-.53-13.57-.16-9.46-.21-18.93-.23-28.39-.08-29.16.07-58.31.29-87.47.46-62.23,1-124.49,2.82-186.7C9.54,45.79,5.93,15,30.6,5.62c3.79-1.44.32-3.16-2.24-2.19Z" transform="translate(0 0)" fill="#010002"/>
  <path d="M1.78,382.7A44.42,44.42,0,0,0,42.6,412.39c2.39.06,6.09-3.49,2.17-3.58C27.94,408.39,13,397,7.57,381.15c-.76-2.22-6.53-.59-5.8,1.55Z" transform="translate(0 0)" fill="#010002"/>
  <path d="M20.92,48.17C19.75,40,23.1,32.44,28.8,26.64c6.73-6.84,14.85-9.26,24.27-9.5,17.66-.46,35.36-1.12,53-1.31q28.24-.31,56.44,1.61C180,18.63,199.4,19,207.44,37.37c3.46,7.92,3.39,15.47,3.52,23.82.18,11.42.25,22.85.32,34.27q.32,53,.28,106.09,0,56.25-.15,112.5c-.08,21.44.2,42.95-.52,64.38,0,.62,0,1.25-.09,1.87-.17,2.21,5.64,1.07,5.78-.78,1.51-19.14.51-38.76.59-57.93q.24-57.71.18-115.42,0-55.77-.28-111.53c-.07-11.88-.14-23.77-.33-35.65-.16-10.07-.45-19-6.12-28.11-8.75-14-24.94-15-39.88-16.16q-29.64-2.28-59.39-2.07c-18.66.13-37.35.89-56,1.34-14,.34-27.27,5-35.53,16.92a26.06,26.06,0,0,0-4.71,18.79c.26,1.81,6.09.5,5.8-1.55Z" transform="translate(0 0)" fill="#010002"/>
  <path d="M14.9,47.52c-1,22.51-.14,45-.18,67.55q-.06,30-.14,60.07-.2,78.47-.51,156.94c-.07,14.32.16,28.7-.32,43-.11,3.17,5.8,2.46,5.89-.36,1.22-36,.46-72.19.57-108.22q.24-73.31.39-146.62c0-24.25-.9-48.52.19-72.75.14-3.17-5.77-2.46-5.89.36Z" transform="translate(0 0)" fill="#010002"/>
  <path d="M14.06,375C20,405.65,60.88,401.5,83.69,401.21c34.29-.45,68.62-.51,102.91-1.35,13.95-.35,27.61-5.69,29.91-21.08.45-3-5.48-2.34-5.89.39-3,20.46-28.65,16.34-43.71,16.54l-55.17.72c-18.42.24-37.1,1.38-55.5.49-15.19-.74-33.09-6.44-36.38-23.44-.54-2.8-6.35-1.31-5.8,1.55Z" transform="translate(0 0)" fill="#010002"/>
  <path d="M91.4,33.46c2-7.31,14.48-5,20.39-4.92s14-1.13,19.1,2.55c1.45,1,6.62-1.25,5.43-2.11-3.23-2.32-6.83-2.83-10.73-3-6.46-.24-12.94-.27-19.41-.4-7.22-.14-18.19,0-20.54,8.73-.44,1.62,5.3.8,5.75-.89Z" transform="translate(0 0)" fill="#010002"/>
  <path d="M86,34.73c2.92,3.69,7.24,4.9,11.76,5.35,7.22.72,14.66.36,21.91.47,4.87.08,10.84,1.07,15.4-1.23,5-2.54,3-5.34,1.61-9.52-.74-2.26-6.51-.65-5.8,1.55.57,1.75,2.81,4.22-.22,5.68-1.31.63-4.61-.06-6-.08l-12.25-.19c-6.61-.1-16.43,1.45-21.06-4.41-1.38-1.74-6.95.36-5.35,2.38Z" transform="translate(0 0)" fill="#010002"/>
  <path d="M31.5,51.89q42.43-.59,84.87-.67,21,0,41.94.05,10.48,0,21,.12c3.37,0,21.28-1.69,19.23,4.62-.52,1.59,5.2.86,5.76-.87,1.33-4.09-3.49-5.85-6.76-6.35-7-1.06-14.75-.23-21.84-.28q-23.47-.15-46.93-.14-47.43,0-94.86.68c-1.88,0-6.24,2.89-2.38,2.84Z" transform="translate(0 0)" fill="#010002"/>
  <path d="M34.64,51.27l-.5-.46a3.61,3.61,0,0,0-3.89-.25,5.41,5.41,0,0,0-3.36,5c-.53,5.51-.16,11.28-.24,16.82L26.22,103c-.13,9.25-.31,18.5-.36,27.76q-.12,21-.13,42.08Q25.6,235,25.62,297.18c0,12.34-.18,24.7.15,37,.07,2.75,5.89,1.66,5.83-.58-.77-29.06-.17-58.22-.14-87.28q0-55.3.21-110.6c0-4.84.05-9.68.12-14.53l.49-34.62.24-16.82.11-7.91c0-.74-.28-8.23.05-8.4l-3.89-.25.5.46c1.71,1.56,7.18-.73,5.34-2.41Z" transform="translate(0 0)" fill="#010002"/>
  <path d="M199,55.82l.34.1-.72-2.7c-1.8,2.44-.45,8.06-.35,10.94.24,6.93.37,13.86.5,20.78.4,22.08.62,44.17.81,66.25q.64,75,.59,150.1c0,13.2.65,26.69-.41,39.86-.23,2.9,5.66,2,5.86-.48.87-10.77.36-21.79.4-32.58q.1-33.27,0-66.53c-.16-49.53-.4-99.06-1.19-148.58-.14-8.76-.29-17.51-.55-26.26-.08-2.65-.16-5.29-.3-7.94-.05-1,0-2-.18-3s.21-1.68-.31-1c.74-1,.67-2.3-.72-2.7l-.34-.1c-2.4-.7-6.84,2.79-3.37,3.8Z" transform="translate(0 0)" fill="#010002"/>
  <path d="M27,332.26c-3,4.08-1.22,9,3.14,11.28,6,3.07,14.58,1.67,21.06,1.74,18.51.2,37,.42,55.53.55s37.2.17,55.8,0q13.95-.11,27.9-.38c4.53-.09,12.31.81,14.17-4.76,1.08-3.25-4.71-3.38-5.57-.78-.65,1.94-7.52,1.06-9.14,1.09l-11,.18q-11,.16-21.92.22-21.42.13-42.85,0T71.34,341l-21.58-.24c-2.86,0-23.35.85-17.85-6.66,2.2-3-3.23-4.14-4.89-1.87Z" transform="translate(0 0)" fill="#010002"/>
  <path d="M101.46,370c.32-7.52,5.6-15.4,14.1-13.95,7.13,1.22,12.15,7.88,12.17,14.94,0,8-6.53,15.66-15.07,13.5-6.9-1.74-10.9-8-11.19-14.86-.07-1.63-5.88-.53-5.8,1.55,1,23.26,37.86,20.93,37.9-1.37,0-23.41-36.95-21.16-37.89,1C95.59,372.94,101.39,371.72,101.46,370Z" transform="translate(0 0)"/>
  <path d="M71.46,174.7c22.08-22.61,72.86-34.73,89.87.15,1.63,3.35,10.17.69,8.69-2.33-19.78-40.55-80-26-105.68.23-3.67,3.76,4.77,4.35,7.11,1.95Z" transform="translate(0 0)"/>
  <path d="M92.79,186.91c2.46-3.42,7.41-4.43,11.27-5.34a40.56,40.56,0,0,1,13.56-1A30.35,30.35,0,0,1,137,190.27c1.56,1.7,9.69-1.38,8.17-3-8.14-8.91-20.28-11.5-31.93-10.39-9.44.9-23.12,3.26-29,11.52-1,1.37,3.18,1.08,3.53,1,1.79-.28,4-.94,5.07-2.47Z" transform="translate(0 0)"/>
  <path d="M112.56,208.34c.34-.4-.08,0-.23.15q-.89.46-.44.25t-.22.08a6,6,0,0,1-1.34.25q-.52,0-.18,0t-.38-.1l.48.14-.38-.17.21.13.2.14q-.41-.37-.17-.12c.12.07.38.61.11,0l3.61-3.9-4.45.85c-1.6.31-4.13,2-3.61,3.9.56,2.1,3.52,1.87,5.08,1.57l4.45-.85c1.3-.25,4.48-2.09,3.61-3.9-2.41-5-10.2-4.56-13.53-.69-1.23,1.43-.9,3.32,1,3.87a6.39,6.39,0,0,0,6.15-1.65Z" transform="translate(0 0)"/>
</svg>
